<svg version="1.1" xmlns="http://www.w3.org/2000/svg" viewBox="0 0 834.2823080407954 497.8731332924031" width="834.2823080407954" height="497.8731332924031">
  <!-- svg-source:excalidraw -->
  
  <defs>
    <style>
      @font-face {
        font-family: "Virgil";
        src: url("https://excalidraw.com/Virgil.woff2");
      }
      @font-face {
        font-family: "Cascadia";
        src: url("https://excalidraw.com/Cascadia.woff2");
      }
    </style>
  </defs>
  <g transform="translate(424.568359375 10) rotate(0 199.85697433289772 210.17773437499997)"><path d="M0 0 C0 0, 0 0, 0 0 M0 0 C0 0, 0 0, 0 0 M-1.014036470619018 6.625665036638372 C1.8772050002122804 4.713216783501134, 3.939030438252633 0.9339678317543401, 5.602440870138353 0.36259688770745335 M0.09744462560397887 6.129660816912644 C1.296593233215746 4.4427286174972735, 3.0023218665404903 2.8580851782971295, 4.7876862071030795 0.1402575120178276 M-0.9979333973396911 12.137155609249652 C1.1317818878656383 8.776982220740193, 3.6966141547288998 7.440695060742032, 9.848340681147707 -1.448369421522343 M-0.32686689485799203 11.588296903341591 C2.89486920411803 8.905863068852415, 7.62646238276575 4.959640032760113, 10.781270534497631 0.008581632663285932 M-1.1765165934851627 16.527832758520418 C2.5274016001368813 15.71126021007985, 6.492464728727782 11.473948567585541, 15.351129823833187 1.4256915884953907 M-0.8482041322207312 18.498650453892225 C6.569341356126411 10.455277236639862, 11.457390163789809 3.5676818985762058, 16.35504284361698 1.311069572058039 M1.4820767885259603 23.289016123577117 C8.250935221740743 14.905280199514081, 15.854944186001646 5.028109933644515, 22.465884723046685 0.5186879815697196 M-0.14672851635149975 23.228144383705317 C5.3446648898484685 17.39727431895591, 11.559030189836854 9.581013118510032, 21.313374442325795 -0.3050726964906332 M-1.9116577030579194 31.511511165414205 C8.205616311147702 21.685329799779495, 15.325268149829881 14.13868354835682, 28.236136455696435 0.4794291568931879 M-0.20586610580334508 29.777702240970186 C9.954660302044648 19.101902526190887, 20.18548537430996 7.002018265422851, 25.949660950947912 0.020339440928095698 M-1.478699613465043 38.011592190527665 C5.03071409536142 27.032765543069875, 12.703339931788971 21.45207511577027, 33.3551676305447 -0.007473284260999691 M-0.01277686572638359 37.56854828335469 C7.380591744237397 29.37651967369053, 15.706849379504572 19.521872774310093, 31.400574870823718 -0.15457777574069453 M0.9900496370763534 40.80670538041346 C10.244455519574998 31.64512493286282, 18.52497746851554 20.711578151803867, 38.53460286539172 0.6501024552714547 M-0.04778482377072635 43.49944583102666 C13.528017944480789 26.636389466634025, 27.72606502356533 11.191129631561509, 37.02913852483158 0.38091927683916893 M-0.12191033363350101 48.567097532235906 C10.491734987969535 33.9099934188895, 25.13025549050908 20.689421783426447, 41.565381018999744 -1.8983882732362503 M0.3411948429419809 49.1170760073223 C12.14037064757975 35.162866336029964, 22.667266101386364 22.976361019279537, 43.266946289311875 0.35877496361275973 M2.1482343331676574 56.52034899726819 C19.77102111995626 33.619919704871705, 37.93609956525836 11.894339551077366, 45.88178295916903 -0.720979922619815 M1.1248190107521268 55.239320677186655 C13.461375236596947 39.55610536383241, 24.9193691333885 26.283924078867102, 46.95944236214298 0.9760610329162525 M-0.09336049471993135 59.676550322674615 C9.344753378735554 49.72184742896933, 22.353600926547216 35.0722527900653, 53.62240379466182 1.546626608393968 M0.9375943775380762 60.89918908895592 C13.034260432290639 46.00916018849396, 23.911866733421455 31.5846744706974, 52.208142994665266 -0.23645002530527037 M-1.1922837375245123 68.73283518995116 C15.342884789478113 50.138798566065404, 32.566633248199906 28.954818344368583, 58.19418064327837 1.926240616969391 M-0.7359593343502908 67.96810081279794 C18.592379929712028 46.46793367510088, 35.443047489726574 25.70983403946652, 57.71591425975711 -0.4703583377156413 M1.8984538095256696 71.52500915559379 C18.883779020104893 50.62264562153118, 38.01063954924721 26.729968190841404, 65.33336486378093 0.24700495437965486 M1.0642635349369058 72.32626448138056 C25.048690281089836 44.73916619313041, 48.21586124323957 15.939274067462108, 63.62919428375889 0.22893671063021515 M-0.5372576107691458 80.47917839176682 C16.61728029936311 57.25103838321999, 34.66104256320646 38.162999722468214, 69.66954982396975 0.3705726677890553 M0.39952749577803104 80.03305653053997 C19.199805991591997 56.75975375159324, 39.44132213062865 32.48440990795493, 68.88327101454898 -0.09383688193153006 M-0.5737135146466983 86.51628262474344 C23.998217317322815 54.9380961694677, 50.37058435607691 27.43235977481715, 75.78664313260707 1.340930358470814 M-0.3815808879865301 84.95030413772122 C20.538837550346393 61.28762981500333, 41.82432287756364 35.717202121143615, 74.04450445346775 0.5647496245442198 M1.920632590693252 90.27727177668795 C28.675315653235995 58.38441725761647, 59.10018295363267 24.825107521290633, 78.78689440749315 -1.390425176410801 M-0.29787523097841273 90.6862118637605 C22.396522673857852 65.42791265524485, 44.95813265741261 39.37436445907293, 78.65560442339358 1.1107523533936075 M1.68808241002246 96.02763890409634 C25.2705787905384 65.5127131678743, 51.88625429642976 36.64824247831715, 85.35186750739024 -0.814663585582565 M-0.5494061233477368 98.21864459132567 C27.026213249417914 67.10668844280002, 53.39846329161982 37.231920803556484, 84.07785280066685 -0.7785718304382669 M1.926015773112681 103.10904893846455 C31.759938225144243 66.58540601368763, 62.524661178558425 33.538923097135225, 90.30646830009857 -1.1404443218801958 M1.1081117822553779 104.06550626558456 C24.828950236484754 73.96918700631255, 50.19671212302041 46.20513714946621, 90.8363812831659 0.2891613213847535 M-1.8687864522358453 111.3909674269569 C32.63093712951961 74.93663637678837, 61.82552878967512 41.75352596337423, 93.67991689438045 1.3559067159695246 M-1.011127316290704 109.45511863487334 C33.93357471168162 72.75617109091614, 67.02216303592921 35.04136068687842, 95.46239362223119 -0.7099632011922381 M-1.4952291572608587 117.17519347084662 C22.11752238849507 90.02877757002315, 44.89574894284964 61.056747616013574, 101.26977540803605 -0.44442617486911473 M-0.33685716764559714 114.94950418913713 C23.48805686752346 91.44574697417562, 43.40535967451091 65.38873325772015, 99.83844339074099 -0.27223302483307776 M0.5161247758378806 122.42103636729797 C36.76935888819182 82.9090797565636, 68.89033595583436 45.51036040387815, 105.70292019982767 -1.35292514312291 M-0.6974616989309368 121.38831280171206 C30.578329260076103 85.24771979781892, 62.59689378297348 48.61983247219531, 106.04065621503574 -0.49773503459268653 M-0.6920323231678722 126.64984854780693 C41.29284509977363 80.34240101519464, 82.8980250837548 31.283392613242356, 110.99956963755555 1.351437858372428 M-0.13381181279684284 128.51210466776598 C32.07932296193607 94.33499793683757, 62.8042693172327 57.47154560897509, 111.6840075429938 -0.14642873213490049 M-0.4594299995063551 132.39665431886948 C34.102410393517125 93.10258832263159, 70.12462462148524 52.096519600113496, 116.97819730099144 -0.17326598888710265 M-0.27369247439342814 134.13272904496677 C47.29053459423934 80.59652489031731, 91.78796793324678 28.84444467351328, 116.10848584696504 -0.014863297291846322 M1.2361032396226506 140.66177860264995 C39.03020312862023 100.44690700143812, 75.97079968752121 54.1605217353501, 123.09985489490708 1.1197063715944466 M-0.7062297983423491 140.3037029941506 C30.364227998095174 107.62473196837722, 58.07666123296014 74.88388514431483, 121.00466553679934 0.23420115260429952 M2.183553127981426 144.81537987542148 C44.08210510675777 97.57043854080172, 90.49261434054993 47.09784640146752, 126.31249516210272 -1.3826013880186068 M0.20427215419680067 146.94349431776251 C32.94080359964782 110.84782305357633, 64.78831809212687 72.33599442238798, 126.03927987287506 0.2421723033897294 M0.45328180666196116 153.6753267503889 C45.59343234383703 96.49894985694075, 92.47166919208068 44.23152037896375, 131.56877531568756 -1.8421632354240078 M-0.2991234627147678 151.84333026630063 C42.7229717322476 103.30054772401223, 85.88144320574992 54.77037889053876, 132.09375744739214 0.5126122753340502 M0.8991356497125054 158.22373893075869 C51.02931480196111 100.07644436415286, 100.53909005509469 42.52882848379802, 137.7917311701332 0.23400914857355556 M-0.3511213499648378 158.06725150572052 C33.68772458998535 122.00145163166994, 65.74338330753643 84.70585599501223, 137.36951081400514 0.6378424900327236 M1.1155574851351384 165.10799212298676 C32.61392324168504 124.94102223484246, 68.66974737152275 83.96813879188416, 142.35691343349143 -0.7444870277751381 M0.4196499947680436 164.30094381295368 C45.17245462408498 111.9764147291836, 92.28402624155987 59.34489157209086, 143.58387015286596 -0.24327090082569858 M-0.878985999451799 172.5363155144779 C55.81666912610215 104.4954230681225, 113.18906007078729 42.13568118066891, 149.37266568459157 0.31082346609869094 M-0.4518400547558148 170.32753353433122 C45.13884571822279 120.46224084803735, 89.84970538607791 68.65875027485106, 148.29230440619196 0.5510154384453615 M0.8351216792195969 177.01331936705833 C57.094745171482586 112.33413990189838, 111.68427147614747 46.58004755773528, 152.18421764791245 -1.4817226148146838 M1.1182376638422085 176.739836285137 C46.315934699220826 125.35419065647378, 92.28074327526684 72.86594147720824, 154.20080732981882 0.5632142874852252 M-0.6785806756073612 181.9347774025078 C62.23978158293235 109.92108188175426, 124.5145955558284 38.695761395239835, 158.8807003179083 -0.13870400557143936 M0.7426260415098935 183.13614896951466 C50.77759476272678 125.79331460179655, 100.56715315549008 67.9863961385891, 158.4062189331513 -0.02166121020698686 M-0.3749381661887251 189.70605903703932 C42.87230487094242 140.65871497142535, 83.48147450631883 93.41221727062201, 165.00180796958506 0.8056193428711879 M0.0784402222552999 189.60505881857347 C41.92897021691567 138.85143489382017, 84.96846415883415 90.13702197322466, 164.89460925200734 -0.37189125206307955 M1.4044395922907262 193.6049717042721 C59.80425048764964 125.74889763022045, 118.88159713246851 59.19837201935006, 168.61424957081573 -0.9785908117004929 M0.20218353963793712 194.68595570148076 C63.576654468812734 120.97246985383615, 127.25783549049471 46.89870951808163, 168.99146984334502 0.2324508491294038 M0.4004631647863831 200.6764835296672 C57.050907503087274 137.55041614075145, 112.05451030692919 72.33772334313973, 176.58027555483378 -0.5142422191731595 M-0.6412677663557436 200.83764236806596 C51.38171392415633 140.03680614144693, 104.88969994419728 79.40447358878606, 174.61744620063212 0.4878907124103158 M0.8217107502873716 206.24318115419464 C39.59502069049684 164.0567820223826, 73.8584081804839 121.80250120280674, 180.03407511904638 -1.137742872552142 M-0.3608531470660342 206.6183536079395 C55.04753675583961 144.98657450213815, 107.1411787050511 85.05287110992248, 180.47670319773505 -0.15106449099175556 M0.2990464860584133 213.7860800456944 C62.48374369990232 143.3572833998031, 122.78959352318769 73.92539069032189, 186.49448683218606 1.1460737505314413 M-0.19824120896536704 212.73022715279475 C49.96082909161076 154.35045252854528, 99.98164212964222 97.05692163479092, 185.97077358146439 -0.5298278354141239 M-0.8202931502999361 219.6150348786714 C41.07248860581232 173.15835299233024, 81.00462558471874 125.9084482086882, 189.3623023170258 -0.2714887118147269 M0.35309914934211184 220.4744524999719 C51.737045943100846 158.46712157458944, 103.61028269544119 98.80589731685883, 190.3087085883611 0.2836749145263083 M1.2877760587113778 225.26736737013078 C58.96958733200049 159.26047999385358, 115.33768999927692 93.38440056088734, 196.06830654866343 -1.5704020739427296 M-0.15648291384990903 224.8841476642395 C53.20885968149041 163.5650732753675, 107.21377551089525 101.74817224674158, 196.50923260575905 -0.6235464110881426 M-1.476619178268781 232.94986938840975 C49.04953459655978 175.90382772737394, 96.36870308812844 120.66025953487812, 201.48247993398 -0.10802581888242027 M-0.7278362589241734 231.18379307197 C50.81052811370153 172.14246532780217, 102.21334468739308 113.56159567736601, 201.42299080696688 0.36539613198623017 M-1.1145869686707524 238.39773280048595 C44.393053864151106 186.17602855380096, 88.6932933769245 134.72586808830528, 206.6570327387873 -0.6761845060234075 M0.3324967669642488 237.40311163762945 C81.32750131118416 144.01132279958046, 162.77708410641188 50.94587464572682, 207.38323794102092 -0.8125314864134979 M-0.978077986668215 245.0070117325093 C56.98118159558403 180.47983799948645, 111.55898512839472 114.444695604124, 213.13809833715393 0.10871668941699855 M-0.6472517926611783 244.19257464618437 C79.45625290721952 151.8933837349651, 159.05462780069092 59.91894121668939, 212.24856771013611 0.22609351155017235 M0.3897510799134448 250.7543829833699 C72.99907766496223 166.0630392266945, 144.9642550417744 81.82519164041513, 218.2450386947448 -1.434356783002343 M0.05021918357898708 250.8792806227589 C79.5337618167587 158.9462285640298, 158.84018036280918 67.21148305699971, 217.95209229054714 -0.5170266081266006 M0.22198297933571803 255.5659267022299 C61.45606738315293 182.7561061482445, 121.84916656724063 113.61781060817417, 223.7193671673192 -0.8314195065941904 M0.7576278429797018 255.58546766096956 C65.85248360842083 179.24711654392357, 132.40538105296935 102.56900651480112, 222.1768919122487 0.41048378454139106 M0.3157077738915686 261.54403899455986 C58.652862114791105 195.42018616126282, 120.55882498725101 124.41169912251648, 228.372699915459 -0.35248399091486315 M0.5541437780717671 262.77403517692335 C67.79600539946546 186.09936408344902, 135.2489097168153 108.12410310652884, 228.0724513507296 0.1877415556972568 M-0.6635643379229546 267.16984510133125 C86.93889253513905 165.0066963487848, 177.6275439111009 63.11729780119887, 233.5424862527472 0.6850440859062924 M0.14513834909714232 267.8964502484301 C71.91090425007916 186.77335915890885, 144.44532737353282 104.75938462884575, 233.33787823393448 -0.13359202396685715 M0.5735575183216165 274.1566517698853 C64.84545696200527 201.15861006399723, 129.02229024383797 128.30973645422858, 238.2449397797626 0.1477434855409581 M0.2100491180947381 274.0029012182393 C84.19405534531091 176.7371752337457, 167.87636435272506 80.9342855319413, 237.9785204024185 0.8242117081576179 M-0.30625783607354334 281.6257412493586 C70.20850341664303 198.12813363450354, 140.45045993679247 117.33935633000716, 244.90579351718614 1.0605367160835 M-0.04427970527592809 280.42119618104556 C90.84383744185679 173.74017782489494, 183.30648827399972 68.06085200666585, 243.28896676308133 0.5624645220167046 M0.4977635266389063 286.73259704901375 C93.22889199408881 176.75996046385478, 189.2044918555889 68.72535288606669, 248.5138929596875 0.8176673387569113 M0.06672324643998132 286.3026427667056 C66.69474852365849 209.1909272533029, 134.25303657004144 132.2298242741497, 248.8994812815982 0.7309958912093377 M-0.9497074275820364 293.7030225367456 C55.38769191209744 228.9142366199772, 111.15151318799212 162.10657147146802, 253.43374714272133 -0.82292537664271 M-0.24318799657379628 292.2714927355087 C82.30577633347919 199.06060702293644, 163.2160507270828 105.33420060545305, 254.7499420378271 0.40491387426181147 M0.27265819034107963 299.54608240910983 C73.8862413945464 211.42467317811116, 150.42688130863593 125.25778422859446, 259.28399309836635 0.9785652047276722 M-0.07637245589785457 298.6140538095147 C60.97708981008885 227.76012765913435, 123.50761579206781 155.76701564006802, 259.87532855301964 0.3139927718509177 M-0.4362700400698103 304.5513673319039 C59.500191134106124 237.9670841827134, 117.404339765692 170.82445512884942, 264.0674808972284 -0.7020154685800125 M0.5844017630599129 304.8009378067771 C63.979233987800924 230.9038730609341, 128.34016248458207 156.35984050298123, 264.99337156860696 0.2527938479753001 M-0.9923148183252705 312.0489664508198 C69.03312351859755 232.0791490660459, 137.28189208665103 153.78752400643296, 269.1448506968857 -0.43737217307641596 M-0.43508787200618554 311.1546882193712 C62.33205143787681 240.52741694572416, 123.42895428502703 169.45003592205524, 269.888267143342 -0.08614528299260188 M-0.5654658099138745 316.77715898292917 C60.10216635734356 245.78779051234548, 119.14232101997749 176.988429441246, 275.1634326865179 0.25073622117971067 M-0.11686359998325546 316.9679665438498 C76.95325747340661 228.37056117062676, 155.1192990788223 139.17969701511382, 276.09855237321887 -0.43645503675014136 M0.5741959491987049 323.363220193127 C106.6169432035844 200.40989963571795, 212.80296625084608 78.58221973106251, 280.2148546354328 1.0414763331849533 M-0.3300478075846497 322.8381693038144 C71.42113646959669 239.54328484084107, 144.1457535352517 156.65505102530665, 281.0389678204502 -0.11569289330891158 M0.37425672650884545 329.5715012379172 C109.2195212283251 202.85315265548573, 219.26481503261468 78.17892079799363, 287.01428001640033 -0.3642657264552235 M0.4485293406883281 329.0049426957258 C80.59309757335876 237.90964726118295, 160.16959836365584 146.77479829059152, 286.27069366946046 0.25421954017837406 M0.09004486730093161 335.3657613009447 C101.29734576239733 219.3975716241758, 199.26936681348775 104.66927331926031, 290.39824057997816 -0.7473148199942902 M-0.3818476825026177 335.0842041338105 C93.46022057399982 228.4939657160943, 185.23343140687342 121.56179864796651, 291.37540604183715 0.0837689743250655 M-0.6058853400698783 341.19735879144383 C111.17466113121519 211.9447635423453, 221.55658386052787 84.02758358361952, 296.61330145133627 -1.0006634338542142 M-0.6278562918997215 341.4483878130816 C88.10129589625309 241.06985101429132, 175.52428263919637 140.40210130929526, 296.9989221323995 -0.1567326323889847 M0.37012237460457015 346.7230773473687 C83.22444489464795 252.2022139109926, 167.25059334289404 155.73571350421136, 302.81165301133234 -0.35640442670594363 M0.4265670421316255 347.31779554585836 C78.4071006273037 257.6511821600674, 157.82644880810085 167.61973058403143, 301.9501437378007 0.4558089275021029 M0.6079153043265889 352.81576464580445 C83.57093199865827 255.7668320911357, 168.1707641409444 160.1792363784412, 308.51244789446747 0.13647984564071147 M-0.3825473925627622 353.5910990999274 C92.4680044956936 247.00360813101176, 184.55515945253288 141.7862951081027, 307.2571893368541 -0.6333387094059197 M-0.17918979026738951 358.6795278054947 C87.34026230137616 257.26013654494574, 175.30881057812317 154.84744974524062, 312.97532531030583 -0.4110401810418035 M0.734128455209625 359.35774322645716 C95.08103194344127 251.19050611207817, 189.86373555291016 142.32783388550638, 312.99156838863865 -0.30949637618502596 M0.5639745375856378 365.67931348720583 C85.913853085447 266.4582975033196, 172.25614208130625 167.4531393235004, 318.3094756222131 -1.0068552452943553 M0.3838607682876878 365.5981157058628 C89.19912520259471 263.4188571698417, 177.49231480855624 161.64434555405518, 317.98977392174305 -0.5019906366448704 M0.3829718412776233 372.6345990912813 C101.38198838126985 255.11557907685386, 201.56285281585386 138.0811727620597, 323.3068363929421 -0.41083134563781676 M-0.3089712185067189 372.4977970412918 C104.52988668468966 249.44564715377018, 210.3078283975341 127.94278888292493, 322.8510686129011 0.15138149502347187 M-0.39845110627894653 377.83277309371726 C116.80962845728016 239.7785458459487, 236.82541325024266 104.1216017220449, 328.69686718133954 -0.6872537556749934 M0.5861738178592418 377.8624861682077 C111.78497801178113 252.03252040962903, 222.08607360519906 125.10257676824034, 328.7724259171423 -0.5915178201806897 M0.44244986251392227 384.9435759811469 C97.21985732753032 272.4310628357786, 193.54711721116368 162.18814443976152, 334.2731979321053 0.11377089695484983 M-0.3222949180712476 384.3482723544159 C124.46339331314817 241.3395266118564, 250.3036765079844 96.75102412132489, 333.5976310580333 0.22519256958217967 M-0.42673927910699383 389.3145611035393 C87.7573438373157 287.8713328772806, 176.0441635742422 186.10552764636898, 339.2311622052697 -0.8335427232650545 M0.3695210677377986 389.59776364851155 C130.76244104460812 240.61433995646237, 261.0215036747055 90.72451079831845, 339.3005012917576 -0.16649886636114386 M0.43589173118975283 395.7561974260274 C132.0850733852344 243.7225883041853, 265.8718181362882 90.75585354231809, 344.05095151316436 -0.6445069012016461 M0.21604424464907768 396.2981746210966 C122.33069921236131 253.5067959557555, 246.7287861773567 111.16271741722576, 344.53506846267794 0.16476306759115006 M-0.6525385072927691 403.3202939230762 C98.45261510949675 286.61990304806517, 199.6758001381993 171.5025211982409, 350.21296570509224 -0.31809391239013396 M-0.24489145600309142 402.45110672710456 C88.96563997720926 301.3530417547692, 177.56907915932067 199.97360603334192, 349.87627587712853 0.12722045137260238 M-0.5428801452515757 408.03912831915017 C121.94740040106818 266.8298566239962, 244.69170181210688 125.09462188208583, 355.7546358803563 0.40219271763410236 M0.3772822721155251 408.3991770464688 C123.32023018191998 263.7487383205953, 248.60153336587555 119.79814822233617, 355.2893012164437 -0.16736901008341648 M-0.09712917035521969 414.46457582938245 C99.0651813489337 300.8317942020067, 196.946057490491 186.8167471117886, 359.62724730128804 0.9674469540041515 M0.19519102336762445 414.6526470247912 C138.47758871905484 257.40795511832386, 276.0020013182103 99.74616842575762, 360.398879449986 0.42289675382493214 M0.32898579568985153 419.66014209801506 C135.6900264472447 264.3805446034719, 269.3476418213081 108.90068440826663, 365.413352596181 -0.7846068090379902 M0.07343088307800938 420.5689554117824 C106.21496692521913 299.7022379304112, 212.13878444953937 177.72093210375039, 366.1192160380805 -0.05040288219160516 M4.811003497139211 420.87596319839884 C101.11800792333379 309.7649715890231, 198.99317572348062 196.35392656604748, 371.2032995273667 1.083062893640681 M5.466068427533503 420.71521826126207 C127.7271107902038 282.2089201559161, 248.79274673747528 143.00230514214076, 370.84301470008967 0.174165402468725 M11.283785580362258 420.0991589165578 C91.19200684741455 329.96646298673886, 170.48347085578072 240.01979166422808, 377.16870322313866 -0.15588204371789516 M10.957196260134754 420.106082214723 C109.3662965734811 304.05090499956805, 209.49687521852812 189.42399435936971, 376.7274496463384 0.09271223251661243 M16.36346105769052 421.25347946762514 C94.83154050720563 327.64766813229903, 175.69079900796243 235.85747432118438, 381.83897394582823 0.2215273440193414 M15.795377475244544 420.89087121776714 C114.9199953920088 307.55242001345755, 213.33353381630306 193.92420846068842, 381.0831933461894 0.33620217855386725 M21.672426307417474 419.4743054958428 C136.20512125002747 289.2765451620944, 249.75489842421774 158.77344889755364, 386.474789323729 -0.7751095489056127 M21.33114565818759 419.9160865201051 C121.1367571016164 308.84383232896374, 219.78509983724004 195.00830611821496, 386.6603887599674 -0.10472288470876379 M26.115872841874648 421.22132471634364 C134.87823199585694 295.40006449064657, 244.10058777131266 171.64748293044974, 391.34462211917247 0.663113742640246 M26.806032653326678 420.7255833173386 C130.56293596565683 300.4150801276711, 235.37229514156925 179.93125567585176, 392.23767710703515 0.5204328633304727 M32.65525953935548 419.5158552733699 C117.99687235181841 321.76639222537756, 202.4883661115591 222.94586517616872, 396.89821246045216 -0.8182658871011427 M32.03854079598649 420.2853941091785 C108.97138593733158 334.00807810553823, 184.57204735408394 247.20568693949633, 397.3081700977175 -0.5531574526177337 M37.38484041219153 420.4535223820545 C173.69596038463885 263.65759436041856, 311.0839301785363 107.09947793105248, 401.9309775519185 1.08501468744887 M37.21317068052985 420.1839053412266 C138.57637136956004 304.70990388184856, 238.35873980026204 189.26386972040308, 400.956359643396 1.7039523984940161 M42.705136838676324 420.0415816866392 C125.40556571637181 322.1291088007873, 209.96459921384832 225.08933847820043, 401.55748390590304 6.773268181423259 M43.16639339228152 420.55668076319336 C143.40435420978793 306.4955288516667, 243.37785595042112 191.07613265423362, 401.74409008843355 7.240305112267447 M47.99946533114128 421.11159590225736 C168.71408769415515 281.2578493281671, 290.00706522153087 141.99006603036906, 400.9606834586803 12.999018578618461 M47.975678275604174 420.8866380706809 C135.5177150815392 317.8796986539073, 223.54982242336692 215.6816669405849, 401.7722943261359 13.467201527967745 M53.20740976787995 419.7567581731508 C162.6414910992358 295.8739788112356, 272.0598922621313 168.7971923388776, 400.6123823095532 20.93438735349924 M53.645465165822614 420.3288722633997 C139.2154533888235 323.76630834488424, 223.87048218699726 225.78792984296302, 401.0139625378372 20.013586850528423 M59.10134916122384 420.6445687144524 C195.44400481116386 262.1272425472631, 331.5304671964369 105.82716154977354, 401.3664178078249 26.381964730530267 M58.69619215729959 420.11083228695156 C140.95137458615946 327.0838398484907, 222.45501927679894 232.39499513636792, 401.51981927987185 25.62442190988291 M63.803870860475904 421.0088677506272 C179.44543422537845 288.70518425925746, 294.6205796237187 155.7095471787667, 401.6154814658267 32.91393842484461 M63.39420880636931 420.61185397127014 C173.3787676851846 294.7170546565264, 282.29617500936934 168.85276167827118, 401.6876463966025 32.38731190163301 M69.54459346493918 420.5889642561397 C185.2339054998845 287.94762432519565, 301.2824400639435 154.66518494366724, 401.80853216185227 37.464126580684265 M68.82109904436606 420.7897887712887 C196.90952913999652 273.70164539788806, 324.2272737078063 127.31950445671325, 401.4921962233539 38.01203932548948 M74.21752315512668 421.1701265366684 C187.7845872586356 291.9304942886708, 299.85762288803056 162.48841494413298, 401.5276047149921 44.03990307866096 M73.94244101827766 421.2091498971361 C172.4755891097851 306.00900567617896, 271.7153638155472 192.2672272881672, 401.47428763682376 43.82914921756071 M79.90281512650049 420.99100837828297 C179.28240785337738 303.286026813399, 282.35804707578706 185.20483646997158, 400.7875540157919 50.93009867752679 M79.63695623875284 420.72464591178283 C157.33697912893447 332.3223518649888, 234.52143264116356 243.89951244240825, 401.5859288305263 50.26296472180622 M84.2852728814639 421.1847246557673 C151.5894222774286 345.2760175418145, 215.50636722273498 270.4583630266442, 402.1114088369763 55.74120277233561 M84.9108085745132 420.8417462384061 C158.27374574570737 336.61769614906086, 231.51012728654723 252.79380102309324, 401.7961562984901 56.31788390455223 M89.99915059993823 421.1709343900418 C161.4056534407393 338.80684834608127, 233.36678275242124 255.1300597239956, 401.7952800479367 63.30131733300359 M90.72425182910442 420.09691627137687 C176.24251271025685 324.0937759459777, 260.7112284070402 226.2704662121321, 401.68168727325775 62.437745202548385 M96.00928407300947 419.9350890512349 C210.5731724776115 286.3258750626233, 326.01733537748 153.2157523738824, 401.93123758134664 68.03608326879493 M95.36718330318594 420.9518976999267 C193.9715709861616 307.4605499310568, 292.1923160645359 193.63159870853116, 401.8848162825204 68.26012602632076 M101.64962822569076 420.3690403874986 C200.06869421215808 303.1630663926861, 301.17646126892305 187.4191315069821, 401.84513371174205 74.43527747061387 M100.93448598772005 420.5612081028803 C210.84856207685428 292.55712494516473, 322.0425318685253 164.55631851608268, 401.2613927176272 74.25216655268522 M106.74356485793845 421.4664308554081 C217.43667510622015 293.22195917013767, 326.311991754879 166.77775005441887, 401.5777698030246 80.87075566107201 M106.1168289157094 420.2816155171501 C182.1588557814247 335.28507695685397, 257.22041650174856 249.25467291946077, 400.91334469197545 81.36850420858072 M112.27959697060376 420.75666977958883 C192.3834895079388 325.76552741623954, 275.17986642591677 232.10250560470575, 401.637503806866 85.82860739148063 M111.62523390422369 420.2777661475283 C206.0314637192901 310.13262591982215, 301.6694521636017 201.1090099094635, 402.06134342435246 86.7111366798583 M116.8793319421863 421.21420068097837 C192.13835037917616 334.1870858830667, 264.9601105014458 250.94091114638104, 402.0245489808672 93.8735990943007 M116.69398266117231 420.6555400549275 C191.8090227031297 333.03666453797166, 268.9813314894886 245.17341712497438, 401.325581556554 92.85259367323131 M123.03550655152293 420.9365284252482 C189.9251010963898 343.1407131910733, 255.774950569964 265.34777952690536, 402.7326702829668 98.93722744672702 M122.7055631932394 420.70553992155646 C221.74106675302218 305.5829261440921, 321.0020768556636 190.41372038057062, 402.08042127915127 98.76813386670932 M127.62952523961317 421.7081260708356 C228.6619102249931 302.8187240260829, 330.09128181221973 187.50723483010736, 401.2667440332658 106.0793008187205 M127.6558993770843 420.89817753957766 C201.72487632729468 334.4559418961118, 276.74505242032876 247.5769542490979, 401.49341640269006 105.1974980982556 M132.18783531548087 420.4049955388464 C233.62156304735691 304.6361668604343, 334.16828036169505 189.94536059281282, 401.56722562933487 112.53006375844421 M132.7334258772726 420.40548058729786 C235.86259102432646 302.5556990644788, 338.69388815541606 183.5879580418614, 401.02060496704013 111.34752372864297 M137.8061152170648 419.9728729339151 C243.21588111576236 299.5950889425726, 349.23078822694254 179.124322079861, 402.34722605987855 117.77489163545447 M138.0480619030694 421.0521002623359 C226.08452530931172 318.89694707134436, 314.9372097616931 216.73831900864735, 401.69636874110137 117.7688473412952 M142.44850018114172 421.001272752818 C238.30182606382766 307.0003622077614, 335.70701714332176 194.98757321756247, 401.28917508734384 124.52042110336671 M143.78940173917047 420.6008923579678 C233.91124181084538 317.71082057318813, 323.794681957424 213.821205536848, 401.8669808900466 124.10619216789672 M149.09281579138678 421.42608932915243 C222.61693283044767 334.10848946514795, 298.75660928365886 247.51379753865757, 400.82664321036367 128.27630129562561 M147.96856495375158 420.9609154394375 C247.08692571683505 306.37049239363654, 346.8713460155598 192.07287510518006, 402.0442171575056 128.68920298499168 M153.62214966212704 419.01389069099156 C239.59272429408992 322.3649717436005, 324.5326269227257 224.6076470208589, 400.6225167004722 135.73271741316503 M154.50794244576213 420.4329783409386 C228.57659674198896 336.15868051289675, 303.74057880819356 250.17527385691204, 401.7907893241775 135.94424829403633 M158.11393120664272 420.94377724498025 C249.68611337315278 313.4281409977378, 341.96125233462845 207.61576122491755, 400.79547060303327 142.61320782398045 M159.46692896825255 420.83873431214727 C242.883031750884 324.37546336906445, 325.8656078424879 229.36168200930226, 401.15207808979244 142.12779957519916 M165.62298580399337 420.2897648179668 C232.94445778147696 344.86347061745425, 299.10547452029533 267.56444934093366, 402.162598190839 148.3039575008763 M164.90251916137862 419.5976111605511 C240.01254372981361 334.0770228808532, 315.01378586438096 248.64979660469052, 402.06184303298267 148.21957261968387 M169.4368723530645 419.6470046710498 C222.82927949760904 360.92291698667515, 273.12889540977255 303.0103662022769, 400.3737338598451 152.87007678600577 M169.87826489023985 420.708944262724 C249.74834921452748 329.93215460308517, 329.9339748124362 238.61483612268302, 401.7976018750001 154.27769873384952 M173.91109935682022 420.77209580004705 C223.30249867440958 365.7741734080986, 271.66513370596857 310.05312388940433, 400.5812324871704 160.283875108182 M174.08576885884898 421.22742023085766 C258.2061816379899 325.27889674274786, 340.89369462750415 230.29465268705505, 402.28226469538055 160.3285376188115 M179.89994662401486 419.7182062125078 C261.24085006256774 328.49202044710046, 341.76957763452236 236.9073493025785, 400.6837464223867 165.8316794251872 M180.82917835759238 421.03285613411 C251.00189813294065 335.8907292450872, 323.3718011960604 254.25979066761596, 401.42875144505064 166.61934283359716 M186.41265451110525 421.657866389443 C243.4980719433573 355.0901101972648, 299.12148694168303 291.8252005472287, 400.808692350274 172.34176515490861 M184.8881903042697 420.52507583103716 C239.6714970244342 358.9542159896069, 293.78162489644063 296.3374165330644, 401.40675935607436 172.0749957439636 M192.27016873380035 420.36017616520394 C233.19249954992682 371.21318922896785, 275.88279079177045 322.9966839482721, 402.6107052815272 178.93404518581175 M191.51253025026614 420.6962462850209 C249.96588559931396 353.06628738239317, 308.9378959726822 286.25793184233265, 401.7463245791186 178.7089416214391 M194.73384888395452 419.90232429542056 C272.99386581184797 332.85637624595734, 348.7868286637484 245.09922849060558, 401.642892180071 183.74000787958124 M195.3050012454469 420.1989706941197 C255.9128856869235 353.66636297044846, 315.9054947424079 285.3347092224759, 401.0792434827009 184.14692753136728 M200.53343063422764 421.5106481874878 C259.95293565660313 355.2288011298684, 318.46220324361974 287.8544633698495, 401.5651258656356 189.3281592746666 M201.79195972946712 420.32060449292266 C273.0090647082497 337.80459724380165, 343.271255310336 256.9168922133805, 402.2721103376289 190.85848686312244 M207.8295470749114 420.13565807359805 C284.5789410465322 332.6171302314033, 359.7990729915488 244.9692071522504, 400.4238237505829 195.56183785931515 M207.16291456547313 420.4175133787071 C283.2276605778522 332.2931907815108, 359.73809728601105 245.33632872670387, 401.11994205070096 196.6335700562671 M213.75719161424956 419.4930729241346 C260.12916947597853 365.2747180243059, 310.50655501242164 309.3978725846482, 402.33583688570855 202.17825859035352 M211.59668332987346 420.3603154056235 C282.6593465259502 338.20499828983947, 353.39997818426605 258.3367874336954, 401.4962083805327 202.78714764739357 M216.34736061703254 420.21915910107526 C288.6465138671667 336.88784680323243, 359.1092703409139 255.93247857680277, 400.4330998714292 209.11146341964746 M217.67243958492946 421.47301365289036 C254.62905360882934 377.5857698311294, 292.5851626972117 334.83453414429766, 401.39233737987433 209.24273757503514 M223.11055556441647 420.3983495266127 C271.97571688158393 361.81847756199653, 319.8556173693855 307.6519328417796, 400.25491441599047 215.0054726260302 M223.27927521858618 420.27651115208977 C277.81921763746675 354.48715940013807, 335.11554768810976 289.26189228344106, 401.78192974541815 215.8067818283487 M228.7776989808746 421.0235294174517 C285.00952168072297 353.5089563047115, 344.5317918836812 289.16988598181115, 403.2895500897287 222.08285594861542 M227.28201795564695 421.42642465351025 C292.94479528113084 345.49300958684785, 357.6134153290357 272.220709500864, 401.8213643212707 221.35079471279357 M232.4050299250707 420.89936596472165 C297.29842484682456 346.1928259835033, 363.89445259663677 271.1625250905146, 402.5728558952853 225.98791185646854 M233.15586408090036 420.7719596181064 C273.85486411316765 376.5272544425124, 313.09382817185576 331.43961333454547, 401.7546414330019 227.55887417467937 M237.04669269206735 422.08449490080807 C271.6645866312855 379.7935767238995, 307.70738846499506 342.81760521013115, 399.7446159923969 233.58688341860858 M237.83635988472545 421.45576289883365 C280.44120031870983 371.68531140836217, 324.8092288997207 320.8580876291155, 400.9330420482929 233.52779637529696 M245.41521333297982 421.5333192462251 C306.7435038643505 348.7968924341621, 366.95820178521757 275.831317224075, 401.8594670806728 239.0494586941197 M244.61959599960412 419.84499186736963 C297.95660251562873 360.63523987374225, 349.94873784582745 300.36598744414863, 401.1013742534156 238.7746221602381 M249.12379110301686 419.6590575412951 C297.14202828312455 364.6809187119407, 344.5113107789867 311.5947175406059, 402.7372220803609 246.3655693239103 M248.5720238923571 420.4851757839188 C290.13176174005156 371.8266009513147, 331.0901951690528 325.346707786964, 400.8969164186086 245.44860447847688 M253.74080824991154 418.80041655388675 C306.1543703800064 358.86822633296725, 360.2540984017538 297.57459008690716, 401.9570247542333 250.22885452643493 M254.73614974498565 420.08107087607584 C295.62631070056966 371.668709427961, 339.62118290637085 323.6422276145854, 402.57714970429123 250.41671237137746 M258.57186442574766 421.9517083774472 C307.5344090384485 363.2733500295512, 358.04413514143226 308.327213050827, 403.20621351941287 256.5851423957267 M260.01570675087305 420.92318290248255 C299.2582139395538 377.03860820846813, 338.93379888562606 332.4489743715547, 401.2542196572646 258.0272818363512 M264.98889145882606 420.4863601658294 C310.93395872662575 371.4048872379216, 352.3172492938007 321.39570600603037, 399.7196323378089 263.08797227602065 M264.71655416288155 419.6508548281161 C312.2125581209541 366.62925608803783, 359.898009884884 313.1699053640901, 402.07876731825365 263.56535892567194 M269.1724174845274 420.4068148295279 C315.02791951228613 368.1656141763363, 359.91715687090334 319.4190787634284, 399.99880425413295 269.1655022590088 M269.70628994931127 421.1090464119711 C321.49645204361775 363.6237172440504, 370.1567346039072 306.0195294637595, 402.3220605806428 269.31149921652246 M274.1296115288201 420.0088873413472 C316.52462655926007 370.93024556832773, 358.58171089722003 324.9189358105963, 403.22321658711365 277.81994186127747 M276.0370047505635 419.78709411724344 C325.7544150692692 364.4482881650338, 374.86387480099336 306.9247282057671, 402.2231853887387 275.31396510517413 M279.7939291184034 422.4226085581746 C317.27475503356345 378.118582792844, 353.7295684877954 337.56059754227306, 402.3522975637293 283.48780437977655 M282.00512795962504 421.201873167504 C308.6230646015191 390.66738643875834, 336.0291553059942 359.9157049531222, 401.77335580593854 281.3902140627582 M286.80678200956027 418.60377404914937 C318.2421177031379 381.9883160562102, 347.57624596711605 348.21099279291684, 400.08108924096865 289.1709946883373 M285.6883912752528 420.76463829336456 C322.84018088905384 377.97259636368864, 359.3310726359819 335.38893792759694, 402.2686320119579 288.0480931099035 M289.71573232009086 420.68356811143565 C333.3048391918361 370.88306391439187, 374.1992858373023 326.72520663611346, 401.95853394860353 294.48461521845564 M292.5943482703251 420.35410186816114 C318.1878193159944 390.149087057496, 343.2671573612311 360.6805813663934, 402.2150181041467 295.23128744177774 M297.241597379767 421.85521817652966 C319.9996290286804 391.20437134879705, 344.7021709428327 362.7793366498226, 400.0511521414057 301.0574402766276 M295.76806554219183 420.99988658706184 C321.0829104327335 392.76368223823533, 345.3403310133473 364.76948036810364, 402.0316041173548 299.45477131604883 M304.12277264336035 421.8256235509273 C337.3481869858232 383.795519643852, 366.7756348955319 346.3047353380423, 402.78736531217527 307.98354478501744 M302.4176956257029 420.0529042077344 C339.1058701324299 378.6315814998469, 375.1595278615839 337.4760244823009, 401.6761389369605 305.975186793553 M308.9595546036713 422.26698415679266 C333.47826023295545 389.4370826997901, 361.71227529856554 359.3489873105625, 401.36240919467474 313.7268372198983 M307.5400499062367 421.35573429101487 C331.9050803677408 392.92565256081656, 353.80615756947975 367.9947798237003, 401.8311935018044 312.4141266767352 M312.61905399446186 420.72133347039926 C333.3889690948515 398.287947054532, 350.9926354840797 377.5211805443656, 400.3023615317041 319.34623625343465 M313.1067618226334 420.86590713934856 C346.46622950576625 383.5876910928605, 379.1205768274051 344.7907275321305, 402.24943857226464 318.70206115143174 M316.7992235585325 421.82571516391124 C347.0775791233105 387.9680341942099, 375.8184385300212 354.4714155956431, 399.8690552780352 326.4002036921223 M318.40956463527164 420.59983043857153 C342.2622914248735 391.5544419263033, 368.6433288444432 361.7784100595669, 400.93980793319116 324.70162072531036 M323.08983027964547 418.4620064636017 C343.99026857866795 394.15904503328426, 366.0719947256248 368.7329520316109, 401.90440151343995 332.39837321745733 M323.90251365799173 419.50136261612874 C349.0671151742146 388.53048713710245, 377.3258791713159 358.9060359420762, 401.793071306934 330.377974968539 M327.5364831506009 418.9820947916352 C353.7093607425952 392.6537283920011, 376.38589999403945 367.53544907576224, 401.6747123557183 336.253179126604 M329.54726402617194 421.3857394828566 C352.7993297509654 392.37261614053955, 377.3993595881007 363.6006953381978, 401.20740726637126 336.96921125445374 M335.7016054051611 420.35770112428474 C355.5256586769572 395.9413273078574, 377.5876597863493 369.1756408144857, 400.27561416363284 342.1843892708355 M334.6552929286528 419.80814759120005 C358.06947577323143 391.9271076903856, 384.4621791211446 363.2625240471897, 402.2745664378436 343.60961769799974 M337.2284622861262 419.4055566337146 C360.4173221497212 396.31043188689114, 382.2216960570865 370.5258638155645, 401.1960753049835 348.9442816973161 M338.23317737581243 420.00765087699517 C361.5520120356813 396.23534278334125, 382.2458743309624 371.82904005755984, 402.1251492692291 348.27360979751313 M344.9021332772587 421.93722604619813 C366.7707721563139 393.7806445733926, 387.4361686173944 370.6318566535508, 402.7233193595422 353.7221775875419 M344.8248164314915 419.77576401768727 C359.0180371181591 404.4596863694046, 373.72008492681493 388.46016998003535, 402.11476923287785 356.39901337316184 M349.21353987135865 421.98428428389957 C366.7869001244564 399.19589065109506, 389.1423198253344 377.18784510600835, 401.78714803208067 361.5960699980088 M348.8567089810682 421.4003790741124 C363.03562875586147 406.65668409545657, 375.1673917702758 392.3317396164118, 402.44962573863967 362.0574433076136 M357.4204178021883 418.948139823092 C368.40361839144174 406.5956935154592, 381.3218403181036 390.21698015000123, 399.8042640653991 368.98425260088095 M354.4801759633829 420.5343388487155 C365.58056344538466 409.3942765652436, 376.8368932224568 397.0603869156475, 401.81207704689285 368.12468228670457 M360.11134481254805 420.8252113359399 C374.941510250896 407.1068668888909, 384.73275380022704 392.6382119254374, 401.0831844432599 373.54985262243184 M359.91663813881416 420.139363527333 C371.00220541441007 407.5767870359008, 382.84438163638055 393.99530145494214, 402.546803471478 373.90396373788 M366.2667128862 421.3567510487164 C379.5990441812112 404.68335686546266, 394.31002878907157 388.8741696679101, 403.38826815846306 381.4260074848256 M365.2998383212022 419.3546240374098 C373.8018568572514 411.29619114380307, 380.2822626325799 403.59764620484714, 401.00608514777315 379.069898471976 M369.8227560159445 419.2540213835857 C380.79811398615766 410.146842572617, 391.26591402261465 396.51978566893416, 400.34462941578056 385.12039774455815 M371.02111914592535 421.4406686897821 C377.3406306657546 413.68700987049215, 383.95919025223435 403.99601775537826, 400.73596523562844 385.2917576216602 M376.73252243554373 419.3481183168212 C386.5103185009353 409.70045772395144, 393.23972555513967 402.6531538362566, 403.2824605449841 390.9668758331256 M377.5716453018241 420.6479965368951 C385.5118854440585 410.2597365144537, 395.1236596716739 400.0728121172954, 402.1018228323937 392.40385138210075 M383.529902387798 419.81514802058706 C385.48579623449314 414.8704651212185, 391.45886952759395 411.4640546042999, 401.08135491387384 396.5770947976922 M381.88768129927684 420.1609840145848 C388.92659471098546 412.7989852225718, 393.76873610268876 406.1724867774278, 400.9139458859472 397.57590775163374 M388.39060035646946 421.3260502211565 C391.60855945871594 413.49765263283, 396.77055091450086 410.6102711377745, 400.57522013121206 402.7450412395311 M387.1928137021238 420.9664583002964 C391.778583592404 415.48988230691305, 396.89874838142714 408.36023416928714, 402.6136943976294 403.9363554702041 M393.28641542844946 421.75474420726664 C395.65792297160516 416.86320980143125, 398.10869879160947 414.3906516529447, 402.635963436518 410.46526995091 M391.63936167141895 420.02283858718715 C395.9786251941951 416.2851582894996, 398.84230184466355 412.3949242660592, 401.58769409938174 409.6560970446491 M397.75379707744304 420.0935792321236 C399.17471073692604 419.16433869499076, 400.4442517864246 417.718386250679, 401.18530999595225 416.7531786869239 M398.1475432683803 420.1159619634402 C398.75644056056785 419.4899855781127, 399.187010501839 418.79676234444605, 401.3176358251918 416.2532819098286" stroke="#ced4da" stroke-width="0.5" fill="none"></path><path d="M0.6924039304507823 0.96730590572803 C100.55687789277879 -0.6652333773610424, 199.36735980747005 -0.7620863496725688, 399.5463219968444 -0.2555400252721229 M0.20297250051617152 -0.5091034905193325 C126.9921886480073 0.008402549269820592, 252.92939654981095 0.44761550577899434, 399.67510372933606 -0.2817748896598118 M399.9271325778575 -0.8833314167065754 C399.2972531088124 93.34153221918237, 399.83298790267787 185.7167806515822, 399.34972165693506 419.50592075477977 M399.44751053039386 -0.0764087976200053 C397.742447965744 115.31102180902487, 397.5555218146577 231.32951731944826, 399.30616013824454 420.85559555880826 M398.92831534312523 419.5446833441058 C257.1449747296235 422.7887941305566, 111.81976659059376 421.40348528661315, 0.1778791802288188 421.00681146659235 M399.91589425068383 420.18011054004387 C308.2917849622699 418.0271480235754, 217.09892493871158 418.9719832597719, 0.023234261312626115 420.1909132320758 M0.8132230231609046 420.78380831876615 C-2.1663745456468453 252.9136294061484, -1.2976401901638863 87.83109929965934, -0.8896888234009122 -1.0638064791745674 M0.19214477490573878 420.25589060616534 C1.915785048779461 298.7654554324306, 1.7245479376932948 177.6229984504801, 0.4509008491650074 -0.09483148718295721" stroke="#000000" stroke-width="1" fill="none"></path></g><g transform="translate(440.2109375 52.13281250000006) rotate(0 176.171875 178.822265625)"><path d="M1.4095429051667452 0.045575303956866264 L352.3092473018915 -1.479740398004651 L351.7949979174883 356.8327563237399 L-1.187465501949191 357.4972866605967" stroke="none" stroke-width="0" fill="#fff"></path><path d="M0.25598443215251904 -0.9708600657496078 C95.15940200463383 2.287821172509826, 191.6929110911171 2.0477113012061525, 353.25505303354504 -1.1533820014341583 M0.4918928608719388 0.6248641493641072 C75.35393610637723 -0.7054990069079865, 150.42226148737097 -1.600254350508589, 352.48751886456927 0.02528799584920989 M351.81352779627855 1.179448670731926 C349.61157695692356 86.97457421690426, 349.81416506600704 176.4850375843023, 353.2915860112736 358.808187997598 M352.8532297722412 0.5344793606842474 C354.19335920243884 88.96501925919932, 354.38586122507024 178.57455552340042, 352.51114591169204 358.1632159719231 M351.0998389197476 356.4616176324651 C241.3558807178955 355.1113363463707, 130.89401960173882 355.3222525812694, -0.37706409137811675 356.83218558692084 M352.9758455182366 357.9989137954026 C253.60200225698586 356.61224479423487, 153.77691909629235 356.8407147749726, 0.07294465519441656 357.79744776468294 M0.04838057878010159 358.27833231928423 C1.2437269403498319 267.031032435931, -0.1687744378292616 178.00786028112336, 0.935058890147838 1.2205511513007123 M-0.40928866946634884 358.2693946992476 C0.11770595893952468 234.30576365646755, 0.24203335605526538 109.20450675908002, 0.5612159844256481 0.021764094838909842" stroke="#000000" stroke-width="1" fill="none"></path></g><g transform="translate(10 136.86328125000006) rotate(0 60.490234375 29.16796875)"><path d="M0 0 C0 0, 0 0, 0 0 M0 0 C0 0, 0 0, 0 0 M-0.03487461355047927 6.1476675920683075 C1.6049863654017797 5.1984641711882285, 3.475614038362546 2.201296067423513, 5.4286144364201485 -0.013185123741883631 M-0.49009471271651484 6.618260748361342 C1.5444781304821342 4.905983209052452, 2.6804957791194255 3.0376895018196883, 4.873043373184747 0.4160214401629978 M-0.9234419471491471 11.113947757005274 C2.2772651375369453 10.052352760511642, 5.842519595295823 5.289219570682025, 10.902936482381952 -0.6544480432674527 M-0.5823431297112598 12.294964301257908 C3.938633465711884 7.719720257347258, 6.912690758455362 4.098294724461169, 10.34956734995259 -0.33583954096885904 M0.9034478617319603 18.492050544266277 C1.5406300521180567 13.841493550884337, 6.434481584464882 9.656351984657485, 17.04055928206392 -0.12493015574990007 M-0.5495538656180958 18.645669629704827 C3.821747010699588 13.573336317861322, 9.982633278630516 8.763253175085952, 16.299744338266034 -0.003082223522944183 M-1.3083206804283645 24.012792229368447 C6.84562745632961 16.41381103832404, 11.923699080805136 12.90492774063665, 20.910863969752455 -1.8880942841828343 M0.7060001503861759 23.29361647804743 C3.8986818245671975 19.10274982915604, 8.542211937794658 13.932184130291954, 20.62117724055227 0.6438004937186363 M1.7426120481034175 30.766669474307648 C7.67453148760997 24.848644697505975, 10.883777765103542 18.160309665372694, 27.333115533601852 -1.2435012707474886 M0.3253172580664412 30.529859599422863 C6.8065545985028315 23.491492058956293, 10.890545205515028 16.878455641226886, 26.67395746303013 0.5372741617274226 M0.8536014630365649 36.51685599964236 C11.463415434293474 23.9131486669982, 20.599252114475707 11.261408063788132, 31.63377529331187 -1.3369838501081581 M-0.4572659256961664 37.637134481967735 C13.089298971209141 22.092319678231807, 25.764312107998634 8.092228770213431, 32.61508221407125 -0.6706118740827556 M-0.7268251449196583 41.54410365093105 C10.99090503920747 29.515994644095862, 24.479988813228996 15.628274039592643, 37.653740327620255 0.534541688961955 M-0.554873721520508 41.811262551318634 C9.419452860553465 30.494472739741976, 20.362892545713244 20.080154008852602, 36.98610164858525 0.9478659900930246 M-2.079645697027523 50.72337113940053 C17.502434517009146 29.2761407619334, 33.562637441502275 11.885903322525934, 44.184315706226755 0.6978988617985493 M-0.0900184744969792 48.0190299112805 C14.519472300580661 31.619169363991006, 26.90763197266231 16.65967233029305, 41.867841099943746 0.15217897466858687 M1.1645698764127346 54.05335698038648 C17.001785044297506 34.872658265097286, 30.831062540120122 19.293350533929733, 46.906242257869124 -1.0461723703715755 M0.10406264874605853 54.30897028226714 C18.958847421548562 32.772799409951574, 38.499760167494195 11.911788832746097, 46.538178848056376 0.16497255844885572 M0.07680546211986794 58.99725697467018 C13.174873927992266 47.76977322033763, 21.72065612936832 36.83879773721569, 52.82566880224711 -1.648192242212712 M1.4533034860992338 59.93337248263795 C20.30482362883746 37.87325477784567, 41.38072334592356 13.371731499522284, 52.62676835129476 -0.7718601631523363 M6.209511966765163 59.012297146919 C18.26069826694213 49.38557843169269, 27.053655171873288 37.13863365240697, 58.21317991809846 -0.9597645424980676 M6.1414720829057075 60.65906336713844 C26.923993909715932 35.756382075230704, 46.585571756509005 12.054788660776516, 57.77281601456852 0.2342481636699283 M12.94322188211483 60.68287744902806 C30.07210902908627 40.342137164339036, 44.51513612889904 22.667570194681034, 63.03976817512293 -1.958753255891942 M12.175535257103565 59.681801530241835 C27.430924418880345 42.05535737904395, 42.385358088803315 25.74874181922349, 64.77980342124928 -0.7173874906705251 M17.202816661906613 59.721847217224145 C30.773877451346774 43.26832411670484, 44.01347022681526 29.395205765867154, 68.91586190205827 -0.8991059211675392 M17.820675976102425 60.40880276325306 C31.132310040999528 43.82429439175575, 43.93588161678346 30.19180616417389, 69.27326510124668 -0.6892778973687754 M23.30108575084026 60.028295591842976 C37.68146982285098 42.791678908966134, 50.93993078932702 27.932278434263097, 73.52729741860422 0.4639697270108627 M23.162602385773912 59.297780474085954 C38.05254842917634 41.14621365299284, 52.907658310594016 23.797110666078225, 74.85551076293233 0.650313788989024 M26.87775435265353 61.537728159111325 C49.099008427133114 33.5852756026153, 69.24069615815529 11.87193202337533, 80.57434680349854 0.7241823998700312 M26.765325578527655 60.48837232904542 C49.49425242384153 36.5471253994899, 68.48949279634958 12.602309944226114, 78.76340306121585 0.6587986722077659 M31.335455662046165 57.996890309364915 C48.74205257194092 41.192790213788385, 64.98800434644741 25.098151775618682, 86.20769012644098 -1.4010193872543084 M33.82588182523528 59.3582136110453 C49.62294903823469 40.55435439576384, 65.50190523739937 21.17446652396788, 85.02307982946888 0.27533547270130043 M39.77875863275591 60.81394387883053 C50.82935913764736 43.938534254180425, 65.99754948811787 28.670492154725217, 88.96744321616927 -1.2202706731353743 M38.8321103433064 59.15436386139051 C49.87590969766992 46.29837332483072, 61.980486430601445 32.898590500139576, 90.10773184760103 -0.3477428307254655 M43.450140209482534 60.833290507843884 C61.85029183810519 38.34044791703687, 77.28133409010658 20.418083652187207, 96.21912989238322 -0.2934666924374483 M43.717375528612656 58.54938023799488 C60.21891088320692 41.958965720594826, 74.59565368772746 23.69477126351915, 96.09232507398397 -1.2888556426586888 M49.66901309596376 60.18574828263177 C62.67327165829671 44.78848351888798, 73.85309208070768 29.214767328084047, 102.0927097338205 -0.5815862339337414 M48.51834472356366 60.27274415716334 C68.14907767041052 37.8793963987496, 87.00135594098066 14.441111042034514, 100.31137841352725 0.7742518907065445 M54.26769798689937 58.06337509352989 C65.58613533685234 48.37944141635685, 78.37995154789192 34.599653408183414, 105.9185503101809 -0.6718682822885498 M53.52971044903105 58.666934651809704 C68.1465452359898 42.570941779722496, 80.91266111956872 28.55157854769628, 106.51368594960255 -0.8794177602159365 M57.530451336027085 58.56964527676504 C77.71091480384038 38.51732271454334, 98.56272147167547 14.82304782645739, 110.16645495020218 -1.9276353762750844 M59.961968172424434 60.318855013238895 C72.2158216612378 42.946548520471715, 87.45591115210199 27.820785248622443, 110.52009471211947 0.6173121333787819 M64.62943758804668 60.49427297267293 C82.00318621346064 38.73949047604877, 102.32055426991353 19.27122365427794, 118.22557594459357 0.04123932966515298 M66.09613853961547 59.61590614936476 C80.09521787470082 41.13563676481108, 96.6070688267844 22.591659747292532, 116.72216788045915 1.030575497127323 M69.56375694669589 61.16338876748034 C86.92542050026903 38.398313144252654, 106.923349719452 20.048984823855513, 122.96767843007383 2.209670386313384 M69.94154514301374 59.377413226492195 C90.17039694673237 35.80686829910929, 109.6722751380343 13.817106013204842, 120.36419866751221 1.6380517743890337 M75.59541760667445 58.214363051522994 C84.12588044071718 48.31832232639029, 94.24910522694395 36.737967939254474, 119.99828621542814 4.478117531010284 M75.39053675349088 58.410699027535046 C92.09853154425079 39.382274066508344, 109.58238737502334 20.908840710716298, 121.5131061457357 6.350973407582714 M79.18836352172013 61.44598266102768 C93.30677087765743 47.471925214581574, 104.83495897385811 31.9975925781508, 119.96536236131833 14.390894083200465 M80.87626508845653 60.14251059379823 C95.30765230784469 43.30000947832516, 110.11806860979245 25.804595055106866, 121.08586582696334 12.213684233731101 M86.4444466365327 58.59327423633009 C96.5369139046992 51.340151636368006, 101.88555598491087 42.095033110850466, 122.59380568744413 17.778729808219616 M85.52740704378233 58.175092583195564 C94.39459313783617 48.485472570667135, 102.17672896443845 40.00319851368591, 121.60275616956673 18.82745234824801 M93.04245465484986 59.17768086365704 C100.254928481204 50.92206619569271, 105.68299225086906 39.92828144125795, 119.87295077254329 26.57127091729457 M91.82594246187786 58.91761391203199 C100.04734109309013 49.80762491980653, 110.08947080989867 38.153707094480964, 122.09360857845549 23.944220104938395 M96.67408327137142 60.28188543334423 C105.44552848380592 51.82474557047394, 108.43034356558854 42.461088933979035, 121.83648115732508 31.326613005983774 M97.76187636361479 59.14224111322133 C106.56916521851333 47.806867356106565, 116.23586707815286 38.693735045671076, 120.59647060801076 30.777387054438833 M100.98296393983506 58.39998728161843 C106.17025272063427 51.33269458308165, 113.57156157041962 44.17791948564472, 121.78175225749874 35.3079297948457 M101.4910167164027 58.615564978068484 C107.32050932265949 52.868830715823364, 111.38817798759706 47.526767278713336, 121.09567887511366 35.85968868488592 M108.0006361049406 59.212325548815386 C111.3524566201434 53.574177419718815, 117.93251790432296 45.344373313725825, 119.48911427680201 42.560101870107175 M107.48969666611326 59.65467391448732 C113.53913281785823 54.34374471877697, 118.26501532471183 46.944390387922084, 121.45993197217382 43.901075162584604 M113.64281241580254 60.84438160532205 C116.19190559668131 56.75375351477282, 118.24616087010449 55.49069707826313, 121.23963564521891 48.577117029045816 M113.03169655011376 59.67042894265665 C115.66634303833312 56.489856743728105, 118.93952911667895 52.10262834097686, 121.19702542730865 48.33928828288719 M117.62863204794766 59.68319932132426 C118.96437608101179 58.19436320213441, 120.20643674874447 56.2403653684105, 121.84267244229818 55.3464871297425 M117.89505639997141 59.85309585978675 C119.15856303893804 58.3477922453126, 120.2460321230687 56.84887331875524, 121.32252976496498 55.13930957855865" stroke="#ced4da" stroke-width="0.5" fill="none"></path><path d="M-0.7461598087102175 -1.8801262509077787 C36.921363304777685 -0.3408039947786531, 71.14697472087789 0.03264574801538378, 121.92873613350089 1.8148689735680819 M-0.12249997910112143 0.8035088097676635 C45.78474258027744 -1.495103423703003, 91.23796845417016 -0.7479269851329804, 121.95033084694292 0.21328153368085623 M119.62947742454703 -1.7022709380835295 C122.42086773771301 14.942993988273518, 121.15420949119583 25.575367145221385, 119.82809887640174 60.28976904042064 M121.47115694824602 0.010017535649240017 C121.06980887350993 21.63210471470156, 121.15266716775851 42.875795859513154, 121.14767982903864 57.781933776102946 M122.8371440004557 57.90695224888621 C88.93510923850005 58.46711686348319, 56.628638365094204 58.395631761306525, 1.9874084424227476 56.528861688449965 M120.80231788102533 58.815341225825236 C92.18907368225733 57.8245250713434, 63.89311406753475 58.5107521843519, -0.04109389241784811 58.69265659805386 M1.1099331807345152 59.92050473578273 C0.774327146895448 46.226397562641786, 1.2333044289427197 32.757313659154164, -0.3387575317174196 -0.16481353156268597 M0.85648696962744 57.818448386155055 C0.7578794410368572 39.99837909622801, 0.7872156253000866 21.750292190028986, -0.4966971045359969 -0.06593305710703135" stroke="#000000" stroke-width="1" fill="none"></path></g><g transform="translate(35.37109375 152.47265625000006) rotate(0 39.5 12.5)"><text x="0" y="18" font-family="Virgil, Segoe UI Emoji" font-size="20px" fill="#000000" text-anchor="start" style="white-space: pre;" direction="ltr">Browser</text></g><g><g transform="translate(130.44780061765823 170.55809665679237) rotate(0 139.35255986291992 0.33235126259504)"><path d="M1.1079384606331588 -0.30256677679717536 C47.26701803228532 -0.0008274697675384468, 231.7979005064207 0.5140258598257712, 277.59718126520664 0.967269301987244" stroke="#000000" stroke-width="1.5" fill="none" stroke-dasharray="12 8"></path></g><g transform="translate(130.44780061765823 170.55809665679237) rotate(0 139.35255986291992 0.33235126259504)"><path d="M248.84249209252724 13.061057607807669 C258.3850435703005 6.408363160227955, 270.78926186019294 3.5521308683724584, 277.86110674120636 0.9139212841307653" stroke="#000000" stroke-width="1.5" fill="none"></path></g><g transform="translate(130.44780061765823 170.55809665679237) rotate(0 139.35255986291992 0.33235126259504)"><path d="M248.96272499220507 -7.459798768953863 C258.3185795923212 -6.856056789985663, 270.68028850016435 -2.4569627440748, 277.86110674120636 0.9139212841307653" stroke="#000000" stroke-width="1.5" fill="none"></path></g></g><g transform="translate(167.546875 172.39453125000006) rotate(0 94 9.5)"><text x="0" y="15" font-family="Cascadia, Segoe UI Emoji" font-size="16px" fill="#000000" text-anchor="start" style="white-space: pre;" direction="ltr">GET application.json</text></g><g transform="translate(752.82421875 14.480468750000057) rotate(0 31 12.5)"><text x="0" y="18" font-family="Virgil, Segoe UI Emoji" font-size="20px" fill="#000000" text-anchor="start" style="white-space: pre;" direction="ltr">Server</text></g><g><g transform="translate(461.11328125 62.58593750000004) rotate(0 6.55155484268704 14.695988287832591)"><path d="M-0.12155579142272477 0.38039223365485664 C-0.4514077883213759 4.940222855533163, -4.617833767458797 22.604153704767427, -1.7286767464131116 27.31821139268577 C1.1604802746325735 32.03226908060412, 14.126790120080114 28.20893326215446, 17.213386334851386 28.66473836116493 M-1.6445113112591208 -0.46550578901544215 C-2.1968654890917243 3.751548970049868, -5.997612239327282 20.497538141117744, -2.9321290644072 25.551369500067086 C0.13335411051288215 30.605200859016428, 13.40691718617454 29.43254070630297, 16.74838773826137 29.857482364680617" stroke="#000000" stroke-width="1" fill="none"></path></g></g><g><g transform="translate(458.2734375 90.64453125000006) rotate(0 6.786993980128159 17.01860670863927)"><path d="M-0.4782216031104326 -1.0350037436932324 C-0.9189071097721656 4.126701062793533, -5.2171236553539835 26.031063657874864, -2.2641493160277606 31.39914727397263 C0.6888250232984623 36.7672308900704, 13.819402194147306 31.17386055973669, 17.239624432846902 31.173497952893378 M1.4715733259171246 1.036015345528722 C0.8513699206958213 6.349238782996933, -5.600503927742442 27.61193519460658, -3.141693483069539 32.844660000279546 C-0.6828830383966364 38.07738480595251, 12.569351771002015 32.47988491324087, 16.22443599395454 32.432364179566505" stroke="#000000" stroke-width="1" fill="none"></path></g></g><g transform="translate(486.640625 111.64062500000006) rotate(0 51.5 9.5)"><text x="0" y="15" font-family="Cascadia, Segoe UI Emoji" font-size="16px" fill="#000000" text-anchor="start" style="white-space: pre;" direction="ltr">MaconomyDir</text></g><g transform="translate(486.44921875 82.17578125000006) rotate(0 75 9.5)"><text x="0" y="15" font-family="Cascadia, Segoe UI Emoji" font-size="16px" fill="#000000" text-anchor="start" style="white-space: pre;" direction="ltr">CustomizationDir</text></g><g><g transform="translate(483.015625 133.98437500000006) rotate(0 7.803017630865952 8.668781372506473)"><path d="M-0.8168449860066176 -0.32431952543556686 C-0.8581414561718703 2.2378837109853826, -4.022399034226934 13.234942789996666, -0.8481248002499342 16.072454635426404 C2.326149433727066 18.90996648085614, 15.351410720621546 16.76082741431892, 18.228800417855382 16.700751547142865 M0.9551726670004426 -1.5401912216283382 C0.8059516049362717 1.0840364621145027, -4.637142630523692 13.86680594921733, -1.8107717215083539 17.122918570246547 C1.015599187506984 20.379031191275764, 14.917969461375229 18.13780233522877, 17.91339812109247 17.99648450454697" stroke="#000000" stroke-width="1" fill="none"></path></g></g><g transform="translate(506.02734375 139.05468750000006) rotate(0 14 9.5)"><text x="0" y="15" font-family="Cascadia, Segoe UI Emoji" font-size="16px" fill="#000000" text-anchor="start" style="white-space: pre;" direction="ltr">Web</text></g><g transform="translate(523.73828125 164.84765625000006) rotate(0 33 9.5)"><text x="0" y="15" font-family="Cascadia, Segoe UI Emoji" font-size="16px" fill="#000000" text-anchor="start" style="white-space: pre;" direction="ltr">iaccess</text></g><g><g transform="translate(526.09375 183.28125000000006) rotate(0 6.9781197448912735 7.180269221746556)"><path d="M0.29364472813904285 0.12467199973762044 C0.9268979965398709 2.609857642774781, 1.4745701212435964 11.976405882959565, 3.9202243346720937 14.248858956620097 C6.365878548100591 16.52131203028063, 13.16702217447261 14.133633967364828, 14.967570008710027 13.759390441700816 M-1.011330518927425 -0.8554791457392276 C-0.03797651092832277 1.332507645593335, 3.524397440943867 10.300955134735753, 6.024281021747738 12.429200785066932 C8.52416460255161 14.557446435398111, 12.5539546628731 11.871781547373782, 13.987970965895801 11.913994756247849" stroke="#000000" stroke-width="1" fill="none"></path></g></g><g transform="translate(547.28515625 183.97265625000006) rotate(0 14 9.5)"><text x="0" y="15" font-family="Cascadia, Segoe UI Emoji" font-size="16px" fill="#000000" text-anchor="start" style="white-space: pre;" direction="ltr">3.2</text></g><g><g transform="translate(552.421875 203.32031250000006) rotate(0 7.163616395476424 8.565493708765132)"><path d="M-1.154997156187892 -0.8677263457328082 C-1.2852925480653843 1.7923706691712142, -3.0413892171035215 12.366205362603068, -0.16218486838042723 15.26796840839088 C2.7170194803426666 18.16973145417869, 13.230308212712407 16.09992334060371, 16.12022893615067 16.54285192899406 M0.43949060747399926 1.2911133774183692 C0.20034697104866303 4.1575978233478965, -2.926796018785487 13.764481372442095, -0.48990863790735606 16.453889574017374 C1.9469787429707748 19.143297775592654, 12.03157915243879 17.559454872813077, 15.060814892742783 17.427562586870046" stroke="#000000" stroke-width="1" fill="none"></path></g></g><g><g transform="translate(504.404296875 156.97656250000006) rotate(0 7.8407016072529245 9.301508109992156)"><path d="M0.0475019495934248 0.9666088242083786 C-0.04828100986778738 3.4114872553696234, -3.0343586801240843 13.3308756886671, -0.04575913734734072 15.86536860652268 C2.9428404054294024 18.39986152437826, 14.928362441187103 16.19733083434403, 17.979099206253885 16.173566331341863 M-1.3866982562094927 0.428474511578679 C-1.6190112144500017 3.48378186730047, -3.740381090516845 14.013103619689742, -0.5871640855818985 16.80711237616837 C2.566052919353048 19.601121132647, 14.2728208352377 17.278470050767062, 17.532603773400186 17.192527050450444" stroke="#000000" stroke-width="1" fill="none"></path></g></g><g transform="translate(573.828125 207.85546875000006) rotate(0 75 9.5)"><text x="0" y="15" font-family="Cascadia, Segoe UI Emoji" font-size="16px" fill="#000000" text-anchor="start" style="white-space: pre;" direction="ltr">application.json</text></g><g><g transform="translate(637.08984375 304.80859375000006) rotate(0 -0.1252328441292434 0.051650663092715376)"><path d="M-0.12094846554100513 0.8966198701411485 C-0.08628238427142301 0.8894611258059739, -0.9057558217396338 -0.607109735533595, -0.8661546666175126 -0.7933185439556837 M-1.6435851392894985 0.3217413566261529 C-1.1383988572905461 0.5151920197159051, 1.2168124872694412 0.21773444153368482, 1.393119451031089 0.3276144716888667" stroke="#000000" stroke-width="1" fill="none"></path></g></g><g transform="translate(574.13671875 231.45312500000006) rotate(0 70.5 9.5)"><text x="0" y="15" font-family="Cascadia, Segoe UI Emoji" font-size="16px" fill="#000000" text-anchor="start" style="white-space: pre;" direction="ltr">authentication/</text></g><g transform="translate(574.01953125 251.77734375000006) rotate(0 42 9.5)"><text x="0" y="15" font-family="Cascadia, Segoe UI Emoji" font-size="16px" fill="#000000" text-anchor="start" style="white-space: pre;" direction="ltr">platform/</text></g><g transform="translate(573.6015625 273.94531250000006) rotate(0 28 9.5)"><text x="0" y="15" font-family="Cascadia, Segoe UI Emoji" font-size="16px" fill="#000000" text-anchor="start" style="white-space: pre;" direction="ltr">shell/</text></g><g transform="translate(574.8515625 297.65625000000006) rotate(0 47 9.5)"><text x="0" y="15" font-family="Cascadia, Segoe UI Emoji" font-size="16px" fill="#000000" text-anchor="start" style="white-space: pre;" direction="ltr">workspace/</text></g><g><g transform="translate(552.2265625 217.88281250000006) rotate(0 4.274659059926876 12.412937647196657)"><path d="M0.3655033271759749 0.8111061114817859 C-0.2786196031918128 4.823446828002732, -6.835072970266143 19.330673116321368, -4.630486412718892 23.012246646359564 C-2.425899855171641 26.69382017639776, 10.601034406945109 23.021440980707606, 13.593022672459483 22.90054729171097 M-0.9017461553961039 0.19133287467062488 C-1.0878654598941406 3.9866979499409596, -4.597808273608486 18.0148454781125, -2.2844005242735146 21.46416779316962 C0.029007225061456587 24.91349010822674, 10.33511042676866 20.564993883346517, 12.978700340613722 20.887266765013337" stroke="#000000" stroke-width="1" fill="none"></path></g></g><g><g transform="translate(549.60546875 241.54687500000006) rotate(0 9.514746807888116 12.596907087184036)"><path d="M-0.30517792515456676 -0.04362513609230523 C-0.022387888158361124 3.903964249417186, -2.0308857819686335 19.913720675433677, 1.2991806883364916 23.48928794078529 C4.629247158641617 27.0648552061369, 16.927130108947555 21.772098382438223, 19.675220896676183 21.409778456017374 M1.7354649347998201 -1.112132277879864 C2.414987514906873 3.042045611348004, 0.5372100010452172 20.955262537008775, 3.4709394610859454 24.93700732966885 C6.404668921126674 28.91875212232893, 17.00433020044739 23.19771517098571, 19.33784169504419 22.7783364780806" stroke="#000000" stroke-width="1" fill="none"></path></g></g><g><g transform="translate(550.4453125 263.96875000000006) rotate(0 6.862610745000268 10.251332776620984)"><path d="M1.187029580399394 -0.8951245408505202 C0.95675641708076 2.15958182203273, -3.6531791328142083 15.669637217000126, -1.171555145457387 19.285011126473545 C1.3100688418994346 22.900385035946965, 13.347685146455962 20.799678534145155, 16.076773504540324 20.797118915989994 M0.35108138076961026 1.249331129863858 C0.03569234602153282 4.335807722086708, -4.044238530869285 17.361433700397612, -1.5718740916997196 20.289157062843444 C0.9004903474698462 23.216880425289276, 12.445735226397714 18.87508740233878, 15.185268015787006 18.815671304538846" stroke="#000000" stroke-width="1" fill="none"></path></g></g><g><g transform="translate(548.890625 282.99609375000006) rotate(0 8.126629868868008 14.939978149071777)"><path d="M-0.3039649944752455 0.9057516854256391 C-0.26888664774596693 5.369892279431224, -3.228245645885666 22.498568078006308, -0.20961156897246846 26.623547879979014 C2.809022507940729 30.74852768195172, 14.616412192458906 25.827473433936635, 17.80783946700394 25.655630497261882 M1.7373146540857851 0.3356673749350012 C1.7158444846607743 4.9463846852444115, -3.302670041428258 23.298570841557034, -0.7693632625602187 27.72954670568928 C1.7639435163078208 32.160522569821524, 13.529811549677204 27.107845718270788, 16.937155327294022 26.921522559728473" stroke="#000000" stroke-width="1" fill="none"></path></g></g><g><g transform="translate(665.4375 486.41796875000006) rotate(0 -0.3500267546530722 -0.1542646134831216)"><path d="M0.04483704753220086 -0.4708785731345415 C0.18135734982788565 -0.5751477081328631, 0.6544054765254258 0.02785110883414739, 0.6907087225466966 -0.05394144840538506 M-1.3907622318528592 -1.7636937693692745 C-1.3467424034141002 -1.7183364520408213, -0.0964122360013426 1.186049729194492, 0.06837127575650803 1.4551645424030721" stroke="#000000" stroke-width="1" fill="none"></path></g></g><g><g transform="translate(416.328125 170.80859375000006) rotate(0 64.91747313328091 24.38272597603499)"><path d="M-0.8793902020901441 -0.2444450933486223 C20.709232888494927 7.72646366370221, 109.08827174293496 40.89381883951525, 130.71433646865188 49.00989704541862" stroke="#000000" stroke-width="1.5" fill="none" stroke-dasharray="12 8"></path></g><g transform="translate(416.328125 170.80859375000006) rotate(0 64.91747313328091 24.38272597603499)"><path d="M100.3083879507077 50.69876223151294 C114.48149033873848 47.974325924434865, 125.50761510816935 50.28742085363754, 129.07658445909618 49.08264378234744" stroke="#000000" stroke-width="1.5" fill="none"></path></g><g transform="translate(416.328125 170.80859375000006) rotate(0 64.91747313328091 24.38272597603499)"><path d="M107.5169566418278 31.485315382723876 C119.00672907029198 36.36556878948145, 127.15988003427363 46.33617963817031, 129.07658445909618 49.08264378234744" stroke="#000000" stroke-width="1.5" fill="none"></path></g></g></svg>