<svg version="1.1" xmlns="http://www.w3.org/2000/svg" viewBox="0 0 902.6142578125 458.81249999999994" width="902.6142578125" height="458.81249999999994">
  <!-- svg-source:excalidraw -->
  
  <defs>
    <style>
      @font-face {
        font-family: "Virgil";
        src: url("https://excalidraw.com/Virgil.woff2");
      }
      @font-face {
        font-family: "Cascadia";
        src: url("https://excalidraw.com/Cascadia.woff2");
      }
    </style>
  </defs>
  <g transform="translate(586.36328125 38.69140625) rotate(0 123.423828125 64.974609375)"><path d="M0 0 C0 0, 0 0, 0 0 M0 0 C0 0, 0 0, 0 0 M-0.2614568240614483 6.397784017075889 C1.4082075583533882 4.477054860883683, 3.0778719407682247 2.5563257046914774, 4.98701540786261 0.36010737529371317 M-0.2614568240614483 6.397784017075889 C1.3313205641952932 4.565503229889342, 2.9240979524520347 2.7332224427027945, 4.98701540786261 0.36010737529371317 M0.13314538086761107 12.040858453929006 C2.4967581794182268 9.321832963573142, 4.860370977968842 6.602807473217277, 10.630089844715727 -0.03449482963534578 M0.13314538086761107 12.040858453929006 C3.2004259803388675 8.512355756215353, 6.267706579810124 4.983853058501701, 10.630089844715727 -0.03449482963534578 M-0.12831144319383903 18.438642471004897 C5.437667639697882 12.035715978793291, 11.003646722589602 5.632789486581688, 15.617105252578337 0.32561254565836695 M-0.12831144319383903 18.438642471004897 C3.194283669223869 14.616434023692626, 6.516878781641577 10.794225576380356, 15.617105252578337 0.32561254565836695 M0.26629076173522215 24.081716907858013 C6.769877691678892 16.600195970035337, 13.273464621622562 9.11867503221266, 21.260179689431453 -0.06898965927069156 M0.26629076173522215 24.081716907858013 C6.6559010897842565 16.731311052017332, 13.045511417833291 9.380905196176652, 21.260179689431453 -0.06898965927069156 M0.004833937673772937 30.4795009249339 C8.267796462068224 20.974049886819365, 16.530758986462676 11.46859884870483, 26.247195097294064 0.29111771602302206 M0.004833937673772937 30.4795009249339 C9.378206118888155 19.696669698540592, 18.751578300102537 8.913838472147283, 26.247195097294064 0.29111771602302206 M-0.25662288638767805 36.877284942009794 C10.010552699879238 25.066250516177487, 20.277728286146154 13.25521609034518, 31.89026953414718 -0.10348448890603734 M-0.25662288638767805 36.877284942009794 C10.331902656773504 24.696579678104488, 20.920428199934687 12.515874414199182, 31.89026953414718 -0.10348448890603734 M0.13797931854138312 42.520359378862906 C8.196984965952165 33.24953388846585, 16.255990613362947 23.978708398068783, 36.877284942009794 0.25662288638767805 M0.13797931854138312 42.520359378862906 C10.795665290769495 30.26009414232916, 21.453351262997607 17.999828905795408, 36.877284942009794 0.25662288638767805 M-0.12347750552006431 48.9181433959388 C15.734151588234885 30.676027873054373, 31.591780681989835 12.433912350169948, 42.520359378862906 -0.13797931854138312 M-0.12347750552006431 48.9181433959388 C10.627759244827127 36.55026029978592, 21.378995995174318 24.182377203633035, 42.520359378862906 -0.13797931854138312 M0.2711246994089933 54.56121783279191 C10.220551648704616 43.115711400368916, 20.169978598000238 31.670204967945924, 47.50737478672552 0.22212805675232872 M0.2711246994089933 54.56121783279191 C14.739187350323169 37.917615645485995, 29.207250001237345 21.27401345818008, 47.50737478672552 0.22212805675232872 M0.009667875347545873 60.9590018498678 C19.229615280008012 38.84898156709696, 38.44956268466848 16.738961284326123, 53.15044922357863 -0.1724741481767289 M0.009667875347545873 60.9590018498678 C13.605460455539392 45.31883159448529, 27.201253035731238 29.678661339102774, 53.15044922357863 -0.1724741481767289 M-0.25178894871390156 67.3567858669437 C14.867199109048578 49.96437965614201, 29.986187166811057 32.57197344534032, 58.13746463144125 0.1876332271169865 M-0.25178894871390156 67.3567858669437 C20.230344911926213 43.794786161191624, 40.71247877256633 20.232786455439552, 58.13746463144125 0.1876332271169865 M0.14281325621515606 72.99986030379681 C16.67949629599357 53.97658257460823, 33.21617933577198 34.95330484541965, 63.78053906829436 -0.20696897781207468 M0.14281325621515606 72.99986030379681 C20.651767879358434 49.40700684020351, 41.16072250250171 25.814153376610214, 63.78053906829436 -0.20696897781207468 M-0.11864356784629138 79.3976443208727 C17.865339717019904 58.70943811397191, 35.8493230018861 38.021231907071126, 68.76755447615697 0.1531383974816336 M-0.11864356784629138 79.3976443208727 C21.718667381414146 54.276691706182056, 43.555978330674584 29.155739091491412, 68.76755447615697 0.1531383974816336 M0.27595863708276624 85.04071875772581 C16.138965397249102 66.79241693729716, 32.00197215741544 48.544115116868504, 74.41062891301009 -0.2414638074474169 M0.27595863708276624 85.04071875772581 C24.856346574468056 56.76421703732139, 49.436734511853345 28.487715316916955, 74.41062891301009 -0.2414638074474169 M0.01450181302131881 91.4385027748017 C27.03622223857746 60.353569288483264, 54.0579426641336 29.268635802164823, 79.3976443208727 0.11864356784629138 M0.01450181302131881 91.4385027748017 C27.546194385734964 59.76691344183061, 55.07788695844861 28.095324108859508, 79.3976443208727 0.11864356784629138 M-0.24695501104012862 97.8362867918776 C20.919924065404384 73.48657782286841, 42.0868031418489 49.13686885385921, 85.04071875772581 -0.27595863708276624 M-0.24695501104012862 97.8362867918776 C30.652398181431792 62.29064707569425, 61.55175137390371 26.745007359510907, 85.04071875772581 -0.27595863708276624 M0.147647193888929 103.47936122873071 C31.322172754266262 67.61717191396878, 62.496698314643595 31.754982599206855, 90.02773416558841 0.08414873821094204 M0.147647193888929 103.47936122873071 C29.856430852200237 69.30331509124557, 59.565214510511545 35.12726895376042, 90.02773416558841 0.08414873821094204 M-0.11380963017251844 109.87714524580659 C34.673673325196326 69.85872388721091, 69.46115628056518 29.84030252861524, 95.67080860244155 -0.3104534667181156 M-0.11380963017251844 109.87714524580659 C37.385675490541246 66.73892227588314, 74.885160611255 23.600699305959708, 95.67080860244155 -0.3104534667181156 M0.2807925747565392 115.52021968265971 C36.10594657424036 74.30809433782613, 71.9311005737242 33.09596899299255, 100.65782401030415 0.049653908575599814 M0.2807925747565392 115.52021968265971 C21.04915476632093 91.62895194776075, 41.817516957885324 67.73768421286178, 100.65782401030415 0.049653908575599814 M0.019335750695091747 121.9180036997356 C25.12866294924485 93.03302696394874, 50.237990147794605 64.14805022816188, 106.30089844715727 -0.3449482963534578 M0.019335750695091747 121.9180036997356 C41.96174717832468 73.66877867072509, 83.90415860595427 25.419553641714558, 106.30089844715727 -0.3449482963534578 M-0.2421210733663557 128.31578771681149 C41.428668632292684 80.37902773547086, 83.09945833795172 32.44226775413024, 111.28791385501988 0.015159078940250481 M-0.2421210733663557 128.31578771681149 C29.10138852999364 94.55994131211986, 58.44489813335363 60.80409490742822, 111.28791385501988 0.015159078940250481 M2.1206582185342313 131.6947334129963 C38.78935493153367 89.51222318039287, 75.45805164453311 47.32971294778943, 116.2749292628825 0.375266454233973 M2.1206582185342313 131.6947334129963 C30.15782508131549 99.44166242606896, 58.19499194409675 67.18859143914162, 116.2749292628825 0.375266454233973 M7.1076736263968385 132.05484078829002 C33.126858086557384 102.12319300366549, 59.14604254671793 72.19154521904096, 121.9180036997356 -0.019335750695091747 M7.1076736263968385 132.05484078829002 C34.05898231996089 101.050906733953, 61.010291013524935 70.04697267961598, 121.9180036997356 -0.019335750695091747 M12.75074806324995 131.66023858336095 C52.53155687108785 85.89765291712496, 92.31236567892574 40.135067250888966, 126.9050191075982 0.34077162459862365 M12.75074806324995 131.66023858336095 C37.4942905553899 103.19604901767255, 62.237833047529854 74.73185945198415, 126.9050191075982 0.34077162459862365 M17.737763471112558 132.02034595865467 C48.97536781047133 96.08559280938641, 80.21297214983011 60.15083966011815, 132.54809354445132 -0.05383058033042687 M17.737763471112558 132.02034595865467 C41.37737295331374 104.82608605128821, 65.01698243551492 77.63182614392176, 132.54809354445132 -0.05383058033042687 M23.380837907965685 131.6257437537256 C49.06531075920836 102.0791376295303, 74.74978361045103 72.532531505335, 137.53510895231395 0.3062767949632672 M23.380837907965685 131.6257437537256 C55.21321901362825 95.0067782031524, 87.04560011929081 58.387812652579186, 137.53510895231395 0.3062767949632672 M28.367853315828285 131.98585112901932 C61.97573659848774 93.32440396707676, 95.5836198811472 54.6629568051342, 143.17818338916706 -0.0883254099657762 M28.367853315828285 131.98585112901932 C63.85111782260108 91.16702465536132, 99.33438232937388 50.34819818170331, 143.17818338916706 -0.0883254099657762 M34.010927752681404 131.59124892409028 C72.17112059578938 87.69296866391758, 110.33131343889735 43.794688403744885, 148.16519879702966 0.2717819653279321 M34.010927752681404 131.59124892409028 C56.9693876976754 105.18056192492018, 79.9278476426694 78.76987492575009, 148.16519879702966 0.2717819653279321 M38.99794316054402 131.95135629938397 C84.67693534265587 79.40368681938702, 130.3559275247677 26.856017339390064, 153.8082732338828 -0.12282023960112554 M38.99794316054402 131.95135629938397 C64.84798539148345 102.21428439158235, 90.69802762242287 72.47721248378073, 153.8082732338828 -0.12282023960112554 M44.64101759739714 131.5567540944549 C71.63058281764462 100.50881094045126, 98.62014803789211 69.46086778644761, 158.7952886417454 0.23728713569258275 M44.64101759739714 131.5567540944549 C73.31634332284366 98.56956531312935, 101.99166904829018 65.5823765318038, 158.7952886417454 0.23728713569258275 M49.62803300525974 131.91686146974862 C86.75345229826247 89.20895201024493, 123.87887159126521 46.50104255074123, 164.4383630785985 -0.15731506923647487 M49.62803300525974 131.91686146974862 C82.18306753055195 94.46657825586324, 114.73810205584417 57.016295041977855, 164.4383630785985 -0.15731506923647487 M55.27110744211286 131.52225926481958 C97.28864707389927 83.18660912325579, 139.3061867056857 34.850958981692, 169.4253784864611 0.20279230605723342 M55.27110744211286 131.52225926481958 C88.96755813819914 92.75892694856151, 122.66400883428543 53.99559463230344, 169.4253784864611 0.20279230605723342 M60.25812284997547 131.88236664011328 C98.33459014983686 88.08040159976886, 136.41105744969826 44.27843655942445, 175.06845292331423 -0.19180989887181 M60.25812284997547 131.88236664011328 C101.82741643665574 84.06236458750138, 143.396710023336 36.24236253488948, 175.06845292331423 -0.19180989887181 M65.90119728682858 131.4877644351842 C104.99135545059804 86.51968145031138, 144.0815136143675 41.55159846543856, 180.05546833117683 0.16829747642188408 M65.90119728682858 131.4877644351842 C99.87356544873606 92.40702538324496, 133.84593361064356 53.326286331305695, 180.05546833117683 0.16829747642188408 M70.88821269469119 131.84787181047795 C106.67516894514586 90.67968794935447, 142.4621251956005 49.51150408823098, 185.69854276802997 -0.22630472850715933 M70.88821269469119 131.84787181047795 C115.31320966957124 80.74275879968702, 159.73820664445128 29.637645788896094, 185.69854276802997 -0.22630472850715933 M76.53128713154432 131.45326960554888 C104.98639482835785 98.7194126870632, 133.4415025251714 65.98555576857753, 190.6855581758926 0.13380264678653475 M76.53128713154432 131.45326960554888 C101.80653251094184 102.37742583633118, 127.08177789033935 73.30158206711347, 190.6855581758926 0.13380264678653475 M81.51830253940693 131.81337698084258 C113.56069113186318 94.95282545218204, 145.60307972431943 58.0922739235215, 196.3286326127457 -0.26079955814250866 M81.51830253940693 131.81337698084258 C108.2527171446684 101.05895103340185, 134.98713174992986 70.30452508596112, 196.3286326127457 -0.26079955814250866 M87.16137697626004 131.41877477591353 C127.67681556906331 84.8110942140498, 168.19225416186657 38.203413652186086, 201.3156480206083 0.09930781715119963 M87.16137697626004 131.41877477591353 C124.60654184610149 88.3430401064659, 162.05170671594294 45.267305437018294, 201.3156480206083 0.09930781715119963 M92.14839238412264 131.77888215120723 C123.82630855023562 95.33760818711517, 155.5042247163486 58.89633422302312, 206.95872245746142 -0.295294387777858 M92.14839238412264 131.77888215120723 C117.74346616957996 102.33511788792647, 143.33853995503728 72.89135362464572, 206.95872245746142 -0.295294387777858 M97.79146682097577 131.38427994627818 C120.8821875759534 104.82144428978947, 143.972908330931 78.25860863330075, 211.94573786532402 0.0648129875158503 M97.79146682097577 131.38427994627818 C129.44274730038438 94.97364683467546, 161.094027779793 58.56301372307273, 211.94573786532402 0.0648129875158503 M102.77848222883837 131.7443873215719 C133.87578942574922 95.97102757259913, 164.97309662266008 60.19766782362633, 217.58881230217713 -0.3297892174131931 M102.77848222883837 131.7443873215719 C129.0389443781967 101.53518130592694, 155.29940652755505 71.32597529028197, 217.58881230217713 -0.3297892174131931 M107.76549763670099 132.1044946968656 C143.44870608831783 91.05565902584385, 179.1319145399347 50.00682335482209, 222.57582771003976 0.030318157880500962 M107.76549763670099 132.1044946968656 C133.87621727686619 102.06754773301444, 159.9869369170314 72.03060076916326, 222.57582771003976 0.030318157880500962 M113.4085720735541 131.70989249193656 C143.16255137646303 97.48185471276233, 172.91653067937196 63.253816933588084, 228.21890214689287 -0.36428404704854245 M113.4085720735541 131.70989249193656 C155.91583078200446 82.81088499616513, 198.42308949045483 33.911877500393686, 228.21890214689287 -0.36428404704854245 M118.39558748141673 132.06999986723028 C150.1422017963797 95.5496977230666, 181.88881611134272 59.02939557890291, 233.2059175547555 -0.00417667175483416 M118.39558748141673 132.06999986723028 C156.8809310169437 87.79767652291275, 195.36627455247063 43.52535317859524, 233.2059175547555 -0.00417667175483416 M124.03866191826984 131.6753976623012 C165.43279709175977 84.05689231448244, 206.8269322652497 36.43838696666366, 238.1929329626181 0.3559307035388741 M124.03866191826984 131.6753976623012 C160.09951841703003 90.19212760879705, 196.16037491579021 48.708857555292894, 238.1929329626181 0.3559307035388741 M129.02567732613247 132.03550503759493 C160.2536330548465 96.11185134518595, 191.4815887835605 60.18819765277699, 243.8360073994712 -0.038671501390183494 M129.02567732613247 132.03550503759493 C158.39054804388482 98.25508548176327, 187.7554187616372 64.4746659259316, 243.8360073994712 -0.038671501390183494 M134.66875176298555 131.64090283266586 C172.07736640515725 88.60721439040627, 209.48598104732892 45.57352594814668, 248.1669637783433 1.0761454541262907 M134.66875176298555 131.64090283266586 C178.08973227972606 81.69077863564857, 221.51071279646658 31.740654438631267, 248.1669637783433 1.0761454541262907 M139.65576717084815 132.00101020795958 C177.15286071349624 88.86553843388629, 214.64995425614433 45.730066659813005, 247.90550695428186 7.473929471202197 M139.65576717084815 132.00101020795958 C165.92746574632125 101.77887816270214, 192.19916432179434 71.5567461174447, 247.90550695428186 7.473929471202197 M145.2988416077013 131.6064080030305 C169.506896000435 103.75822702934184, 193.71495039316875 75.91004605565318, 248.30010915921093 13.117003908055295 M145.2988416077013 131.6064080030305 C169.56267922575176 103.69405576928456, 193.82651684380227 75.78170353553861, 248.30010915921093 13.117003908055295 M150.2858570155639 131.96651537832423 C182.09621608081758 95.37288328729996, 213.90657514607125 58.77925119627568, 248.0386523351495 19.514787925131202 M150.2858570155639 131.96651537832423 C174.5299713748871 104.07685215830556, 198.77408573421036 76.18718893828688, 248.0386523351495 19.514787925131202 M155.928931452417 131.57191317339516 C191.11718274724836 91.0924605784674, 226.3054340420797 50.61300798353963, 248.43325454007854 25.157862361984314 M155.928931452417 131.57191317339516 C191.8795116171636 90.21550153060443, 227.83009178191017 48.85908988781368, 248.43325454007854 25.157862361984314 M160.91594686027963 131.93202054868888 C188.08154829644536 100.68157089336614, 215.2471497326111 69.4311212380434, 248.1717977160171 31.555646379060192 M160.91594686027963 131.93202054868888 C180.30334594752736 109.62936914053365, 199.6907450347751 87.32671773237843, 248.1717977160171 31.555646379060192 M166.55902129713274 131.53741834375984 C198.59152888759414 94.68823360762586, 230.62403647805553 57.83904887149188, 247.91034089195566 37.9534303961361 M166.55902129713274 131.53741834375984 C191.2863732229637 103.09185389404833, 216.01372514879463 74.64628944433682, 247.91034089195566 37.9534303961361 M171.54603670499534 131.89752571905353 C200.94288550042359 98.0803195929399, 230.33973429585183 64.26311346682628, 248.3049430968847 43.59650483298921 M171.54603670499534 131.89752571905353 C187.98194190301913 112.99017963516738, 204.41784710104295 94.08283355128123, 248.3049430968847 43.59650483298921 M177.18911114184846 131.50292351412446 C200.55117766717822 104.62794025598961, 223.913244192508 77.75295699785475, 248.04348627282326 49.99428885006509 M177.18911114184846 131.50292351412446 C197.88928681154806 107.69009539977705, 218.58946248124766 83.87726728542964, 248.04348627282326 49.99428885006509 M182.17612654971109 131.8630308894182 C201.77262970199175 109.3198327710276, 221.3691328542724 86.776634652637, 248.4380884777523 55.63736328691823 M182.17612654971109 131.8630308894182 C200.14331762233346 111.19414191297007, 218.11050869495583 90.52525293652192, 248.4380884777523 55.63736328691823 M187.8192009865642 131.46842868448914 C210.11917149131628 105.81524713386199, 232.41914199606836 80.16206558323483, 248.17663165369086 62.03514730399411 M187.8192009865642 131.46842868448914 C200.6315465096216 116.72951117236437, 213.443892032679 101.99059366023958, 248.17663165369086 62.03514730399411 M192.8062163944268 131.82853605978283 C213.8352541845108 107.63739535181348, 234.86429197459483 83.44625464384413, 247.91517482962942 68.43293132106999 M192.8062163944268 131.82853605978283 C211.4913015706463 110.33380438682632, 230.1763867468658 88.8390727138698, 247.91517482962942 68.43293132106999 M198.44929083127994 131.43393385485376 C214.44113005511645 113.0374272383945, 230.43296927895292 94.64092062193524, 248.30977703455846 74.0760057579231 M198.44929083127994 131.43393385485376 C216.98858433926353 110.10691631107188, 235.52787784724708 88.77989876729, 248.30977703455846 74.0760057579231 M203.43630623914254 131.7940412301475 C214.54643015744438 119.01330567422258, 225.65655407574621 106.23257011829763, 248.04832021049702 80.473789774999 M203.43630623914254 131.7940412301475 C219.58796230497734 113.21368636771156, 235.73961837081217 94.6333315052756, 248.04832021049702 80.473789774999 M209.07938067599565 131.39943902521844 C221.58993098625118 117.00769719135148, 234.1004812965067 102.61595535748454, 248.44292241542607 86.11686421185212 M209.07938067599565 131.39943902521844 C218.00427963798265 121.13251722170902, 226.92917859996962 110.8655954181996, 248.44292241542607 86.11686421185212 M214.06639608385825 131.75954640051214 C223.72682243075542 120.64649713075615, 233.38724877765262 109.53344786100016, 248.18146559136463 92.514648228928 M214.06639608385825 131.75954640051214 C227.12481218747118 116.73755706656976, 240.18322829108408 101.71556773262739, 248.18146559136463 92.514648228928 M219.05341149172085 132.1196537758059 C228.33681004579873 121.44032536755351, 237.62020859987658 110.76099695930114, 247.9200087673032 98.9124322460039 M219.05341149172085 132.1196537758059 C227.1754562033117 122.77631013755527, 235.2975009149026 113.43296649930467, 247.9200087673032 98.9124322460039 M224.696485928574 131.72505157087681 C232.85972848263543 122.33431523620237, 241.0229710366969 112.94357890152791, 248.31461097223223 104.55550668285701 M224.696485928574 131.72505157087681 C230.41989210137956 125.14102592798757, 236.14329827418513 118.55700028509833, 248.31461097223223 104.55550668285701 M229.6835013364366 132.0851589461705 C233.71538155262178 127.44701132377168, 237.74726176880694 122.80886370137283, 248.0531541481708 110.9532906999329 M229.6835013364366 132.0851589461705 C236.82075757224243 123.87468485825833, 243.95801380804826 115.66421077034616, 248.0531541481708 110.9532906999329 M235.32657577328973 131.69055674124147 C238.93011580470093 127.5451581349498, 242.53365583611216 123.39975952865814, 248.44775635309986 116.59636513678603 M235.32657577328973 131.69055674124147 C239.0036567184834 127.4605589910963, 242.68073766367706 123.23056124095115, 248.44775635309986 116.59636513678603 M240.31359118115233 132.0506641165352 C242.87598517868665 129.10296701491893, 245.438379176221 126.1552699133027, 248.18629952903842 122.99414915386191 M240.31359118115233 132.0506641165352 C242.27772390735552 129.79118788072216, 244.2418566335587 127.53171164490912, 248.18629952903842 122.99414915386191" stroke="#ced4da" stroke-width="0.5" fill="none"></path><path d="M0 0 C71.76475808458382 0, 143.52951616916764 0, 246.84765625000003 0 M0 0 C64.4727905177595 0, 128.945581035519 0, 246.84765625000003 0 M246.84765625000003 0 C246.84765625000003 50.644499910350355, 246.84765625000003 101.28899982070071, 246.84765625000003 129.94921875 M246.84765625000003 0 C246.84765625000003 45.99548198352459, 246.84765625000003 91.99096396704918, 246.84765625000003 129.94921875 M246.84765625000003 129.94921875 C187.07822885309835 129.94921875, 127.30880145619668 129.94921875, 0 129.94921875 M246.84765625000003 129.94921875 C182.82363949885223 129.94921875, 118.7996227477044 129.94921875, 0 129.94921875 M0 129.94921875 C0 101.59482498571052, 0 73.24043122142102, 0 0 M0 129.94921875 C0 86.43362654338233, 0 42.91803433676468, 0 0" stroke="#000000" stroke-width="1" fill="none"></path></g><g transform="translate(731.296875 10) rotate(0 54.5 12.5)"><text x="0" y="18" font-family="Virgil, Segoe UI Emoji" font-size="20px" fill="#000000" text-anchor="start" style="white-space: pre;" direction="ltr">Web Server</text></g><g transform="translate(661.03515625 58.515625) rotate(0 27 12.5)"><text x="0" y="18" font-family="Virgil, Segoe UI Emoji" font-size="20px" fill="#000000" text-anchor="start" style="white-space: pre;" direction="ltr">Proxy</text></g><g transform="translate(631.27734375 122.2890625) rotate(0 76.5 12.5)"><text x="0" y="18" font-family="Virgil, Segoe UI Emoji" font-size="20px" fill="#000000" text-anchor="start" style="white-space: pre;" direction="ltr">JS, HTML, CSS</text></g><g><g transform="translate(586.48828125 105.375) rotate(0 124.19140625 -1.826171875)"><path d="M0 0 C41.397135416666664 -0.6087239583333334, 206.98567708333334 -3.0436197916666665, 248.3828125 -3.65234375" stroke="#000000" stroke-width="1.5" fill="none" stroke-dasharray="12 8"></path></g></g><g transform="translate(10.12890625 196.8828125) rotate(0 120.00195312500006 65.001953125)"><path d="M0 0 C0 0, 0 0, 0 0 M0 0 C0 0, 0 0, 0 0 M-0.2614568240614483 6.397784017075889 C1.1214805271200647 4.80689657911077, 2.504417878301578 3.216009141145651, 4.98701540786261 0.36010737529371317 M-0.2614568240614483 6.397784017075889 C0.978362090505462 4.971535507083072, 2.2181810050723723 3.545286997090254, 4.98701540786261 0.36010737529371317 M0.13314538086761107 12.040858453929006 C4.317518332746856 7.227288006057006, 8.501891284626101 2.413717558185006, 10.630089844715727 -0.03449482963534578 M0.13314538086761107 12.040858453929006 C4.275088047228958 7.276098466026162, 8.417030713590304 2.5113384781233172, 10.630089844715727 -0.03449482963534578 M-0.12831144319383903 18.438642471004897 C4.321752624747349 13.319429357135945, 8.771816692688537 8.200216243266995, 15.617105252578337 0.32561254565836695 M-0.12831144319383903 18.438642471004897 C4.430221802833844 13.194649841508012, 8.988755048861528 7.9506572120111265, 15.617105252578337 0.32561254565836695 M0.26629076173522215 24.081716907858013 C5.671996930259071 17.863163312868448, 11.07770309878292 11.64460971787888, 21.260179689431453 -0.06898965927069156 M0.26629076173522215 24.081716907858013 C5.559001631752847 17.993149534434515, 10.851712501770471 11.904582161011016, 21.260179689431453 -0.06898965927069156 M0.004833937673772937 30.4795009249339 C9.586495785297942 19.457059846752173, 19.16815763292211 8.434618768570445, 26.247195097294064 0.29111771602302206 M0.004833937673772937 30.4795009249339 C6.14205414605265 23.4194366890565, 12.279274354431527 16.3593724531791, 26.247195097294064 0.29111771602302206 M-0.25662288638767805 36.877284942009794 C8.79929558049306 26.459642439340872, 17.8552140473738 16.04199993667195, 31.89026953414718 -0.10348448890603734 M-0.25662288638767805 36.877284942009794 C10.105404643255751 24.95713583715363, 20.46743217289918 13.036986732297468, 31.89026953414718 -0.10348448890603734 M0.13797931854138312 42.520359378862906 C13.072787385875154 27.640564824734692, 26.007595453208925 12.760770270606479, 36.877284942009794 0.25662288638767805 M0.13797931854138312 42.520359378862906 C13.243163373143338 27.444569671632287, 26.348347427745292 12.368779964401668, 36.877284942009794 0.25662288638767805 M-0.12347750552006431 48.9181433959388 C13.696526888700813 33.02004695317157, 27.51653128292169 17.121950510404346, 42.520359378862906 -0.13797931854138312 M-0.12347750552006431 48.9181433959388 C10.259149180472455 36.97429767240323, 20.641775866464975 25.030451948867668, 42.520359378862906 -0.13797931854138312 M0.2711246994089933 54.56121783279191 C18.36244784573581 33.749531240431345, 36.45377099206263 12.93784464807078, 47.50737478672552 0.22212805675232872 M0.2711246994089933 54.56121783279191 C17.844227434368726 34.345675629645115, 35.41733016932846 14.130133426498318, 47.50737478672552 0.22212805675232872 M0.009667875347545873 60.9590018498678 C15.200541859753603 43.483900340131534, 30.39141584415966 26.008798830395264, 53.15044922357863 -0.1724741481767289 M0.009667875347545873 60.9590018498678 C17.561845780354787 40.767530910024824, 35.11402368536203 20.576059970181845, 53.15044922357863 -0.1724741481767289 M-0.25178894871390156 67.3567858669437 C22.86250480463373 40.76683257786665, 45.97679855798136 14.176879288789607, 58.13746463144125 0.1876332271169865 M-0.25178894871390156 67.3567858669437 C18.4545901239151 45.83755836829104, 37.1609691965441 24.318330869638395, 58.13746463144125 0.1876332271169865 M0.14281325621515606 72.99986030379681 C13.935049053310799 57.133707977875304, 27.72728485040644 41.26755565195379, 63.78053906829436 -0.20696897781207468 M0.14281325621515606 72.99986030379681 C17.588136265649233 52.931311859978095, 35.03345927508331 32.86276341615939, 63.78053906829436 -0.20696897781207468 M-0.11864356784629138 79.3976443208727 C15.52391219047919 61.40294236830198, 31.166467948804673 43.408240415731264, 68.76755447615697 0.1531383974816336 M-0.11864356784629138 79.3976443208727 C18.402468999366928 58.091541556966604, 36.92358156658015 36.78543879306051, 68.76755447615697 0.1531383974816336 M0.27595863708276624 85.04071875772581 C16.200717814265246 66.72137890769224, 32.12547699144773 48.40203905765868, 74.41062891301009 -0.2414638074474169 M0.27595863708276624 85.04071875772581 C18.28222516321298 64.32687861406441, 36.288491689343196 43.61303847040302, 74.41062891301009 -0.2414638074474169 M0.01450181302131881 91.4385027748017 C24.740247929417265 62.994785597532235, 49.46599404581321 34.551068420262766, 79.3976443208727 0.11864356784629138 M0.01450181302131881 91.4385027748017 C16.778445892820987 72.15379112498049, 33.542389972620654 52.86907947515927, 79.3976443208727 0.11864356784629138 M-0.24695501104012862 97.8362867918776 C27.612489929734796 65.78766148929694, 55.47193487050972 33.73903618671626, 85.04071875772581 -0.27595863708276624 M-0.24695501104012862 97.8362867918776 C32.2482267218053 60.454856339506954, 64.74340845465073 23.07342588713631, 85.04071875772581 -0.27595863708276624 M0.147647193888929 103.47936122873071 C34.51129984182754 63.94850086582554, 68.87495248976614 24.417640502920364, 90.02773416558841 0.08414873821094204 M0.147647193888929 103.47936122873071 C33.18304911027675 65.47647854426975, 66.21845102666457 27.47359585980881, 90.02773416558841 0.08414873821094204 M-0.11380963017251844 109.87714524580659 C23.569703217668238 82.63238029363771, 47.253216065508994 55.387615341468816, 95.67080860244155 -0.3104534667181156 M-0.11380963017251844 109.87714524580659 C29.533258173089564 75.77209507819472, 59.18032597635165 41.667044910582845, 95.67080860244155 -0.3104534667181156 M0.2807925747565392 115.52021968265971 C37.55629028026658 72.63966475880173, 74.83178798577663 29.759109834943743, 100.65782401030415 0.049653908575599814 M0.2807925747565392 115.52021968265971 C28.866506882424858 82.6361170452725, 57.45222119009318 49.75201440788527, 100.65782401030415 0.049653908575599814 M0.019335750695091747 121.9180036997356 C23.40735597759214 95.01316412326729, 46.79537620448919 68.10832454679897, 106.30089844715727 -0.3449482963534578 M0.019335750695091747 121.9180036997356 C24.039257698926246 94.28624434657596, 48.0591796471574 66.65448499341632, 106.30089844715727 -0.3449482963534578 M-0.2421210733663557 128.31578771681149 C34.187886049425586 88.7085952623573, 68.61789317221752 49.10140280790314, 111.28791385501988 0.015159078940250481 M-0.2421210733663557 128.31578771681149 C37.25906722316029 85.17560546724098, 74.76025551968692 42.03542321767047, 111.28791385501988 0.015159078940250481 M2.1206582185342313 131.6947334129963 C40.58154929873488 87.45053940076514, 79.04244037893552 43.20634538853399, 116.2749292628825 0.375266454233973 M2.1206582185342313 131.6947334129963 C25.477341324374468 104.825943070565, 48.834024430214704 77.9571527281337, 116.2749292628825 0.375266454233973 M7.1076736263968385 132.05484078829002 C32.70699124028165 102.60619455886061, 58.30630885416647 73.1575483294312, 121.9180036997356 -0.019335750695091747 M7.1076736263968385 132.05484078829002 C32.57892964148383 102.75351257629583, 58.050185656570825 73.45218436430164, 121.9180036997356 -0.019335750695091747 M12.75074806324995 131.66023858336095 C39.93715744249644 100.38585212769884, 67.12356682174294 69.11146567203673, 126.9050191075982 0.34077162459862365 M12.75074806324995 131.66023858336095 C46.54461360510867 92.78484330613196, 80.33847914696739 53.909448028902986, 126.9050191075982 0.34077162459862365 M17.737763471112558 132.02034595865467 C45.427065476829796 100.16744771327622, 73.11636748254705 68.31454946789776, 132.54809354445132 -0.05383058033042687 M17.737763471112558 132.02034595865467 C48.519456159024216 96.61005916969513, 79.30114884693589 61.199772380735595, 132.54809354445132 -0.05383058033042687 M23.380837907965685 131.6257437537256 C47.639347344887355 103.71952089121818, 71.89785678180903 75.81329802871076, 137.53510895231395 0.3062767949632672 M23.380837907965685 131.6257437537256 C49.358324268939704 101.74206414504641, 75.33581062991372 71.85838453636723, 137.53510895231395 0.3062767949632672 M28.367853315828285 131.98585112901932 C61.522942871841586 93.84528356519837, 94.67803242785489 55.70471600137742, 143.17818338916706 -0.0883254099657762 M28.367853315828285 131.98585112901932 C66.03215156795358 88.6580323396249, 103.69644982007885 45.33021355023047, 143.17818338916706 -0.0883254099657762 M34.010927752681404 131.59124892409028 C67.93267356646771 92.56874422212897, 101.854419380254 53.546239520167674, 148.16519879702966 0.2717819653279321 M34.010927752681404 131.59124892409028 C68.60230884191526 91.79841695689339, 103.1936899311491 52.00558498969649, 148.16519879702966 0.2717819653279321 M38.99794316054402 131.95135629938397 C83.73874728131794 80.4829487251821, 128.47955140209186 29.014541150980207, 153.8082732338828 -0.12282023960112554 M38.99794316054402 131.95135629938397 C71.29548907160114 94.79727985253376, 103.59303498265825 57.643203405683565, 153.8082732338828 -0.12282023960112554 M44.64101759739714 131.5567540944549 C87.76018396263859 81.95382736217437, 130.87935032788005 32.350900629893815, 158.7952886417454 0.23728713569258275 M44.64101759739714 131.5567540944549 C79.207776600307 91.79224659748499, 113.77453560321685 52.02773910051509, 158.7952886417454 0.23728713569258275 M49.62803300525974 131.91686146974862 C91.67714540585244 83.54489101242159, 133.72625780644515 35.17292055509455, 164.4383630785985 -0.15731506923647487 M49.62803300525974 131.91686146974862 C87.98069028787083 87.79717619885804, 126.33334757048193 43.677490927967455, 164.4383630785985 -0.15731506923647487 M55.27110744211286 131.52225926481958 C88.17884678807688 93.6662355681588, 121.08658613404091 55.81021187149801, 169.4253784864611 0.20279230605723342 M55.27110744211286 131.52225926481958 C99.09215451052398 81.11191114597457, 142.9132015789351 30.70156302712958, 169.4253784864611 0.20279230605723342 M60.25812284997547 131.88236664011328 C99.20451182730075 87.07967118525771, 138.15090080462602 42.27697573040214, 175.06845292331423 -0.19180989887181 M60.25812284997547 131.88236664011328 C96.88449419790422 89.74854617031126, 133.51086554583296 47.61472570050924, 175.06845292331423 -0.19180989887181 M65.90119728682858 131.4877644351842 C101.43668621890937 90.6088606325666, 136.97217515099015 49.72995682994899, 180.05546833117683 0.16829747642188408 M65.90119728682858 131.4877644351842 C109.25109749806886 81.61940877599001, 152.60099770930913 31.751053116795816, 180.05546833117683 0.16829747642188408 M70.88821269469119 131.84787181047795 C97.04576397211116 101.75705121067045, 123.20331524953113 71.66623061086297, 185.69854276802997 -0.22630472850715933 M70.88821269469119 131.84787181047795 C116.29638819741747 79.61174128259466, 161.70456370014375 27.37561075471136, 185.69854276802997 -0.22630472850715933 M76.53128713154432 131.45326960554888 C108.2339384127994 94.98354114644837, 139.93658969405448 58.513812687347865, 190.6855581758926 0.13380264678653475 M76.53128713154432 131.45326960554888 C110.83562396971209 91.99064427625281, 145.13996080787987 52.528018946956735, 190.6855581758926 0.13380264678653475 M81.51830253940693 131.81337698084258 C110.189527147994 98.83090599478646, 138.86075175658107 65.84843500873035, 196.3286326127457 -0.26079955814250866 M81.51830253940693 131.81337698084258 C121.63137704536435 85.66856335268668, 161.74445155132176 39.52374972453076, 196.3286326127457 -0.26079955814250866 M87.16137697626004 131.41877477591353 C117.63104123999045 96.36743562828705, 148.10070550372086 61.316096480660576, 201.3156480206083 0.09930781715119963 M87.16137697626004 131.41877477591353 C113.73668870905695 100.84737574645415, 140.31200044185385 70.27597671699476, 201.3156480206083 0.09930781715119963 M92.14839238412264 131.77888215120723 C117.52090349258447 102.59114696016863, 142.8934146010463 73.40341176913003, 206.95872245746142 -0.295294387777858 M92.14839238412264 131.77888215120723 C125.79721391527326 93.07034092155348, 159.44603544642388 54.36179969189975, 206.95872245746142 -0.295294387777858 M97.13540779198527 132.13898952650095 C132.34750593037364 91.63210427613325, 167.55960406876198 51.12521902576553, 211.94573786532402 0.0648129875158503 M97.13540779198527 132.13898952650095 C124.67104323133921 100.46286444431296, 152.20667867069315 68.78673936212496, 211.94573786532402 0.0648129875158503 M102.77848222883837 131.7443873215719 C132.18870302477987 97.91179846852646, 161.59892382072138 64.07920961548102, 217.58881230217713 -0.3297892174131931 M102.77848222883837 131.7443873215719 C144.75130137324575 83.4601822158445, 186.72412051765312 35.175977110117074, 217.58881230217713 -0.3297892174131931 M107.76549763670099 132.1044946968656 C139.1439717043042 96.00768946269113, 170.52244577190743 59.910884228516665, 222.57582771003976 0.030318157880500962 M107.76549763670099 132.1044946968656 C137.77479404760655 97.58274818282901, 167.7840904585121 63.061001668792414, 222.57582771003976 0.030318157880500962 M113.4085720735541 131.70989249193656 C144.20027860807014 96.2880860902086, 174.99198514258615 60.86627968848063, 228.21890214689287 -0.36428404704854245 M113.4085720735541 131.70989249193656 C140.09552634128698 101.01006341738476, 166.78248060901984 70.31023434283296, 228.21890214689287 -0.36428404704854245 M118.39558748141673 132.06999986723028 C163.33537798684011 80.37268464266054, 208.27516849226348 28.675369418090796, 233.2059175547555 -0.00417667175483416 M118.39558748141673 132.06999986723028 C142.93877881620338 103.83628794331126, 167.48197015099004 75.60257601939225, 233.2059175547555 -0.00417667175483416 M124.03866191826984 131.6753976623012 C154.68847661222932 96.41681915119193, 185.33829130618884 61.15824064008264, 238.1929329626181 0.3559307035388741 M124.03866191826984 131.6753976623012 C168.07659760822122 81.01554772535059, 212.1145332981726 30.35569778839995, 238.1929329626181 0.3559307035388741 M129.02567732613247 132.03550503759493 C166.73481993431284 88.65609871775256, 204.44396254249324 45.27669239791018, 241.8678303124997 2.2254572392781427 M129.02567732613247 132.03550503759493 C161.7388164507595 94.40334328759846, 194.45195557538648 56.771181537602004, 241.8678303124997 2.2254572392781427 M134.66875176298555 131.64090283266586 C163.38523980244662 98.60636222572985, 192.1017278419077 65.57182161879385, 242.26243251742875 7.868531676131241 M134.66875176298555 131.64090283266586 C160.9491659076482 101.40874467196181, 187.2295800523108 71.17658651125777, 242.26243251742875 7.868531676131241 M139.65576717084815 132.00101020795958 C172.7249024281451 93.95932175384677, 205.79403768544205 55.91763329973395, 242.0009756933673 14.266315693207133 M139.65576717084815 132.00101020795958 C166.18670641284882 101.4806558900619, 192.7176456548495 70.96030157216421, 242.0009756933673 14.266315693207133 M145.2988416077013 131.6064080030305 C181.38787594981804 90.09072304874535, 217.4769102919348 48.57503809446018, 242.39557789829635 19.909390130060245 M145.2988416077013 131.6064080030305 C169.87640929530662 103.33315060887341, 194.45397698291194 75.05989321471631, 242.39557789829635 19.909390130060245 M150.2858570155639 131.96651537832423 C171.24878933726015 107.8514203127327, 192.21172165895638 83.73632524714117, 242.1341210742349 26.307174147136152 M150.2858570155639 131.96651537832423 C184.0654973359152 93.1074843465031, 217.8451376562665 54.24845331468197, 242.1341210742349 26.307174147136152 M155.928931452417 131.57191317339516 C180.81476751662404 102.94403357785015, 205.70060358083109 74.31615398230514, 241.87266425017347 32.70495816421203 M155.928931452417 131.57191317339516 C188.94702681898505 93.5889393970849, 221.96512218555307 55.60596562077464, 241.87266425017347 32.70495816421203 M160.91594686027963 131.93202054868888 C182.71572665400407 106.85424258961332, 204.51550644772854 81.77646463053776, 242.26726645510252 38.34803260106514 M160.91594686027963 131.93202054868888 C180.2877116144472 109.64735438337703, 199.65947636861478 87.36268821806519, 242.26726645510252 38.34803260106514 M166.55902129713274 131.53741834375984 C183.586163528887 111.9499318550911, 200.61330576064125 92.36244536642235, 242.00580963104107 44.74581661814105 M166.55902129713274 131.53741834375984 C184.34898328316623 111.07240810936419, 202.13894526919972 90.60739787496854, 242.00580963104107 44.74581661814105 M171.54603670499534 131.89752571905353 C193.45371890689898 106.69562023854559, 215.3614011088026 81.49371475803764, 242.40041183597012 50.38889105499416 M171.54603670499534 131.89752571905353 C197.72106067049762 101.78660509088694, 223.89608463599987 71.67568446272034, 242.40041183597012 50.38889105499416 M177.18911114184846 131.50292351412446 C202.10670007966576 102.83851641593974, 227.02428901748306 74.17410931775501, 242.13895501190868 56.78667507207004 M177.18911114184846 131.50292351412446 C198.81011336649988 106.63080562243032, 220.43111559115127 81.75868773073617, 242.13895501190868 56.78667507207004 M182.17612654971109 131.8630308894182 C204.09899405266367 106.6436567183294, 226.02186155561628 81.42428254724058, 241.87749818784724 63.184459089145946 M182.17612654971109 131.8630308894182 C196.3474583572219 115.56077848981155, 210.51879016473274 99.2585260902049, 241.87749818784724 63.184459089145946 M187.8192009865642 131.46842868448914 C202.27450171968468 114.83950740422863, 216.7298024528052 98.21058612396811, 242.27210039277628 68.82753352599906 M187.8192009865642 131.46842868448914 C200.17731403105634 117.25204586523954, 212.53542707554848 103.03566304598992, 242.27210039277628 68.82753352599906 M192.8062163944268 131.82853605978283 C207.851111207957 114.5213643763345, 222.89600602148715 97.21419269288616, 242.01064356871484 75.22531754307494 M192.8062163944268 131.82853605978283 C212.20487086292243 109.51293681662878, 231.60352533141807 87.19733757347473, 242.01064356871484 75.22531754307494 M198.44929083127994 131.43393385485376 C214.78377303480872 112.64326157960043, 231.1182552383375 93.8525893043471, 242.4052457736439 80.86839197992805 M198.44929083127994 131.43393385485376 C215.85739114891604 111.40820521971116, 233.26549146655216 91.38247658456856, 242.4052457736439 80.86839197992805 M203.43630623914254 131.7940412301475 C216.48221678624876 116.78643789332517, 229.52812733335497 101.77883455650283, 242.14378894958247 87.26617599700396 M203.43630623914254 131.7940412301475 C217.71474221857193 115.36857957488417, 231.99317819800135 98.9431179196208, 242.14378894958247 87.26617599700396 M208.42332164700514 132.1541486054412 C218.49390476725586 120.56926794161159, 228.5644878875066 108.98438727778196, 241.882332125521 93.66396001407983 M208.42332164700514 132.1541486054412 C219.95850504007745 118.88443805855036, 231.49368843314977 105.61472751165951, 241.882332125521 93.66396001407983 M214.06639608385825 131.75954640051214 C223.1404621627237 121.32102745834949, 232.21452824158914 110.88250851618685, 242.27693433045005 99.30703445093295 M214.06639608385825 131.75954640051214 C224.41032507137888 119.8602172867308, 234.7542540588995 107.96088817294945, 242.27693433045005 99.30703445093295 M219.05341149172085 132.1196537758059 C224.8150664195014 125.4916279735779, 230.57672134728193 118.86360217134992, 242.0154775063886 105.70481846800885 M219.05341149172085 132.1196537758059 C226.04051569599014 124.0819098412534, 233.02761990025942 116.04416590670091, 242.0154775063886 105.70481846800885 M224.696485928574 131.72505157087681 C229.45561184673454 126.25030346863822, 234.21473776489512 120.77555536639963, 242.41007971131768 111.34789290486196 M224.696485928574 131.72505157087681 C231.2428900031933 124.19427514253185, 237.78929407781263 116.66349871418689, 242.41007971131768 111.34789290486196 M229.6835013364366 132.0851589461705 C233.6374409818403 127.53667169403943, 237.59138062724404 122.98818444190834, 242.14862288725624 117.74567692193784 M229.6835013364366 132.0851589461705 C233.82658814980073 127.31908276770244, 237.96967496316486 122.55300658923437, 242.14862288725624 117.74567692193784 M235.32657577328973 131.69055674124147 C236.87212287088997 129.91260818829002, 238.4176699684902 128.13465963533858, 241.8871660631948 124.14346093901375 M235.32657577328973 131.69055674124147 C236.8755483481186 129.90866762750656, 238.42452092294744 128.12677851377168, 241.8871660631948 124.14346093901375" stroke="#ced4da" stroke-width="0.5" fill="none"></path><path d="M0 0 C75.03643365146677 0, 150.07286730293353 0, 240.0039062500001 0 M0 0 C87.50712724123191 0, 175.01425448246383 0, 240.0039062500001 0 M240.0039062500001 0 C240.0039062500001 44.61081255741265, 240.0039062500001 89.2216251148253, 240.0039062500001 130.00390625 M240.0039062500001 0 C240.0039062500001 50.17307456421004, 240.0039062500001 100.34614912842008, 240.0039062500001 130.00390625 M240.0039062500001 130.00390625 C190.10225010620826 130.00390625, 140.20059396241638 130.00390625, 0 130.00390625 M240.0039062500001 130.00390625 C156.5696073096941 130.00390625, 73.1353083693881 130.00390625, 0 130.00390625 M0 130.00390625 C0 95.54344127532713, 0 61.08297630065425, 0 0 M0 130.00390625 C0 89.29551725835736, 0 48.587128266714714, 0 0" stroke="#000000" stroke-width="1" fill="none"></path></g><g transform="translate(170.9609375 167.87109375) rotate(0 39.5 12.5)"><text x="0" y="18" font-family="Virgil, Segoe UI Emoji" font-size="20px" fill="#000000" text-anchor="start" style="white-space: pre;" direction="ltr">Browser</text></g><g transform="translate(18.1484375 214.0703125) rotate(0 111.5 12.5)"><text x="0" y="18" font-family="Virgil, Segoe UI Emoji" font-size="20px" fill="#000000" text-anchor="start" style="white-space: pre;" direction="ltr">Edge, Chrome, Firefox</text></g><g><g transform="translate(10 266.34765625) rotate(0 120.60546875 -1.740234375)"><path d="M0 0 C40.201822916666664 -0.580078125, 201.00911458333334 -2.900390625, 241.2109375 -3.48046875" stroke="#000000" stroke-width="1.5" fill="none" stroke-dasharray="12 8"></path></g></g><g transform="translate(65.84375 281.875) rotate(0 63 12.5)"><text x="0" y="18" font-family="Virgil, Segoe UI Emoji" font-size="20px" fill="#000000" text-anchor="start" style="white-space: pre;" direction="ltr">iPad, Android</text></g><g><g transform="translate(269.892578125 245.4986558847732) rotate(0 153.994140625 -71.58052514020278)"><path d="M0 0 C51.331380208333336 -23.86017504673426, 256.6569010416667 -119.3008752336713, 307.98828125 -143.16105028040556 M0 0 C51.331380208333336 -23.86017504673426, 256.6569010416667 -119.3008752336713, 307.98828125 -143.16105028040556" stroke="#000000" stroke-width="1" fill="none"></path></g><g transform="translate(269.892578125 245.4986558847732) rotate(0 153.994140625 -71.58052514020278)"><path d="M286.74926696714357 -121.97368913531201 C294.16057821056506 -129.36697612037756, 301.57188945398656 -136.7602631054431, 307.98828125 -143.16105028040556 M286.74926696714357 -121.97368913531201 C292.873229737278 -128.08275846979038, 298.9971925074125 -134.1918278042687, 307.98828125 -143.16105028040556" stroke="#000000" stroke-width="1" fill="none"></path></g><g transform="translate(269.892578125 245.4986558847732) rotate(0 153.994140625 -71.58052514020278)"><path d="M278.0992791552731 -140.58276523382727 C288.52898621837824 -141.4824526063187, 298.95869328148336 -142.38213997881016, 307.98828125 -143.16105028040556 M278.0992791552731 -140.58276523382727 C286.7173408801208 -141.3261764593089, 295.33540260496846 -142.0695876847905, 307.98828125 -143.16105028040556" stroke="#000000" stroke-width="1" fill="none"></path></g></g><g><g transform="translate(400.8202073913719 139.89726657692336) rotate(0 14.491918676204762 66.12670217307667)" fill-rule="evenodd"><path d="M-60.6101975668617 17.538047726192804 C-60.6101975668617 17.538047726192804, -60.6101975668617 17.538047726192804, -60.6101975668617 17.538047726192804 M-60.6101975668617 17.538047726192804 C-60.6101975668617 17.538047726192804, -60.6101975668617 17.538047726192804, -60.6101975668617 17.538047726192804 M-66.12012662284721 29.973508385050867 C-60.82273219574064 23.879553195518834, -55.525337768634074 17.785598005986806, -52.34288701404655 14.124607200372655 M-66.12012662284721 29.973508385050867 C-62.929845376089304 26.303509628630916, -59.7395641293314 22.63351087221097, -52.34288701404655 14.124607200372655 M-66.38158344690865 36.371292402126755 C-59.76938994431603 28.764833894312176, -53.157196441723414 21.1583753864976, -46.04375354820293 12.975295415220824 M-66.38158344690865 36.371292402126755 C-61.06556811238477 30.255916308988056, -55.749552777860885 24.140540215849352, -46.04375354820293 12.975295415220824 M-66.6430402709701 42.76907641920264 C-56.40443619012028 30.99090975054891, -46.16583210927046 19.212743081895177, -40.4006791113498 12.580693210291763 M-66.6430402709701 42.76907641920264 C-58.2198598840294 33.07931581374241, -49.79667949708869 23.38955520828219, -40.4006791113498 12.580693210291763 M-33.184029792454226 4.27888782784127 C-31.850723910739596 2.745094864354809, -30.51741802902497 1.2113019008683477, -28.591616589520676 -1.0040792337181337 M-33.184029792454226 4.27888782784127 C-32.08026447602395 3.009151078833577, -30.97649915959367 1.7394143298258835, -28.591616589520676 -1.0040792337181337 M-64.93632000806002 46.902731695610214 C-56.347794271080105 37.022763023183984, -47.75926853410019 27.142794350757747, -34.75760467449669 12.186091005362703 M-64.93632000806002 46.902731695610214 C-56.88203968428621 37.63734206823902, -48.8277593605124 28.37195244086783, -34.75760467449669 12.186091005362703 M-33.44548661651568 10.676671844917161 C-28.211653089999885 4.655835107359267, -22.97781956348409 -1.365001630198627, -20.324306036705533 -4.417519759538281 M-33.44548661651568 10.676671844917161 C-28.897353540706355 5.444643242669196, -24.34922046489703 0.21261464042123102, -20.324306036705533 -4.417519759538281 M-63.229599745149955 51.036386972017795 C-50.697291939357825 36.61961600266528, -38.1649841335657 22.202845033312766, -12.056995483890386 -7.830960285358428 M-63.229599745149955 51.036386972017795 C-52.71504592507805 38.9407764413821, -42.20049210500615 26.845165910746395, -12.056995483890386 -7.830960285358428 M-59.55470239526836 52.90591350775705 C-46.86339453218837 38.306233895754254, -34.172086669108396 23.70655428375146, -6.4139210470372685 -8.225562490287487 M-59.55470239526836 52.90591350775705 C-47.30737611256026 38.81697627920212, -35.06004982985216 24.7280390506472, -6.4139210470372685 -8.225562490287487 M-72.28128077014945 73.6431795490656 C-71.27062056881421 72.4805479830139, -70.25996036747897 71.31791641696222, -67.6888675672159 68.3602124875062 M-72.28128077014945 73.6431795490656 C-70.66915220430921 71.78863777854448, -69.05702363846899 69.93409600802337, -67.6888675672159 68.3602124875062 M-56.53586407437727 55.530149623719076 C-41.65314970114755 38.40954519506157, -26.77043532791782 21.288940766404068, -1.426905639174659 -7.8654551149937735 M-56.53586407437727 55.530149623719076 C-38.887386987248526 35.2278991471223, -21.23890990011978 14.925648670525518, -1.426905639174659 -7.8654551149937735 M-72.54273759421089 80.04096356614149 C-68.20034146978372 75.04560825296151, -63.85794534535654 70.05025293978154, -59.421557014400754 64.94677196168605 M-72.54273759421089 80.04096356614149 C-67.34641004094289 74.06327251528992, -62.15008248767488 68.08558146443836, -59.421557014400754 64.94677196168605 M-52.860966724495675 57.39967615945833 C-40.348519480342866 43.00575215276535, -27.836072236190056 28.611828146072376, 2.9040507396974444 -6.750638159477289 M-52.860966724495675 57.39967615945833 C-40.45592581479091 43.1293090066498, -28.050884905086143 28.858941853841262, 2.9040507396974444 -6.750638159477289 M-76.08448956322488 90.21229548433125 C-53.74479655408392 64.51341841959945, -31.40510354494296 38.814541354867636, 6.578948089579039 -4.881111623738032 M-76.08448956322488 90.21229548433125 C-50.37768218523869 60.63999642617998, -24.670874807252503 31.06769736802871, 6.578948089579039 -4.881111623738032 M-74.37776930031481 94.34595076073882 C-48.527788172749894 64.6089491443288, -22.677807045184977 34.87194752791879, 10.253845439460633 -3.0115850879987747 M-74.37776930031481 94.34595076073882 C-47.151462850308384 63.025667975333825, -19.925156400301958 31.705385189928833, 10.253845439460633 -3.0115850879987747 M-69.3907538924522 94.70605813603252 C-45.37091980761463 67.074399858145, -21.35108572277705 39.44274158025749, 9.992388615399186 3.3861989290771146 M-69.3907538924522 94.70605813603252 C-42.03608716419981 63.23811374179128, -14.681420435947423 31.77016934755003, 9.992388615399186 3.3861989290771146 M12.616624731361215 0.36736060818602656 C15.932492281904521 -3.447108664488307, 19.248359832447825 -7.261577937162641, 21.145392108237807 -9.44386393471001 M12.616624731361215 0.36736060818602656 C15.86392090215983 -3.3682263155904595, 19.111217072958443 -7.1038132393669455, 21.145392108237807 -9.44386393471001 M-63.09162042660858 93.5567463508807 C-38.111490985672745 64.8203946337367, -13.131361544736919 36.08404291659271, 31.380879748024476 -15.121433201198473 M-63.09162042660858 93.5567463508807 C-41.96200466165821 69.24990391816281, -20.83238889670784 44.94306148544492, 31.380879748024476 -15.121433201198473 M-57.44854598975545 93.16214414595163 C-36.34661658697034 68.88715122957953, -15.244687184185231 44.61215831320744, 37.6800132138681 -16.270744986350305 M-57.44854598975545 93.16214414595163 C-25.06215138509956 55.905858968962534, 7.32424321955633 18.649573791973438, 37.6800132138681 -16.270744986350305 M-51.80547155290233 92.76754194102259 C-17.407460010932887 53.19715619191729, 16.99055153103656 13.626770442811988, 42.66702862173071 -15.910637611056591 M-51.80547155290233 92.76754194102259 C-18.445453705043874 54.391231344517195, 14.914564142814584 16.014920748011804, 42.66702862173071 -15.910637611056591 M-48.78663323201124 95.3917780569846 C-27.198803688265276 70.55782096938691, -5.610974144519311 45.72386388178921, 47.65404402959332 -15.550530235762878 M-48.78663323201124 95.3917780569846 C-17.944399072065913 59.91184627127088, 12.897835087879415 24.431914485557158, 47.65404402959332 -15.550530235762878 M-52.328385201025235 105.56310997517436 C-12.493912757463896 59.7387913577855, 27.340559686097443 13.914472740396647, 51.985000408465424 -14.435713280246393 M-52.328385201025235 105.56310997517436 C-29.793901775463304 79.64015216936244, -7.259418349901374 53.717194363550526, 51.985000408465424 -14.435713280246393 M-54.558019112058204 114.22502273291856 C-22.847034724607745 77.74570813171687, 8.863949662842714 41.26639353051519, 56.31595678733753 -13.320896324729905 M-54.558019112058204 114.22502273291856 C-30.616446523748806 86.68339400813889, -6.6748739354394075 59.141765283359234, 56.31595678733753 -13.320896324729905 M-54.16341690712915 119.86809716977169 C-23.716627653985196 84.84307271163873, 6.730161599158755 49.818048253505765, 58.67873607923811 -9.941950628545108 M-54.16341690712915 119.86809716977169 C-12.00960775378094 71.3756868757361, 30.144201399567265 22.8832765817005, 58.67873607923811 -9.941950628545108 M-53.768814702200075 125.5111716066248 C-10.889997671763126 76.18473515579994, 31.988819358673823 26.858298704975084, 61.6975744001292 -7.3177145125830805 M-53.768814702200075 125.5111716066248 C-18.657548806975683 85.12028058322215, 16.45371708824871 44.72938955981951, 61.6975744001292 -7.3177145125830805 M-51.4060354102995 128.89011730280959 C-11.464422038614941 82.94254714658743, 28.47719133306962 36.99497699036529, 62.092176605058256 -1.6746400757299575 M-51.4060354102995 128.89011730280959 C-21.324661427818384 94.28545502756327, 8.756712554662734 59.68079275231695, 62.092176605058256 -1.6746400757299575 M-49.69931514738943 133.02377257921717 C-14.797329335311176 92.87363075172644, 20.104656476767076 52.723488924235696, 61.1746607520063 5.477853521568704 M-49.69931514738943 133.02377257921717 C-23.353910454827528 102.71685134544182, 2.991494237734372 72.40993011166648, 61.1746607520063 5.477853521568704 M-47.33653585548885 136.40271827540198 C-10.986869694837331 94.58721071115787, 25.362796465814185 52.77170314691374, 64.8495581018879 7.347380057307959 M-47.33653585548885 136.40271827540198 C-24.015270141562013 109.57467098169403, -0.6940044276351784 82.74662368798607, 64.8495581018879 7.347380057307959 M-44.973756563588275 139.78166397158677 C-18.773426355182863 109.64163184107893, 7.426903853222548 79.5015997105711, 72.46080962571253 4.688649111710582 M-44.973756563588275 139.78166397158677 C-15.846455906404543 106.27453750793485, 13.280844750779188 72.76741104428294, 72.46080962571253 4.688649111710582 M-41.95491824269719 142.4059000875488 C-11.979182388746427 107.92276057796175, 17.996553465204336 73.4396210683747, 76.13570697559413 6.558175647449836 M-41.95491824269719 142.4059000875488 C5.003423197141274 88.38650763966149, 51.96176463697974 34.367115191774204, 76.13570697559413 6.558175647449836 M-38.9360799218061 145.03013620351084 C-6.2850675832992735 107.46944314550922, 26.36594475520755 69.90875008750758, 79.81060432547572 8.427702183189098 M-38.9360799218061 145.03013620351084 C2.024889297380895 97.9099312846059, 42.98585851656789 50.78972636570096, 79.81060432547572 8.427702183189098 M-35.91724160091501 147.65437231947286 C9.573662238371973 95.32307372682817, 55.06456607765896 42.9917751341835, 83.48550167535731 10.29722871892836 M-35.91724160091501 147.65437231947286 C0.8611134936651652 105.34571454911196, 37.63946858824534 63.037056778751065, 83.48550167535731 10.29722871892836 M-32.24234425103341 149.5238988552121 C6.07401889378756 105.44596521380262, 44.39038203860853 61.368031572393136, 87.16039902523892 12.166755254667613 M-32.24234425103341 149.5238988552121 C5.501113775105644 106.1050171626695, 43.244571801244696 62.6861354701269, 87.16039902523892 12.166755254667613 M-27.911387872161313 150.6387158107286 C9.723946172432498 107.34421653061858, 47.35928021702631 64.04971725050855, 90.8352963751205 14.036281790406868 M-27.911387872161313 150.6387158107286 C6.6207319383658145 110.91405614632744, 41.15285174889294 71.18939648192628, 90.8352963751205 14.036281790406868 M-22.268313435308187 150.24411360579955 C10.818277977624248 112.18234414173214, 43.904869390556684 74.12057467766473, 94.51019372500211 15.90580832614613 M-22.268313435308187 150.24411360579955 C15.961835544859731 106.26535801566189, 54.19198452502765 62.28660242552422, 94.51019372500211 15.90580832614613 M-15.969179969464562 149.09480182064772 C11.842306310461325 117.10134664636041, 39.65379259038721 85.1078914720731, 97.5290320458932 18.530044442108156 M-15.969179969464562 149.09480182064772 C26.698770575360832 100.01093951301212, 69.36672112018623 50.927077205376534, 97.5290320458932 18.530044442108156 M-10.32610553261145 148.70019961571865 C-2.8410839865432918 140.08966730175328, 4.643937559524867 131.47913498778792, 10.667783395084783 124.54949304858994 M-10.32610553261145 148.70019961571865 C-3.5502978940900647 140.90552457495684, 3.2255097444313208 133.11084953419504, 10.667783395084783 124.54949304858994 M10.667783395084783 124.54949304858994 C39.47567341109917 91.40980649546944, 68.28356342711356 58.27011994234894, 100.54787036678428 21.154280558070184 M10.667783395084783 124.54949304858994 C35.06719256475478 96.48118358494297, 59.46660173442478 68.412874121296, 100.54787036678428 21.154280558070184 M-4.026972066767826 147.5508878305668 C-1.0439107923424826 144.11926838366347, 1.9391504820828604 140.6876489367601, 10.406326571023335 130.94727706566584 M-4.026972066767826 147.5508878305668 C-0.7887742678703584 143.82576738638255, 2.449423531027109 140.1006469421983, 10.406326571023335 130.94727706566584 M12.374503657994858 128.68314832499752 C36.329019290987034 101.12663033052154, 60.28353492397921 73.57011233604555, 100.94247257171334 26.797354994923296 M12.374503657994858 128.68314832499752 C44.57606973537402 91.63948404654076, 76.77763581275318 54.595819768084, 100.94247257171334 26.797354994923296 M14.737282949895445 132.06209402118233 C42.54463530988285 100.07339437779024, 70.35198766987025 68.08469473439814, 89.52801225481328 46.02520187578632 M14.737282949895445 132.06209402118233 C39.60005118875849 103.46075092313635, 64.46281942762154 74.85940782509036, 89.52801225481328 46.02520187578632 M18.412180299777027 133.9316205569216 C47.35274391948738 100.6393104816371, 76.29330753919774 67.34700040635259, 91.89079154671384 49.40414757197111 M18.412180299777027 133.9316205569216 C41.6743135958087 107.17159732860281, 64.93644689184038 80.41157410028404, 91.89079154671384 49.40414757197111 M21.43101862066812 136.5558566728836 C41.01231781676894 114.03014870534707, 60.59361701286976 91.50444073781054, 96.22174792558596 50.5189645274876 M21.43101862066812 136.5558566728836 C45.76387481791444 108.5641076461195, 70.09673101516076 80.57235861935538, 96.22174792558596 50.5189645274876 M26.418034028530734 136.91596404817733 C53.222264857553746 106.08122372260985, 80.02649568657677 75.24648339704237, 100.55270430445806 51.63378148300409 M26.418034028530734 136.91596404817733 C46.64999923332674 113.64175046058526, 66.88196443812275 90.3675368729932, 100.55270430445806 51.63378148300409 M31.405049436393348 137.27607142347102 C57.51218219132722 107.2432506990703, 83.61931494626108 77.21042997466958, 104.22760165433965 53.50330801874334 M31.405049436393348 137.27607142347102 C50.30937578192362 115.5291316357772, 69.2137021274539 93.78219184808339, 104.22760165433965 53.50330801874334 M37.04812387324645 136.88146921854198 C45.561751967405804 127.08766042819185, 54.075380061565156 117.29385163784173, 76.4116656126769 91.59889440517566 M37.04812387324645 136.88146921854198 C47.01145100717188 125.41997245286632, 56.9747781410973 113.95847568719066, 76.4116656126769 91.59889440517566 M79.03590172863892 88.58005608428456 C85.11614368303037 81.58553783169292, 91.19638563742183 74.59101957910127, 107.24643997523074 56.127544134705374 M79.03590172863892 88.58005608428456 C89.46804065054899 76.5792530487786, 99.90017957245904 64.57845001327263, 107.24643997523074 56.127544134705374 M42.03513928110907 137.2415765938357 C55.725143645111245 121.49302807876985, 69.41514800911341 105.744479563704, 78.77444490457748 94.97784010136047 M42.03513928110907 137.2415765938357 C55.109634961067414 122.20108982326406, 68.18413064102576 107.16060305269241, 78.77444490457748 94.97784010136047 M87.95927131044458 84.41190597824166 C93.04571100092596 78.56062645307686, 98.13215069140735 72.70934692791208, 107.6410421801598 61.7706185715585 M87.95927131044458 84.41190597824166 C93.24765062746091 78.32832148654505, 98.53602994447725 72.24473699484844, 107.6410421801598 61.7706185715585 M47.678213717962194 136.84697438890663 C49.814339669122 134.38964258084746, 51.9504656202818 131.9323107727883, 57.5190991528198 125.52633068556506 M47.678213717962194 136.84697438890663 C51.201248357464614 132.7941866420778, 54.724282996967034 128.74139889524895, 57.5190991528198 125.52633068556506 M58.831217210800816 124.0169115251195 C68.16767600903293 113.27654428831265, 77.50413480726503 102.5361770515058, 83.10540128344958 96.09265705687694 M58.831217210800816 124.0169115251195 C67.25821737534507 114.32275676818155, 75.68521753988932 104.62860201124359, 83.10540128344958 96.09265705687694 M52.66522912582479 137.20708176420032 C54.48355495675227 135.11533717426747, 56.30188078767976 133.02359258433458, 58.569760386739354 130.41469554219537 M52.66522912582479 137.20708176420032 C54.52176143346454 135.07138565050644, 56.378293741104294 132.93568953681256, 58.569760386739354 130.41469554219537 M64.47429164765393 123.62230932019044 C72.58009239949737 114.29765222004143, 80.68589315134082 104.9729951198924, 86.78029863333117 97.96218359261619 M64.47429164765393 123.62230932019044 C72.82084128441102 114.02070230876309, 81.16739092116809 104.41909529733574, 86.78029863333117 97.96218359261619 M70.11736608450703 123.22770711526138 C78.00086057734299 114.15878411220207, 85.88435507017896 105.08986110914276, 91.11125501220326 99.07700054813267 M70.11736608450703 123.22770711526138 C77.63747239610349 114.5768143954575, 85.15757870769994 105.92592167565363, 91.11125501220326 99.07700054813267 M75.10438149236964 123.58781449055509 C79.28290969385716 118.78096765888182, 83.46143789534469 113.97412082720854, 92.81797527511334 103.21065582454024 M75.10438149236964 123.58781449055509 C80.36334223412105 117.5380721984287, 85.62230297587247 111.48832990630231, 92.81797527511334 103.21065582454024 M80.09139690023225 123.9479218658488 C84.52552505869859 118.84704091878005, 88.95965321716494 113.74615997171131, 93.86863650903291 108.0990206811706 M80.09139690023225 123.9479218658488 C84.2317327633629 119.18501029361917, 88.37206862649356 114.42209872138956, 93.86863650903291 108.0990206811706 M85.73447133708538 123.55331966091975 C88.62926175545896 120.2232442180967, 91.52405217383254 116.89316877527365, 94.91929774295248 112.98738553780095 M85.73447133708538 123.55331966091975 C87.94357361327735 121.0120381940685, 90.15267588946931 118.47075672721724, 94.91929774295248 112.98738553780095" stroke="#ced4da" stroke-width="0.5" fill="none"></path><path d="M14.253947075073151 3.077007681383262 C13.374980138659364 1.9120092880890043, 11.77011174816241 -1.9208122341093554, 8.980145456590428 -3.9129826783822836 C6.190179165018446 -5.905153122655212, 2.812688799854153 -8.514223844200083, -2.485850674358746 -8.876014984254306 C-7.784390148571645 -9.237806124308529, -17.5713043218333 -8.167893863977238, -22.811091388686965 -6.083729518707616 C-28.05087845554063 -3.9995651734379947, -31.908437833469183 1.0229925977848295, -33.924573075480744 3.628971087363425 C-35.9407083174923 6.23494957694202, -35.667818846468506 8.435845678938536, -34.90790284075633 9.552141418763958 C-34.14798683504415 10.668437158589379, -26.249653335185215 9.77942046828521, -29.365077041207687 10.326745526315953 C-32.48050074723016 10.874070584346697, -47.70587789117868 10.722551217999186, -53.60044507689116 12.836091766948424 C-59.495012262603645 14.949632315897663, -62.22390697284165 19.336736418050908, -64.73248015548256 23.007988820011384 C-67.24105333812348 26.67924122197186, -68.64724582478726 30.513608860153344, -68.65188417273667 34.86360617871128 C-68.65652252068608 39.21360349726922, -67.20549267051132 45.5464945642013, -64.76031024317905 49.107972731359 C-62.31512781584677 52.66945089851669, -56.5620302425914 54.8912195662855, -53.98078960874301 56.232475181657435 C-51.39954897489462 57.57373079702937, -47.85971643150086 56.0562179595797, -49.27286644008872 57.15550642359061 C-50.68601644867658 58.25479488760152, -58.55110845489807 60.243873099908235, -62.45968966027018 62.828205965722915 C-66.36827086564229 65.41253883153759, -70.45852069903309 69.2909707752385, -72.72435367232139 72.66150361847868 C-74.99018664560968 76.03203646171885, -75.71222280973501 79.59351462887646, -76.0546875 83.0514030251639 C-76.39715219026499 86.50929142145135, -78.78280915224641 91.8797252888802, -74.77914181391134 93.40883399620337 C-70.77547447557626 94.93794270352655, -55.220001569227904 90.57325728312878, -52.032683469989536 92.22605526910299 C-48.84536537075117 93.87885325507719, -55.13264601618059 98.06032393147314, -55.65523321848113 103.3256219120486 C-56.17782042078167 108.59091989262407, -56.674123651368895 118.02377350574731, -55.168206683792775 123.81784315255584 C-53.662289716216655 129.61191279936435, -49.56972070885114 134.33065877990043, -46.61973141302441 138.09003979289974 C-43.66974211719768 141.84942080589906, -40.411302682735 144.49637136903095, -37.46827090883239 146.37412923055172 C-34.52523913492978 148.25188709207248, -34.394592334354634 149.23521685734795, -28.961540769608753 149.35658696202424 C-23.528489204862872 149.47795706670053, -10.46844749529871 148.36011521089196, -4.8699615203570925 147.10234985860944 C0.7285244545845249 145.84458450632692, 2.3248892071742095 143.6583765061702, 4.62937508004095 141.8099948483291 C6.9338609529076916 139.96161319048798, 8.165342333476847 139.03780889056318, 8.956953716843353 136.01205991156272 C9.74856510020986 132.98631093256225, 8.799249886563342 124.60481618797286, 9.379043380239983 123.65550097432632 C9.958836873916624 122.70618576067977, 10.085618384533891 128.3835236507613, 12.435714678903196 130.31616862968343 C14.7858109732725 132.24881360860556, 16.597858905509902 134.29973646023774, 23.479621146455813 135.25137084785902 C30.361383387401723 136.2030052354803, 47.97860195726425 136.46507189462216, 53.72628812457865 136.02597495541104 C59.47397429189305 135.58687801619993, 57.3086388575087 134.8354656483949, 57.96573815034222 132.61678921259227 C58.62283744317574 130.39811277678965, 53.22921183599986 124.45716211158312, 57.66888388157977 122.71391634059538 C62.10855592715967 120.97067056960763, 78.74708307969605 123.05947326282667, 84.60377042382166 122.15731458666582 C90.46045776794726 121.25515591050497, 91.37112008201538 119.87138210559674, 92.80900794633342 117.3009642836303 C94.24689581065147 114.73054646166385, 93.89128913452977 110.00948130715284, 93.23109760972996 106.73480765486718 C92.57090608493014 103.46013400258153, 91.92849489393636 100.41042022584246, 88.84785879753453 97.65292236991638 C85.7672227011327 94.8954245139903, 73.78946217976511 93.24030735404143, 74.74728103131893 90.18982051931074 C75.70509988287276 87.13933368458005, 89.56912190366835 83.2895048865671, 94.59477190685743 79.35000136153225 C99.62042191004652 75.4104978364974, 103.09145229219078 70.44282718267606, 104.90118105045346 66.5527993691016 C106.71090980871614 62.66277155552716, 105.94480933907131 58.57638701209415, 105.4531444564335 56.00983448008556 C104.9614795737957 53.443281948076965, 104.89731576049547 52.973262689203125, 101.95119175462659 51.15348417705006 C99.00506774875771 49.333705664896996, 88.32759076920874 47.8579379589921, 87.77640042122017 45.09116340716717 C87.22521007323161 42.32438885534224, 96.74232700743579 38.07256990171347, 98.64404966669518 34.55283686610049 C100.54577232595457 31.033103830487512, 99.9025880769693 27.156218002769798, 99.18673637677655 23.972765193489288 C98.47088467658381 20.789312384208777, 98.90070491989613 18.726793662703088, 94.34893946553872 15.452120010417435 C89.79717401118131 12.177446358131784, 77.49704830732921 6.110487240299425, 71.87614365063207 4.324723279775378 C66.25523899393494 2.5389593192513304, 62.72622926242321 7.05207187403029, 60.62351152535595 4.737536247273153 C58.52079378828869 2.423000620516015, 61.02318250699705 -6.036572981221923, 59.259837228228506 -9.562490480767448 C57.49649194945996 -13.088407980312972, 54.769916413196626 -15.447780970581093, 50.043439852744676 -16.41796875 C45.316963292292726 -17.388156529418907, 37.06688840626995 -17.572917389403873, 30.900977865516793 -15.38361715728089 C24.735067324763634 -13.194316925157906, 16.58317080367007 -6.296320466389048, 13.04797660822571 -3.2821673572621 C9.512782412781352 -0.26801424813515196, 9.488817615042734 1.6414389910399068, 9.68981269285064 2.7013014974808005 C9.890807770658547 3.761164003921694, 13.493258011369399 3.014389984066185, 14.253947075073151 3.077007681383262" stroke="#000000" stroke-width="1.5" fill="none" stroke-dasharray="12 8"></path></g></g><g transform="translate(387.4203239920448 190.8049183126546) rotate(0 29.091718338718977 14.842713438121905)"><text x="0" y="20.68542687624383" font-family="Virgil, Segoe UI Emoji" font-size="23.74834150099508px" fill="#000000" text-anchor="start" style="white-space: pre;" direction="ltr">WWW</text></g><g transform="translate(585.80078125 247.63671875) rotate(0 124.443359375 100.58789062499997)"><path d="M0 0 C0 0, 0 0, 0 0 M0 0 C0 0, 0 0, 0 0 M-0.2614568240614483 6.397784017075889 C0.8460748800777877 5.123714534638466, 1.9536065842170238 3.8496450522010424, 4.98701540786261 0.36010737529371317 M-0.2614568240614483 6.397784017075889 C1.3644399084244692 4.527403782620221, 2.9903366409103866 2.6570235481645517, 4.98701540786261 0.36010737529371317 M0.13314538086761107 12.040858453929006 C3.3279505448921283 8.365655526008666, 6.5227557089166455 4.690452598088326, 10.630089844715727 -0.03449482963534578 M0.13314538086761107 12.040858453929006 C3.4383303906253917 8.238678038683192, 6.743515400383172 4.4364976234373765, 10.630089844715727 -0.03449482963534578 M-0.12831144319383903 18.438642471004897 C5.495711865534791 11.96894373516891, 11.119735174263422 5.499244999332923, 15.617105252578337 0.32561254565836695 M-0.12831144319383903 18.438642471004897 C4.900509252120569 12.653646017536012, 9.929329947434978 6.868649564067125, 15.617105252578337 0.32561254565836695 M0.26629076173522215 24.081716907858013 C7.181246218493546 16.12697061306271, 14.09620167525187 8.172224318267409, 21.260179689431453 -0.06898965927069156 M0.26629076173522215 24.081716907858013 C4.871436845969955 18.784102341916835, 9.476582930204687 13.486487775975656, 21.260179689431453 -0.06898965927069156 M0.004833937673772937 30.4795009249339 C7.617466774979567 21.722168613124083, 15.230099612285361 12.96483630131426, 26.247195097294064 0.29111771602302206 M0.004833937673772937 30.4795009249339 C9.76337491844605 19.25358368008195, 19.521915899218328 8.027666435229996, 26.247195097294064 0.29111771602302206 M-0.25662288638767805 36.877284942009794 C7.848155586950973 27.55380383875608, 15.952934060289625 18.230322735502373, 31.89026953414718 -0.10348448890603734 M-0.25662288638767805 36.877284942009794 C6.51451489854962 29.087981953277477, 13.285652683486918 21.298678964545164, 31.89026953414718 -0.10348448890603734 M0.13797931854138312 42.520359378862906 C11.390916935919075 29.57533545540275, 22.643854553296766 16.630311531942592, 36.877284942009794 0.25662288638767805 M0.13797931854138312 42.520359378862906 C13.425844190899237 27.2344194302806, 26.71370906325709 11.948479481698293, 36.877284942009794 0.25662288638767805 M-0.12347750552006431 48.9181433959388 C10.786726416856109 36.36738948729851, 21.69693033923228 23.816635578658218, 42.520359378862906 -0.13797931854138312 M-0.12347750552006431 48.9181433959388 C10.918480064755903 36.215824253218464, 21.96043763503187 23.51350511049813, 42.520359378862906 -0.13797931854138312 M0.2711246994089933 54.56121783279191 C16.840940856331333 35.49982481240821, 33.41075701325367 16.43843179202451, 47.50737478672552 0.22212805675232872 M0.2711246994089933 54.56121783279191 C12.545776027904312 40.4408467348375, 24.82042735639963 26.320475636883092, 47.50737478672552 0.22212805675232872 M0.009667875347545873 60.9590018498678 C17.135702148281624 41.25775308130021, 34.2617364212157 21.556504312732606, 53.15044922357863 -0.1724741481767289 M0.009667875347545873 60.9590018498678 C13.88302640938718 44.999528490258626, 27.756384943426813 29.040055130649453, 53.15044922357863 -0.1724741481767289 M-0.25178894871390156 67.3567858669437 C18.25793176065923 46.063787936396395, 36.76765247003236 24.770790005849086, 58.13746463144125 0.1876332271169865 M-0.25178894871390156 67.3567858669437 C12.242083632302062 52.98422956589812, 24.735956213318026 38.61167326485254, 58.13746463144125 0.1876332271169865 M0.14281325621515606 72.99986030379681 C21.242792282112262 48.72711103937884, 42.34277130800937 24.45436177496088, 63.78053906829436 -0.20696897781207468 M0.14281325621515606 72.99986030379681 C21.804853597363465 48.08053345939277, 43.466893938511774 23.16120661498873, 63.78053906829436 -0.20696897781207468 M-0.11864356784629138 79.3976443208727 C23.772494615087037 51.91403374267463, 47.663632798020366 24.430423164476572, 68.76755447615697 0.1531383974816336 M-0.11864356784629138 79.3976443208727 C16.9776818400512 59.73057169205758, 34.07400724794869 40.06349906324246, 68.76755447615697 0.1531383974816336 M0.27595863708276624 85.04071875772581 C27.134627181308357 54.14335500442799, 53.99329572553395 23.245991251130164, 74.41062891301009 -0.2414638074474169 M0.27595863708276624 85.04071875772581 C25.989253442357505 55.46095676817765, 51.702548247632244 25.8811947786295, 74.41062891301009 -0.2414638074474169 M0.01450181302131881 91.4385027748017 C26.253646503938604 61.25381968986957, 52.49279119485589 31.06913660493744, 79.3976443208727 0.11864356784629138 M0.01450181302131881 91.4385027748017 C28.845223988361248 58.272550826924466, 57.67594616370118 25.106598879047226, 79.3976443208727 0.11864356784629138 M-0.24695501104012862 97.8362867918776 C33.142997493705 59.425540311808774, 66.53294999845014 21.01479383173995, 85.04071875772581 -0.27595863708276624 M-0.24695501104012862 97.8362867918776 C30.192718321854617 62.819448263587624, 60.63239165474936 27.80260973529765, 85.04071875772581 -0.27595863708276624 M0.147647193888929 103.47936122873071 C18.744154515747237 82.08652672101073, 37.340661837605545 60.69369221329073, 90.02773416558841 0.08414873821094204 M0.147647193888929 103.47936122873071 C21.38207821982298 79.05194263118256, 42.61650924575703 54.624524033634415, 90.02773416558841 0.08414873821094204 M-0.11380963017251844 109.87714524580659 C37.68614140954304 66.39327577521686, 75.48609244925859 22.90940630462714, 95.67080860244155 -0.3104534667181156 M-0.11380963017251844 109.87714524580659 C35.674045058217004 68.707927850067, 71.46189974660652 27.5387104543274, 95.67080860244155 -0.3104534667181156 M0.2807925747565392 115.52021968265971 C26.689951217780536 85.13995791843725, 53.09910986080453 54.75969615421477, 100.65782401030415 0.049653908575599814 M0.2807925747565392 115.52021968265971 C32.523956925842256 78.428702064336, 64.76712127692798 41.33718444601229, 100.65782401030415 0.049653908575599814 M0.019335750695091747 121.9180036997356 C26.122904898801778 91.88928243604462, 52.226474046908464 61.86056117235365, 106.30089844715727 -0.3449482963534578 M0.019335750695091747 121.9180036997356 C24.10566650810085 94.20984975054033, 48.19199726550661 66.50169580134505, 106.30089844715727 -0.3449482963534578 M-0.2421210733663557 128.31578771681149 C25.939150228953007 98.19768034974123, 52.12042153127237 68.07957298267098, 111.28791385501988 0.015159078940250481 M-0.2421210733663557 128.31578771681149 C38.624186382567224 83.60521551416713, 77.49049383850081 38.89464331152277, 111.28791385501988 0.015159078940250481 M0.15248113156270904 133.9588621536646 C25.322636425291282 105.0039106989126, 50.492791719019856 76.04895924416061, 116.2749292628825 0.375266454233973 M0.15248113156270904 133.9588621536646 C31.747086663371302 97.61342611126184, 63.341692195179895 61.267990068859106, 116.2749292628825 0.375266454233973 M-0.1089756924987455 140.3566461707405 C25.016552100012227 111.45303278348244, 50.1420798925232 82.54941939622438, 121.9180036997356 -0.019335750695091747 M-0.1089756924987455 140.3566461707405 C27.346840114002042 108.77234307246277, 54.80265592050283 77.18803997418505, 121.9180036997356 -0.019335750695091747 M0.2856265124303121 145.99972060759362 C35.59395727905602 105.38213238195783, 70.90228804568173 64.76454415632205, 126.9050191075982 0.34077162459862365 M0.2856265124303121 145.99972060759362 C37.35032064702045 103.36166745185126, 74.4150147816106 60.723614296108906, 126.9050191075982 0.34077162459862365 M0.02416968836887179 152.39750462466952 C40.98199500475803 105.28091635221855, 81.9398203211472 58.1643280797676, 132.54809354445132 -0.05383058033042687 M0.02416968836887179 152.39750462466952 C44.325083218873516 101.4351332881472, 88.62599674937816 50.472761951624875, 132.54809354445132 -0.05383058033042687 M-0.23728713569258275 158.7952886417454 C27.471199004817414 126.9203215737815, 55.17968514532741 95.04535450581758, 137.53510895231395 0.3062767949632672 M-0.23728713569258275 158.7952886417454 C54.57750348284163 95.73808526574905, 109.39229410137584 32.6808818897527, 137.53510895231395 0.3062767949632672 M0.15731506923647487 164.4383630785985 C32.3590819626353 127.39446778773707, 64.56084885603413 90.35057249687563, 143.17818338916706 -0.0883254099657762 M0.15731506923647487 164.4383630785985 C33.97182781644309 125.53921590863992, 67.7863405636497 86.64006873868132, 143.17818338916706 -0.0883254099657762 M-0.10414175482497967 170.8361470956744 C37.140821543743485 127.99071798889523, 74.38578484231195 85.14528888211606, 148.16519879702966 0.2717819653279321 M-0.10414175482497967 170.8361470956744 C47.84068544642427 115.68193259368677, 95.78551264767351 60.52771809169914, 148.16519879702966 0.2717819653279321 M0.29046045010409216 176.4792215325275 C43.82119232963768 126.40284283510363, 87.35192420917127 76.32646413767975, 153.8082732338828 -0.12282023960112554 M0.29046045010409216 176.4792215325275 C56.796806851472034 111.47610582490724, 113.30315325283998 46.47299011728697, 153.8082732338828 -0.12282023960112554 M0.02900362604263762 182.8770055496034 C46.89418218036955 128.96478474193415, 93.75936073469646 75.05256393426488, 158.7952886417454 0.23728713569258275 M0.02900362604263762 182.8770055496034 C52.6833184064224 122.30514532238428, 105.33763318680217 61.73328509516513, 158.7952886417454 0.23728713569258275 M-0.23245319801881692 189.2747895666793 C59.38979074630545 120.68724376550449, 119.01203469062972 52.09969796432969, 164.4383630785985 -0.15731506923647487 M-0.23245319801881692 189.2747895666793 C56.15622323362564 124.40703767470757, 112.5448996652701 59.539285782735845, 164.4383630785985 -0.15731506923647487 M0.1621490069102549 194.91786400353243 C50.534970764221356 136.97056127134664, 100.90779252153246 79.02325853916082, 169.4253784864611 0.20279230605723342 M0.1621490069102549 194.91786400353243 C52.92234736472341 134.22419865399038, 105.68254572253656 73.53053330444833, 169.4253784864611 0.20279230605723342 M-0.09930781715119963 201.3156480206083 C67.68054471023721 123.34384702700159, 135.4603972376256 45.37204603339487, 175.06845292331423 -0.19180989887181 M-0.09930781715119963 201.3156480206083 C43.564564338304045 151.08610895603547, 87.22843649375929 100.85656989146263, 175.06845292331423 -0.19180989887181 M5.543766619701913 200.92104581567924 C44.182934843378575 156.47176740986367, 82.82210306705524 112.0224890040481, 180.05546833117683 0.16829747642188408 M5.543766619701913 200.92104581567924 C54.2481972802354 144.8930074921152, 102.95262794076889 88.8649691685512, 180.05546833117683 0.16829747642188408 M10.530782027564527 201.28115319097296 C51.3198603110206 154.35868617402053, 92.10893859447667 107.4362191570681, 185.69854276802997 -0.22630472850715933 M10.530782027564527 201.28115319097296 C72.70102400617643 129.76247094949244, 134.87126598478835 58.24378870801192, 185.69854276802997 -0.22630472850715933 M16.17385646441764 200.88655098604391 C73.41761425394537 135.03514051435963, 130.66137204347314 69.18373004267534, 190.6855581758926 0.13380264678653475 M16.17385646441764 200.88655098604391 C64.32428903690938 145.49581456062398, 112.47472160940112 90.10507813520404, 190.6855581758926 0.13380264678653475 M21.160871872280254 201.2466583613376 C60.21164159066371 156.3238865996464, 99.26241130904717 111.40111483795519, 196.3286326127457 -0.26079955814250866 M21.160871872280254 201.2466583613376 C56.593184754918326 160.4864450263808, 92.0254976375564 119.72623169142398, 196.3286326127457 -0.26079955814250866 M26.803946309133366 200.85205615640857 C75.19038658225229 145.18982392832623, 123.57682685537121 89.5275917002439, 201.3156480206083 0.09930781715119963 M26.803946309133366 200.85205615640857 C74.07185324843786 146.4765493379699, 121.33976018774237 92.10104251953129, 201.3156480206083 0.09930781715119963 M31.79096171699598 201.21216353170226 C71.85692396773126 155.12154635354682, 111.92288621846656 109.03092917539135, 206.95872245746142 -0.295294387777858 M31.79096171699598 201.21216353170226 C86.23334261174855 138.5833685364862, 140.67572350650113 75.95457354127018, 206.95872245746142 -0.295294387777858 M37.43403615384911 200.81756132677322 C77.1223300069002 155.16140194171942, 116.8106238599513 109.50524255666565, 211.94573786532402 0.0648129875158503 M37.43403615384911 200.81756132677322 C82.6600846942707 148.79094390242838, 127.88613323469227 96.76432647808353, 211.94573786532402 0.0648129875158503 M42.42105156171171 201.1776687020669 C107.2749834197474 126.57175440851852, 172.1289152777831 51.96584011497012, 217.58881230217713 -0.3297892174131931 M42.42105156171171 201.1776687020669 C90.85731454511239 145.45812200211432, 139.29357752851308 89.73857530216175, 217.58881230217713 -0.3297892174131931 M47.40806696957432 201.53777607736063 C106.12570539234973 133.99085988917332, 164.84334381512514 66.44394370098601, 222.57582771003976 0.030318157880500962 M47.40806696957432 201.53777607736063 C110.92665370130885 128.46800062984562, 174.4452404330434 55.398225182330606, 222.57582771003976 0.030318157880500962 M53.05114140642743 201.1431738724316 C108.38590396486978 137.4878112041235, 163.72066652331216 73.8324485358154, 228.21890214689287 -0.36428404704854245 M53.05114140642743 201.1431738724316 C100.6960795753797 146.33394223887046, 148.34101774433196 91.52471060530937, 228.21890214689287 -0.36428404704854245 M58.03815681429005 201.50328124772528 C102.84055956651795 149.9640125539707, 147.64296231874584 98.42474386021611, 233.2059175547555 -0.00417667175483416 M58.03815681429005 201.50328124772528 C115.77283952793076 135.08712625302408, 173.50752224157145 68.67097125832288, 233.2059175547555 -0.00417667175483416 M63.681231251143174 201.1086790427962 C130.44412614971532 124.30675397686213, 197.20702104828746 47.50482891092804, 238.1929329626181 0.3559307035388741 M63.681231251143174 201.1086790427962 C124.13109114413949 131.56907000095686, 184.5809510371358 62.0294609591175, 238.1929329626181 0.3559307035388741 M68.66824665900579 201.46878641808996 C111.1806316265895 152.56388183576428, 153.69301659417323 103.6589772534386, 243.8360073994712 -0.038671501390183494 M68.66824665900579 201.46878641808996 C109.83735826957843 154.10914106793155, 151.0064698801511 106.74949571777312, 243.8360073994712 -0.038671501390183494 M74.31132109585887 201.0741842131609 C115.42075298376605 153.78319253050853, 156.53018487167324 106.49220084785614, 248.8230228073338 0.3214358739035248 M74.31132109585887 201.0741842131609 C131.1002842593319 135.74595511106386, 187.88924742280489 70.41772600896684, 248.8230228073338 0.3214358739035248 M79.29833650372149 201.43429158845458 C121.44079032294778 152.9549441120463, 163.58324414217407 104.47559663563801, 249.21762501226289 5.964510310756651 M79.29833650372149 201.43429158845458 C143.93491157720604 127.07841767294897, 208.5714866506906 52.72254375744336, 249.21762501226289 5.964510310756651 M84.94141094057461 201.0396893835255 C148.68357435324586 127.71271838566959, 212.42573776591712 54.385747387813666, 248.95616818820145 12.36229432783253 M84.94141094057461 201.0396893835255 C136.0045715348711 142.29824266299406, 187.0677321291676 83.5567959424626, 248.95616818820145 12.36229432783253 M89.92842634843723 201.39979675881926 C125.20474649215114 160.8190325424767, 160.48106663586503 120.23826832613409, 248.69471136414 18.760078344908436 M89.92842634843723 201.39979675881926 C152.44348148466028 129.48445235442875, 214.9585366208833 57.56910795003827, 248.69471136414 18.760078344908436 M95.57150078529034 201.0051945538902 C142.23440683887455 147.32566164072492, 188.89731289245876 93.64612872755966, 249.08931356906905 24.40315278176155 M95.57150078529034 201.0051945538902 C154.3651983761468 133.37078230166293, 213.15889596700328 65.73637004943569, 249.08931356906905 24.40315278176155 M100.55851619315297 201.3653019291839 C132.3065040115579 164.84341975005339, 164.05449182996287 128.32153757092289, 248.8278567450076 30.800936798837427 M100.55851619315297 201.3653019291839 C149.44580355171337 145.12691103716094, 198.3330909102738 88.88852014513802, 248.8278567450076 30.800936798837427 M106.20159063000608 200.97069972425487 C147.98527855588117 152.9040651971462, 189.76896648175628 104.83743067003752, 249.22245894993665 36.44401123569057 M106.20159063000608 200.97069972425487 C148.49899347354255 152.3131037855504, 190.79639631707906 103.65550784684591, 249.22245894993665 36.44401123569057 M111.18860603786867 201.33080709954857 C148.54613203044983 158.3558894257455, 185.90365802303103 115.38097175194243, 248.9610021258752 42.841795252766445 M111.18860603786867 201.33080709954857 C162.09071262480276 142.7746318209431, 212.99281921173687 84.21845654233768, 248.9610021258752 42.841795252766445 M116.8316804747218 200.9362048946195 C144.8238701500972 168.7348742431295, 172.81605982547262 136.5335435916395, 248.69954530181377 49.239579269842324 M116.8316804747218 200.9362048946195 C167.1511637581371 143.0502610576928, 217.4706470415524 85.16431722076615, 248.69954530181377 49.239579269842324 M121.81869588258441 201.29631226991324 C164.97234498004372 151.6537176918946, 208.12599407750304 102.01112311387598, 249.09414750674281 54.882653706695464 M121.81869588258441 201.29631226991324 C162.63996969079864 154.33680853842512, 203.46124349901288 107.37730480693698, 249.09414750674281 54.882653706695464 M127.46177031943753 200.90171006498417 C172.59031372702916 148.98725946498882, 217.71885713462075 97.07280886499345, 248.83269068268137 61.28043772377134 M127.46177031943753 200.90171006498417 C157.68784274422933 166.13059127312957, 187.91391516902112 131.35947248127496, 248.83269068268137 61.28043772377134 M132.44878572730013 201.26181744027787 C174.72812072316185 152.62500618272495, 217.00745571902354 103.98819492517201, 249.22729288761042 66.92351216062444 M132.44878572730013 201.26181744027787 C169.56341831439153 158.56631666647257, 206.6780509014829 115.87081589266728, 249.22729288761042 66.92351216062444 M138.09186016415327 200.8672152353488 C163.23032557374995 171.9487188221306, 188.36879098334666 143.0302224089124, 248.96583606354898 73.32129617770033 M138.09186016415327 200.8672152353488 C169.4882457915691 164.74980510864185, 200.88463141898495 128.63239498193488, 248.96583606354898 73.32129617770033 M143.07887557201587 201.22732261064255 C183.50974081589433 154.71693255747482, 223.9406060597728 108.20654250430707, 248.70437923948754 79.71908019477624 M143.07887557201587 201.22732261064255 C177.04767482670985 162.15068911680999, 211.01647408140386 123.07405562297745, 248.70437923948754 79.71908019477624 M148.72195000886896 200.83272040571347 C176.96451457417356 168.3433663908875, 205.20707913947814 135.85401237606152, 249.09898144441658 85.36215463162934 M148.72195000886896 200.83272040571347 C183.41573086363016 160.92209098334706, 218.1095117183914 121.01146156098065, 249.09898144441658 85.36215463162934 M153.7089654167316 201.19282778100717 C176.76157361275403 174.67383560825886, 199.81418180877645 148.15484343551051, 248.83752462035514 91.75993864870523 M153.7089654167316 201.19282778100717 C174.58834510769054 177.17384902215605, 195.46772479864947 153.1548702633049, 248.83752462035514 91.75993864870523 M158.6959808245942 201.5529351563009 C193.8724579867801 161.0870271515909, 229.04893514896597 120.62111914688089, 249.23212682528418 97.40301308555836 M158.6959808245942 201.5529351563009 C183.56040704133156 172.94968477288842, 208.42483325806893 144.34643438947595, 249.23212682528418 97.40301308555836 M164.3390552614473 201.15833295137185 C188.05622735794643 173.87484746293555, 211.77339945444555 146.59136197449928, 248.97067000122274 103.80079710263423 M164.3390552614473 201.15833295137185 C191.8847907349413 169.47058910899727, 219.4305262084353 137.7828452666227, 248.97067000122274 103.80079710263423 M169.32607066930993 201.51844032666554 C189.13107565852548 178.7353882822175, 208.936080647741 155.9523362377695, 248.7092131771613 110.19858111971013 M169.32607066930993 201.51844032666554 C199.88416756442956 166.3653710737215, 230.4422644595492 131.21230182077744, 248.7092131771613 110.19858111971013 M174.96914510616304 201.1238381217365 C192.3512393802067 181.12802601753947, 209.73333365425037 161.13221391334244, 249.10381538209037 115.84165555656327 M174.96914510616304 201.1238381217365 C195.736104237952 177.23418442247666, 216.50306336974091 153.34453072321682, 249.10381538209037 115.84165555656327 M179.95616051402567 201.4839454970302 C201.57958990122773 176.6090354742186, 223.2030192884298 151.73412545140695, 248.84235855802893 122.23943957363915 M179.95616051402567 201.4839454970302 C205.29903734461374 172.33030064302835, 230.6419141752018 143.17665578902654, 248.84235855802893 122.23943957363915 M185.59923495087875 201.08934329210115 C207.3258909023455 176.09568469097348, 229.0525468538122 151.10202608984582, 249.23696076295795 127.88251401049224 M185.59923495087875 201.08934329210115 C207.90682366882317 175.42739798969805, 230.2144123867676 149.76545268729495, 249.23696076295795 127.88251401049224 M190.58625035874138 201.44945066739487 C206.92932679227326 182.6488918614616, 223.2724032258051 163.84833305552831, 248.9755039388965 134.28029802756816 M190.58625035874138 201.44945066739487 C213.43876207483547 175.16064316355224, 236.29127379092955 148.87183565970963, 248.9755039388965 134.28029802756816 M196.2293247955945 201.0548484624658 C208.61122008606756 186.81110729878696, 220.99311537654063 172.56736613510813, 248.71404711483507 140.67808204464404 M196.2293247955945 201.0548484624658 C213.57035145778582 181.10627924150373, 230.91137811997712 161.15771002054163, 248.71404711483507 140.67808204464404 M201.2163402034571 201.4149558377595 C220.08771815698788 179.70591883929063, 238.95909611051863 157.9968818408218, 249.10864931976414 146.32115648149716 M201.2163402034571 201.4149558377595 C220.36676734649237 179.38490946762403, 239.51719448952764 157.35486309748853, 249.10864931976414 146.32115648149716 M206.85941464031023 201.02035363283042 C217.40888375261252 188.884577653084, 227.95835286491481 176.7488016733376, 248.8471924957027 152.71894049857303 M206.85941464031023 201.02035363283042 C216.93427049888123 189.43055774582487, 227.0091263574522 177.8407618588193, 248.8471924957027 152.71894049857303 M211.84643004817283 201.38046100812417 C224.98390854555188 186.26752079419396, 238.12138704293096 171.15458058026374, 249.24179470063177 158.36201493542615 M211.84643004817283 201.38046100812417 C219.86257325630882 192.1589431137253, 227.87871646444478 182.93742521932637, 249.24179470063177 158.36201493542615 M217.48950448502598 200.9858588031951 C227.53934613732187 189.42483846882013, 237.58918778961774 177.86381813444513, 248.9803378765703 164.75979895250205 M217.48950448502598 200.9858588031951 C224.60579865998676 192.7994988078293, 231.72209283494755 184.61313881246352, 248.9803378765703 164.75979895250205 M222.47651989288855 201.3459661784888 C232.8463756995125 189.41681167111128, 243.21623150613644 177.48765716373376, 248.71888105250883 171.15758296957793 M222.47651989288855 201.3459661784888 C228.57676531411406 194.32843656961634, 234.6770107353396 187.3109069607439, 248.71888105250883 171.15758296957793 M228.11959432974166 200.95136397355975 C233.78204875028257 194.43745530084055, 239.44450317082345 187.92354662812136, 249.1134832574379 176.80065740643107 M228.11959432974166 200.95136397355975 C233.61712174369217 194.6271821187197, 239.11464915764265 188.30300026387962, 249.1134832574379 176.80065740643107 M233.1066097376043 201.31147134885347 C236.53029574958197 197.37297112442988, 239.95398176155962 193.43447090000626, 248.85202643337647 183.19844142350695 M233.1066097376043 201.31147134885347 C238.275796336131 195.3650023948781, 243.44498293465773 189.41853344090273, 248.85202643337647 183.19844142350695 M238.7496841744574 200.9168691439244 C242.23037607496957 196.91279114630515, 245.71106797548174 192.9087131486859, 249.2466286383055 188.84151586036006 M238.7496841744574 200.9168691439244 C241.3479318195057 197.92792713892447, 243.94617946455398 194.93898513392452, 249.2466286383055 188.84151586036006 M243.73669958232003 201.27697651921812 C245.09327104384766 199.7164195677391, 246.4498425053753 198.15586261626007, 248.98517181424407 195.23929987743597 M243.73669958232003 201.27697651921812 C245.58725678363317 199.14815397907216, 247.4378139849463 197.0193314389262, 248.98517181424407 195.23929987743597" stroke="#ced4da" stroke-width="0.5" fill="none"></path><path d="M0 0 C64.55288128905704 0, 129.10576257811408 0, 248.88671874999997 0 M0 0 C54.306075050100844 0, 108.61215010020169 0, 248.88671874999997 0 M248.88671874999997 0 C248.88671874999997 67.36695566877133, 248.88671874999997 134.73391133754265, 248.88671874999997 201.17578124999994 M248.88671874999997 0 C248.88671874999997 45.10569508563966, 248.88671874999997 90.21139017127932, 248.88671874999997 201.17578124999994 M248.88671874999997 201.17578124999994 C197.4836766446078 201.17578124999994, 146.08063453921565 201.17578124999994, 0 201.17578124999994 M248.88671874999997 201.17578124999994 C169.7099085869722 201.17578124999994, 90.53309842394444 201.17578124999994, 0 201.17578124999994 M0 201.17578124999994 C0 140.1240653828823, 0 79.07234951576463, 0 0 M0 201.17578124999994 C0 155.87672751502356, 0 110.57767378004715, 0 0" stroke="#000000" stroke-width="1" fill="none"></path></g><g transform="translate(740.390625 214.04296875) rotate(0 45 12.5)"><text x="0" y="18" font-family="Virgil, Segoe UI Emoji" font-size="20px" fill="#000000" text-anchor="start" style="white-space: pre;" direction="ltr">Maconomy</text></g><g transform="translate(611.625 330.28515625) rotate(0 103 12.5)"><text x="0" y="18" font-family="Virgil, Segoe UI Emoji" font-size="20px" fill="#000000" text-anchor="start" style="white-space: pre;" direction="ltr">Extension Framework</text></g><g transform="translate(647.96875 263.70703125) rotate(0 51.5 12.5)"><text x="0" y="18" font-family="Virgil, Segoe UI Emoji" font-size="20px" fill="#000000" text-anchor="start" style="white-space: pre;" direction="ltr">REST API</text></g><g><g transform="translate(585.25390625 311.09765625) rotate(0 123.830078125 -0.474609375)"><path d="M0 0 C41.276692708333336 -0.158203125, 206.38346354166666 -0.791015625, 247.66015625 -0.94921875" stroke="#000000" stroke-width="1.5" fill="none" stroke-dasharray="12 8"></path></g></g><g transform="translate(609.728515625 395.984375) rotate(0 102.5 12.5)"><text x="0" y="18" font-family="Virgil, Segoe UI Emoji" font-size="20px" fill="#000000" text-anchor="start" style="white-space: pre;" direction="ltr">JSON Configurations</text></g><g><g transform="translate(584.7265625 377.919921875) rotate(0 123.830078125 -0.474609375)"><path d="M0 0 C41.276692708333336 -0.158203125, 206.38346354166666 -0.791015625, 247.66015625 -0.94921875" stroke="#000000" stroke-width="1.5" fill="none" stroke-dasharray="12 8"></path></g></g><g><g transform="translate(834.7314453125 67.16796875) rotate(0 24.572265625 3.626953125)"><path d="M0 0 C8.190755208333334 1.208984375, 40.953776041666664 6.044921875, 49.14453125 7.25390625 M0 0 C8.190755208333334 1.208984375, 40.953776041666664 6.044921875, 49.14453125 7.25390625" stroke="#000000" stroke-width="1" fill="none"></path></g></g><g><g transform="translate(884.5595703125 73.7265625) rotate(0 4.02734375 91.40234375)"><path d="M0 0 C1.3424479166666667 30.467447916666668, 6.712239583333333 152.33723958333334, 8.0546875 182.8046875 M0 0 C1.3424479166666667 30.467447916666668, 6.712239583333333 152.33723958333334, 8.0546875 182.8046875" stroke="#000000" stroke-width="1" fill="none"></path></g></g><g><g transform="translate(892.5947265625 255.12890625) rotate(0 -24.62109375 12.283203125)"><path d="M0 0 C-8.20703125 4.094401041666667, -41.03515625 20.472005208333332, -49.2421875 24.56640625 M0 0 C-8.20703125 4.094401041666667, -41.03515625 20.472005208333332, -49.2421875 24.56640625" stroke="#000000" stroke-width="1" fill="none"></path></g><g transform="translate(892.5947265625 255.12890625) rotate(0 -24.62109375 12.283203125)"><path d="M-30.30703028075775 4.6030609006133645 C-36.57561078118745 11.212028332546677, -42.84419128161715 17.82099576447999, -49.2421875 24.56640625 M-30.30703028075775 4.6030609006133645 C-35.66837301658984 10.255527121652987, -41.02971575242193 15.90799334269261, -49.2421875 24.56640625" stroke="#000000" stroke-width="1" fill="none"></path></g><g transform="translate(892.5947265625 255.12890625) rotate(0 -24.62109375 12.283203125)"><path d="M-21.90482449413615 21.444880927032816 C-30.954998130802903 22.478277827020776, -40.005171767469655 23.51167472700874, -49.2421875 24.56640625 M-21.90482449413615 21.444880927032816 C-29.645186555632584 22.32871658370215, -37.38554861712902 23.21255224037148, -49.2421875 24.56640625" stroke="#000000" stroke-width="1" fill="none"></path></g></g></svg>