<svg version="1.1" xmlns="http://www.w3.org/2000/svg" viewBox="0 0 1287.3125 587.1717320561409" width="1287.3125" height="587.1717320561409">
  <!-- svg-source:excalidraw -->
  
  <defs>
    <style>
      @font-face {
        font-family: "Virgil";
        src: url("https://excalidraw.com/Virgil.woff2");
      }
      @font-face {
        font-family: "Cascadia";
        src: url("https://excalidraw.com/Cascadia.woff2");
      }
    </style>
  </defs>
  <g transform="translate(10 94.16681231595572) rotate(0 250.6640625 210.2109375)"><path d="M0.06753303781151772 0.6872681997716428 C136.81609662629054 0.48315198114054525, 271.8092135900137 1.254843422676495, 501.66926207318903 -0.17234009280800822 M0.30150001756846906 0.10734804756939412 C111.20293503054565 0.6363562144860044, 221.70987045551013 0.19280614038551003, 501.6217069339007 0.293531321361661 M500.47336494096453 -0.4864515002945617 C500.47981908247715 151.75772902590995, 498.7488179462048 305.90702803316907, 502.00005539545657 421.3675322077914 M501.507361237976 -0.2980620718779441 C499.6046048693932 116.74095575823993, 499.4609614938478 233.95452814232772, 500.851962397297 420.44090753376196 M500.5976134993136 420.3012253664434 C398.56009521673116 421.9018529117861, 294.80077288751784 422.00860447295094, 0.25639362111687664 420.7983599327505 M501.6983505796641 420.38083096630874 C319.69763411809544 420.53096030887593, 137.41176865445158 420.2244089835547, 0.13250021450221539 420.33972923643887 M0.7148926659709757 420.2877983599729 C1.4963654826941946 258.867678353185, 2.357536321232165 95.72860660391436, -0.9350510360386323 0.9324780791743019 M-0.3796571263480825 419.892242239206 C-0.4348211465557726 272.7304319667673, -0.7636814822009343 124.16680809428969, 0.10791557263207392 -0.4542704896587068" stroke="#000000" stroke-width="1" fill="none"></path></g><g transform="translate(18.87890625 103.29181231595572) rotate(0 129.158203125 76.298828125)"><path d="M0.1699096645841161 0.5884802773679476 C103.64236499564959 2.1644889634321913, 203.83410167456188 2.797732577483678, 258.292342050245 0.811179590547971 M0.7590334049480463 0.7776404346432975 C84.30615111932177 -1.4174085635760818, 169.48273850373113 -1.4775818034947805, 258.69963108593595 -0.43684538907116666 M259.05442904867226 1.098514711484313 C256.8163134314383 48.6724443756375, 260.31126867311843 100.3166007091022, 257.62150912918145 153.21873722039163 M258.9096957324072 0.676605281420052 C258.0551384866992 47.26332140338673, 256.7064307213584 95.09240526979922, 258.3659222899004 152.78641828615218 M259.06319676398596 153.23905660772294 C187.4558966926553 150.59606673594092, 115.72732364221692 151.53740860776148, 1.1739465835996075 154.0881469428979 M258.6849890911033 151.81662666955432 C184.04377238124877 151.96244353686666, 109.25396132311232 152.01915189057678, 0.029281874592045058 153.18392793260702 M-0.16712654195725918 153.2323494311422 C1.967666302723046 95.17555515672029, -1.0561200632628243 36.9076154812974, -0.9726775344461203 -0.11726524867117405 M-0.8253793241456151 152.71230041701347 C1.3046963881528426 109.7461639450903, 1.8187834989106704 69.36327656526919, -0.9663150133565068 -0.9920097319409251" stroke="#000000" stroke-width="1" fill="none"></path></g><g transform="translate(21.79296875 268.7254060659557) rotate(0 237.642578125 70.93359375)"><path d="M0.7644524436109624 -0.41423756148053453 C155.66817944115917 0.08469192045735713, 311.93249948368685 -0.6429890289918172, 475.8313424052523 -0.4283348036409048 M-0.10283188975505997 -0.2180003852504815 C165.6174949886363 -1.8269834332170394, 332.3283904983093 -2.313086292575181, 475.4002274984205 -0.08837756706011653 M476.9484922233969 -1.1092281583696604 C476.4742340477407 31.537825134976448, 476.7256838115156 60.28421886716533, 475.49794649519026 141.46511307917535 M474.96309568267316 -0.18564543407410383 C477.08699794086374 39.06376368558486, 475.384807929124 77.419401633674, 475.3618051884696 141.78809636551887 M475.6140710561057 141.8095663894291 C323.0280905964004 141.10563991722168, 171.16604978341115 141.6577831420044, 0.5624072928865167 141.00481346254873 M475.44458694469824 141.81492382049788 C291.3235054630586 141.25330323222659, 106.37589453288182 140.77114395010884, 0.4080839752688929 141.44546072973262 M-1.868282025679946 142.02552590332925 C0.008297073935173094 99.9032709353858, 0.1981585503565293 53.04039058597263, 0.8050011340528727 -1.7902581337839365 M0.2232923088595271 142.41022845823318 C-2.150741810232648 111.11405385023463, -0.7001589185299963 78.6380362933225, -0.16772635001689196 -0.318641665391624" stroke="#000000" stroke-width="1" fill="none"></path></g><g transform="translate(21.75390625 420.5691560659557) rotate(0 238.517578125 41.826171875)"><path d="M-0.2528590611376115 -0.6846430548957217 C105.53913202217848 -0.8606342355127351, 211.12311442244356 -1.9438759706386302, 476.65586754198034 -0.15615553441157165 M0.334000288244251 -0.1606892492598246 C113.39227549386851 -1.7547667528641666, 227.30264308647438 -1.9050484674781971, 476.89903855100226 0.010304308096041617 M476.04534506238997 0.8241628762334585 C476.37310604146603 16.857188020077956, 475.27520392230633 33.30541053635898, 475.9979155603796 83.00701508484781 M477.2392213223502 0.4251074166968465 C477.1251761613241 31.63653781395806, 477.68709385374694 60.665897479102576, 477.78279300313443 82.82605430204421 M476.41650028076265 83.76790557574712 C325.9648961407908 82.03247430070749, 173.2435160487709 82.28291302586908, -0.6604385099650291 84.41001650307639 M477.15856430116804 83.63115124269383 C308.4445253471486 84.06325062357186, 140.0262284575826 83.89556958821593, 0.29512415111183754 83.3245732726354 M1.5687693301588297 81.71667984686792 C-0.9058407336908204 55.45458491815771, -1.5962149292665346 24.216940291571518, -0.5724826510995626 1.6899487730115652 M-0.7446864368394017 82.89335107523948 C0.7377280806713316 61.32008008958837, -0.3827253664321688 36.83530721947681, -0.6837750496342778 -0.5054208962246776" stroke="#000000" stroke-width="1" fill="none"></path></g><g transform="translate(289.671875 104.07306231595572) rotate(0 102.869140625 76.314453125)"><path d="M-0.37728736999015006 -1.3849169132839696 C65.50298553431715 -0.03326957195888702, 129.30852980197074 -0.8946607985605517, 207.1772419021396 1.0106045924076528 M0.6765438650259242 0.792550835142257 C51.701849067413384 2.5729075475725267, 104.38850897540766 2.2486072471830085, 205.6004666919445 0.6927500769698715 M206.44416981376708 1.9468616005033255 C205.5113222312309 36.02148484860773, 204.31844750159757 76.3657366214924, 205.54736935533583 153.1208389159292 M204.84233875852078 -0.040006193332374096 C205.50390931117417 30.491031103696514, 204.48948823559166 62.52069224868683, 206.6422456977889 151.8967654677108 M204.31025114246228 152.12423590923697 C127.55330123085834 151.7291886820128, 47.10960335910921 153.05480380586462, -0.554428482130486 151.9575579418079 M206.01628511755297 151.90262554891356 C136.75901549501697 151.88679517328094, 65.8257499396855 150.35472864636534, 0.6599208296615219 152.37940654132345 M-0.4781876262277365 154.0340006109327 C1.0212343456818416 103.52884989929626, -0.04987906193000535 56.695549392127575, -0.9511103685945272 0.9513975735753775 M-0.22730241436511278 152.51406243164092 C0.0832800867145489 99.3556575885519, -1.0634022651130726 47.101211066080566, -0.9472261788323522 0.4451215835288167" stroke="#000000" stroke-width="1" fill="none"></path></g><g transform="translate(119.81640625 163.78009356595572) rotate(0 23.5 12)"><text x="0" y="19" font-family="Cascadia, Segoe UI Emoji" font-size="20px" fill="#000000" text-anchor="start" style="white-space: pre;" direction="ltr">CARD</text></g><g transform="translate(341.4921875 167.77228106595572) rotate(0 52.5 12)"><text x="0" y="19" font-family="Cascadia, Segoe UI Emoji" font-size="20px" fill="#000000" text-anchor="start" style="white-space: pre;" direction="ltr">ASSISTANT</text></g><g transform="translate(204.79296875 321.5496248159557) rotate(0 29.5 12)"><text x="0" y="19" font-family="Cascadia, Segoe UI Emoji" font-size="20px" fill="#000000" text-anchor="start" style="white-space: pre;" direction="ltr">TABLE</text></g><g transform="translate(210.9453125 448.1902498159557) rotate(0 23.5 12)"><text x="0" y="19" font-family="Cascadia, Segoe UI Emoji" font-size="20px" fill="#000000" text-anchor="start" style="white-space: pre;" direction="ltr">CARD</text></g><g transform="translate(548.03125 94.62774981595572) rotate(0 237.259765625 210.150390625)"><path d="M0.38907368733310693 0.005468050159002115 C123.95499070366202 1.6067823336207765, 246.5756914672066 1.6813772327171486, 475.0997169662411 0.14838101211419877 M0.33654512068720926 0.2636008172807355 C187.77859187699718 1.2928881816664708, 375.5455377078762 0.9345320945843303, 474.86924723177134 -0.1439313487878926 M473.52998798928155 0.38129469745659417 C475.75559801371077 108.37147894283095, 477.08464056107226 216.31739283470188, 474.6805937145981 420.6700190655519 M474.878416627923 -0.009727710499264927 C475.36512823002306 166.5620832491229, 474.8268242086052 333.54111693285887, 474.57172424946816 420.7410204413933 M473.8483540942248 420.0999267515261 C291.82609228458546 419.269797727977, 107.97299446407096 419.77772640440963, -0.4168579252089649 420.49385768179997 M474.8916838723606 420.18886645977386 C364.3666386242772 419.77310125065173, 253.39398511314394 419.81052978240604, -0.07022892560143068 419.98623832771403 M0.6531099716575565 421.1118270506613 C-1.8764256880657937 290.29492193863024, -0.9246927634544981 161.91442274982202, -0.29595202238127144 1.0387835336450857 M0.26874617098479636 419.83558312273135 C1.6978420532911866 282.04171295490755, 2.044291691238165 143.25499843343152, 0.38635309544437013 0.33614012644164754" stroke="#000000" stroke-width="1" fill="none"></path></g><g transform="translate(566.6015625 111.56915606595572) rotate(0 217.4375 75.2109375)"><path d="M-0.011700214773346016 0.6535298758143628 C135.23051838856375 -2.828244869185994, 270.7051486572684 -2.65409532823692, 435.57145170308723 -0.5311248748583142 M0.2338931204071519 -0.13169222636855593 C124.2935901182836 -1.5015147219954805, 247.78378567220838 -1.9359163534121187, 435.2768186499714 -0.4559623299766858 M434.2169658895582 0.03545486368238926 C435.08512649479337 59.296199886755495, 436.3381809348149 121.2848444612202, 435.262078916654 151.10826080478728 M435.7228040965274 0.3515434740111232 C434.3707718015251 49.95237264097814, 435.4709248602924 98.5472690000228, 435.04776888806373 150.14887072425336 M434.13686524592293 150.43453414565866 C313.5371962876675 148.73154045923346, 189.48733792042052 147.91264767064018, -0.1356836635653655 150.11417903624172 M434.9969023162482 150.5876844168193 C346.6033938785695 150.0378070268936, 258.02624739559326 149.819319794469, -0.4519371613642262 149.95874248743343 M-0.7969464305788279 149.02072452940047 C0.8462572515754436 99.96068911648035, 0.7877920687942241 52.12281595026434, -0.057486021891236305 1.09223728813231 M-0.5636538593098521 150.28643225412816 C-0.06476627805022872 109.89622027729493, 0.3411404886028322 68.91212383238307, -0.5421310691162944 0.7911626873537898" stroke="#000000" stroke-width="1" fill="none"></path></g><g><g transform="translate(661.2700942472927 296.34070820552) rotate(0 169.9563537882641 0.7778771350035072)"><path d="M0.4346404764801264 -0.26955982781946664 C57.10872415910475 0.07860542497801731, 284.02973455688914 2.3904019947731476, 340.7090195792355 3.012436952770827 M-0.7963120027072728 -1.456682682763785 C55.73839085237123 -1.5704439087098543, 283.40545896974396 0.5435349069358388, 340.2216885620356 1.0369056962180412" stroke="#000000" stroke-width="1" fill="none"></path></g></g><g transform="translate(644.1796875 268.5300935659557) rotate(0 36.220703125 12.9921875)"><path d="M-0.45674354396760464 0.5323891397565603 C19.93468056917299 1.1917763461578943, 42.519397300111436 2.137175451706753, 72.36399673856792 -0.6345263365656137 M-0.9732138933613896 -0.007846447639167309 C16.55475212443161 -0.5194565331928971, 35.22445989484912 -0.2888522720330003, 72.54290436487642 -0.5844967989251018 M72.24460577405986 0.24422589503228664 C73.60634637994266 6.392250370579136, 73.12038273734547 15.600003468562509, 72.65799170173702 24.78071579895915 M73.04733632784334 0.8507875772193074 C72.95044513483252 5.626143650714951, 72.87729202647414 9.865913367093896, 73.37319560628382 26.388392177410438 M71.5695913378149 26.606748914346113 C47.051550615973596 24.41996909409192, 25.77184645724264 27.713516545588043, 0.1616214457899332 27.613184725865736 M72.00629730802027 26.840636697597816 C50.32393758224314 26.775345232711892, 27.638727323934276 25.62640046738253, -0.0636993171647191 25.154636141844108 M-1.1951047237962484 25.08425263129176 C-1.7610043100691108 20.09704399661133, 0.23087247091767496 11.028816914054921, -0.6646037753671408 -1.0888407472521067 M0.22663657646626234 25.958557602949455 C-0.2182321935678192 17.189116982086862, -0.32141269145256957 8.02965885176382, -0.9731331886723638 -0.11215040367096663" stroke="#000000" stroke-width="1" fill="none"></path></g><g><g transform="translate(649.0231345269829 269.10137680768963) rotate(0 -40.93152971946631 0.5626616401318358)"><path d="M0.019228276982903525 -0.6318417582660913 C-13.337571315156909 -0.5903706061964233, -67.14558908784137 0.2420574738954505, -80.70664778947825 0.49205409288406377 M-1.4298156069405377 1.6508373733051123 C-14.933057002654913 1.8300081776889663, -68.95114587235571 1.680512182296564, -81.88228771591554 1.7571650385297835" stroke="#000000" stroke-width="1" fill="none"></path></g></g><g><g transform="translate(568.60546875 270.0261873159557) rotate(0 0.05177195025612491 13.396378521667799)"><path d="M-0.57171132825315 0.5224738921970129 C-0.8979859815289577 5.070508532350263, -0.748072928811113 22.930767942095798, -0.874468507990241 27.041588303074242 M1.3290014950744808 -0.24883125973865394 C0.8494367506417135 4.003213142820945, -0.7143031322645647 21.062617040543508, -1.225457594562322 25.4473903821595" stroke="#000000" stroke-width="1" fill="none"></path></g></g><g transform="translate(583.421875 269.3621248159557) rotate(0 23.5 12)"><text x="0" y="19" font-family="Cascadia, Segoe UI Emoji" font-size="20px" fill="#000000" text-anchor="start" style="white-space: pre;" direction="ltr">tab1</text></g><g transform="translate(655.3203125 269.2722810659557) rotate(0 23.5 12)"><text x="0" y="19" font-family="Cascadia, Segoe UI Emoji" font-size="20px" fill="#000000" text-anchor="start" style="white-space: pre;" direction="ltr">tab2</text></g><g><g transform="translate(231.515625 171.80743731595572) rotate(0 211.8731177798938 -69.08898245295585)"><path d="M-0.3787509229034185 0.5142005290836096 C2.893720659986138 -3.471349934116006, 13.804497461890179 -16.5205952240775, 19.966708144918083 -23.799105409160255 C26.128918827945988 -31.07761559424301, 31.348980221524833 -37.98939864970744, 36.594513175264 -43.156860581412914 C41.84004612900316 -48.32432251311839, 43.18634768066307 -48.14196608799199, 51.43990586735308 -54.803876999393104 C59.6934640540431 -61.46578791079422, 75.32814362185697 -75.57818767564993, 86.11586229540407 -83.12832604981959 C96.90358096895118 -90.67846442398925, 100.85505245265861 -92.74430771606664, 116.16621790863573 -100.10470724441112 C131.47738336461285 -107.46510677275559, 162.77523253895342 -121.65922676262755, 177.9828550312668 -127.29072321988642 C193.1904775235802 -132.92221967714528, 198.05569641329348 -132.00017870205141, 207.41195286251605 -133.89368598796426 C216.76820931173862 -135.7871932738771, 223.9608524415642 -138.32603804605702, 234.1203937266022 -138.6517669353634 C244.2799350116402 -138.9774958246698, 256.98297357298435 -137.32028868136308, 268.36920057274403 -135.8480593238026 C279.7554275725037 -134.37582996624212, 294.95925463177264 -131.40925303635498, 302.43775572516023 -129.81839079000056 C309.9162568185478 -128.22752854364614, 308.84290606714785 -127.95063374775151, 313.24020713306965 -126.30288584567606 C317.63750819899144 -124.65513794360061, 324.41578416166203 -122.00421678560475, 328.82156212069094 -119.93190337754785 C333.22734007971985 -117.85958996949095, 334.18982332286737 -117.74332978663344, 339.67487488724294 -113.86900539733469 C345.1599264516185 -109.99468100803594, 355.7355517083158 -102.45536288755635, 361.7318715069443 -96.68595704175532 C367.72819130557275 -90.91655119595428, 370.2910756005595 -87.80023226675888, 375.6527936790138 -79.25257032252848 C381.01451175746814 -70.70490837829809, 389.31898044881723 -55.64280201929311, 393.9021799776703 -45.39998537637293 C398.4853795065234 -35.15716873345276, 405.55607045230767 -19.484003948544462, 403.1519908521324 -17.795670465007426 C400.7479112519572 -16.10733698147039, 382.3661029352496 -33.75224381623169, 379.477702376619 -35.26998447515071 C376.58930181798837 -36.787725134069724, 381.9858820968618 -28.89480759240687, 385.8215875003487 -26.902114418521524 C389.6572929038356 -24.909421244636178, 396.17994651136297 -20.56718437212209, 402.4919347975403 -23.31382543183863 C408.8039230837176 -26.06046649155517, 420.2055430863053 -40.1723892920961, 423.6935172174126 -43.381960776820776 M1.6232661132328214 -0.2614481384865939 C4.7238792227022355 -4.577369065415114, 12.87031983855491 -18.488651240995775, 19.109875863622875 -25.410155810248106 C25.34943188869084 -32.33166037950044, 33.56698755962774 -36.51718108428642, 39.06060226364061 -41.79047555400059 C44.55421696765348 -47.06377002371475, 43.910448118479295 -50.20973226063575, 52.0715640877001 -57.049922628533096 C60.2326800569209 -63.890112996430446, 77.187223935357 -75.5423747163328, 88.0272980789654 -82.83161776138469 C98.8673722225738 -90.12086080643658, 102.54241164925818 -93.12852865808333, 117.11200894935057 -100.78538089884445 C131.68160624944295 -108.44223313960558, 160.51614045126362 -123.24339163634306, 175.44488187951967 -128.77273120595143 C190.37362330777572 -134.3020707755598, 197.12307729287073 -132.62774062865103, 206.68445751888677 -133.96141831649467 C216.24583774490281 -135.29509600433832, 222.3590935526602 -136.4293643312963, 232.81316323561595 -136.77479733301325 C243.2672329185717 -137.1202303347302, 258.2598587862961 -136.804156909318, 269.40887561662123 -136.03401632679626 C280.55789244694637 -135.26387574427451, 292.62602301819254 -133.79247216317182, 299.7072642175667 -132.15395383788274 C306.7885054169409 -130.51543551259365, 307.09243549151347 -128.1757901953968, 311.8963228128664 -126.20290637506172 C316.70021013421933 -124.23002255472665, 323.9888998765064 -122.43554553561533, 328.5305881456845 -120.3166509158723 C333.07227641486253 -118.19775629612927, 333.47973156216864 -117.30271047386651, 339.14645242793483 -113.48953865660354 C344.813173293701 -109.67636683934057, 356.83039828124765 -103.33644089393938, 362.5309133402817 -97.4376200122945 C368.23142839931575 -91.53879913064962, 368.27462948524084 -86.37066481503967, 373.34954278213905 -78.09661336673423 C378.42445607903727 -69.82256191842879, 388.2094423860622 -57.8846292667898, 392.98039312167094 -47.79331132246181 C397.75134385727966 -37.70199337813382, 403.8830065393758 -19.662145080895474, 401.97524719579144 -17.548705700766295 C400.0674878522071 -15.435266320637117, 384.2055032195958 -33.351118141145754, 381.5338370601647 -35.11267504168674 C378.86217090073353 -36.87423194222773, 382.5733441698861 -29.883080633413044, 385.9452502392046 -28.11804710401222 C389.31715630852307 -26.353013574611396, 395.40198410216095 -21.77063896231974, 401.7652734760754 -24.52247386528179 C408.1285628499898 -27.274308768243838, 420.51901965541765 -41.564921667904905, 424.12498648269104 -44.62905652178451" stroke="#5c940d" stroke-width="1" fill="none"></path></g></g><g><g transform="translate(463.59375 230.03790606595572) rotate(0 122.6008602863144 13.75517909446657)"><path d="M0.06805002428591256 -0.7572776947170496 C6.616482402260106 -1.7737938358138003, 15.128081652894618 -4.5301685406516, 38.95777331329882 -6.099393752589822 C62.787464973703024 -7.668618964528044, 117.66380128997068 -10.978270367160441, 143.04619998671114 -10.172628966346384 C168.4285986834516 -9.366987565532327, 180.027382840092 -4.047978003198901, 191.25216549374164 -1.2655453477054834 C202.47694814739128 1.5168873077879348, 204.28948466914397 2.635818414514264, 210.39489590860904 6.521966966614127 C216.5003071480741 10.408115518713991, 224.708265143012 16.837161040926972, 227.8846329305321 22.0513459648937 C231.06100071805218 27.265530888860425, 230.93289825258154 37.34326911432048, 229.45310263372957 37.80707651041448 C227.9733070148776 38.27088390650849, 219.953573613738 25.857768122976026, 219.0058592174202 24.834190341457724 C218.05814482110242 23.810612559939422, 222.51738188403348 30.426340846841534, 223.7668162558228 31.665609821304677 C225.0162506276121 32.90487879576782, 222.98925226268668 33.91628464919825, 226.502465448156 32.26980418823659 C230.0156786336253 30.623323727274933, 241.63203061558306 23.6732823099941, 244.84609536863863 21.78672705553472 C248.0601601216942 19.900171801075338, 245.75687010027468 21.09835515084366, 245.78685396648945 20.95047266148031 M-1.355362442303449 1.459547570217401 C5.050905332795033 0.6154860157457493, 13.90509432358667 -2.931541564396272, 37.9301369641535 -4.753603346478194 C61.95517960472033 -6.575665128560115, 117.71657211088265 -10.25797412527725, 142.7948934010975 -9.47282312227413 C167.87321469131237 -8.68767211927101, 177.2872747834834 -2.2639785563262804, 188.40006470544265 -0.042697328459471606 C199.51285462740188 2.178583899407337, 202.68678465746962 -0.16644511633242232, 209.47163293285294 3.8548642449267208 C216.25648120823627 7.876173606185864, 226.1853676426721 18.61192213383193, 229.1091543577425 24.085158839095385 C232.03294107281292 29.55839554435884, 228.86561386767156 36.63872512287771, 227.0143532232754 36.694284476507455 C225.16309257887926 36.7498438301372, 218.72056267979866 25.496975935765853, 218.00159049136565 24.41851496087387 C217.28261830293263 23.34005398598189, 221.21771306180085 28.472622855373967, 222.70052009267732 30.22351862715557 C224.1833271235538 31.974414398937174, 223.2280861318422 36.705982654162995, 226.8984326766245 34.923889591563494 C230.56877922140683 33.141796528963994, 241.7944282685034 22.01038642751053, 244.72259936137124 19.53096025155857 C247.65077045423908 17.051534075606614, 244.42972673578188 19.431007718710852, 244.46745923383162 20.047332535851748" stroke="#5c940d" stroke-width="1" fill="none"></path></g></g><g><g transform="translate(376.55078125 343.2918123159557) rotate(0 113.29760921312499 20.36799343660772)"><path d="M-0.21848728917539118 -0.9999357853084803 C1.5837307943652075 0.9673518862575294, 6.344794461503625 7.429831449811657, 11.743457374349237 11.81997971199453 C17.14212028719485 16.2101279741774, 25.911752400174738 21.840213001395266, 32.17349018789828 25.34095378778875 C38.43522797562182 28.84169457418223, 44.66098305918277 31.139551894490918, 49.31388410069049 32.82442443035543 C53.966785142198205 34.50929696621994, 53.81001980441312 34.10048403404653, 60.090896436944604 35.45018900297582 C66.37177306947609 36.79989397190511, 77.5993126684179 39.91543699167669, 86.99914389587939 40.92265424393118 C96.39897512334088 41.92987149618566, 104.9772543920825 41.84832271399598, 116.48988380171359 41.49349251650274 C128.00251321134468 41.138662319009505, 144.96085750795902 39.8010739809523, 156.07492035366596 38.79367305897176 C167.1889831993729 37.78627213699122, 171.25476475693284 38.96650898916026, 183.1742608759552 35.4490869846195 C195.09375699497758 31.931664980078736, 226.14669179655613 21.82820114356776, 227.59189706780018 17.689141031727196 C229.03710233904422 13.55008091988663, 194.60443240938088 11.86920301578939, 191.8454925034195 10.614726313576103 C189.08655259745814 9.360249611362816, 205.60684808629256 9.413843219106397, 211.03825763203204 10.16228081844747 C216.46966717777153 10.910718417788544, 222.49725344317653 10.490096200133364, 224.43394977785647 15.10535190962255 C226.3706461125364 19.72060761911174, 222.72625476258497 34.252108280484876, 222.65843564011158 37.85381507538259 M-1.7923318453319372 1.089493982065469 C-0.15079868174468491 3.205010585654527, 5.790317684840411 8.841345139810194, 11.267758282255382 13.029105249512941 C16.745198879670355 17.21686535921569, 24.679082319568842 22.7427520742702, 31.072311739157886 26.216054640281946 C37.46554115874693 29.689357206293693, 44.48456980509683 32.3053639126507, 49.62713479978964 33.86892064558342 C54.76969979448244 35.43247737851615, 56.041948395005114 34.50548050032929, 61.9277017073147 35.59739503787831 C67.81345501962429 36.68930957542732, 75.74373660329108 39.633197255600244, 84.94165467364714 40.42040787087753 C94.13957274400319 41.20761848615482, 105.47295424603546 40.665972878007835, 117.115210129451 40.320658729542046 C128.75746601286653 39.97534458107626, 144.00192452473567 39.297040806679675, 154.79518997414038 38.34852298008278 C165.5884554235451 37.40000515348588, 169.60940944297238 38.220148803660024, 181.8748028258793 34.62955176996067 C194.14019620878622 31.038954736261317, 226.76417751474307 20.69130374557649, 228.38755027158186 16.80494077788666 C230.01092302842065 12.918577810196828, 194.69013397279505 12.519370581973345, 191.6150393669121 11.31137396382168 C188.53994476102915 10.103377345670015, 204.35543535195913 9.089744210311522, 209.93698263628409 9.55696106897667 C215.51852992060904 10.02417792764182, 223.14399990581597 9.388594267635295, 225.1043230728619 14.11467511581257 C227.0646462399078 18.840755963989846, 221.74647114836299 34.297266172238935, 221.69892163855954 37.913446158040315" stroke="#5c940d" stroke-width="1" fill="none"></path></g></g><g><g transform="translate(588.7890625 327.6472810659557) rotate(0 188.72997135197738 2.413241133205588)"><path d="M0.5729691233485936 0.1925531599670649 C63.513143579786025 0.9467086010922989, 315.1400362140189 3.452930654461185, 378.04530352018776 4.004035482183099 M-0.5853608162328601 -0.7519603763893248 C62.12060855039706 0.2583049664025505, 313.92605940430116 4.688348770650725, 376.8523900609091 5.5784426428005105" stroke="#000000" stroke-width="1" fill="none"></path></g></g><g><g transform="translate(591.892578125 345.6179841909557) rotate(0 188.89169313172818 2.248067897008724)"><path d="M0.19784855581820016 0.7476379003375768 C63.33986791906257 1.5572898195435605, 315.9650452031443 3.8618447309980795, 378.9408059451729 4.401591941341758 M-1.1574196817167104 0.09454385267570609 C61.856363167793795 0.5794413245407242, 315.1841981127175 1.6519427373694873, 378.21803125901147 2.5247162430174646" stroke="#000000" stroke-width="1" fill="none"></path></g></g><g><g transform="translate(595.236328125 369.0945466909557) rotate(0 188.3699424252473 1.320926446262746)"><path d="M0.09931690357625489 -1.073747470602393 C63.185556118314466 -0.42764409246544044, 314.9234305030356 2.0786557807276647, 378.04756530188024 2.782499561086297 M-1.3076804513856768 0.976931161992252 C61.621037671652935 1.8224171087269982, 313.59573569505164 3.2025795882071058, 376.8558392779902 3.715600363127887" stroke="#000000" stroke-width="1" fill="none"></path></g></g><g><g transform="translate(595.580078125 394.8289216909557) rotate(0 189.1214723932277 1.9749727551825345)"><path d="M0.46914530731737614 -0.2868704829365015 C63.75911121902367 0.45062224132319284, 316.0073754324268 3.1843424207220474, 378.986636922136 3.908680924400687 M-0.7436921356804669 -1.4830814318172634 C62.49570920023446 -0.498226732245336, 315.2487517123731 4.278751714198539, 378.2879234988801 5.433026942182332" stroke="#000000" stroke-width="1" fill="none"></path></g></g><g><g transform="translate(592.947265625 420.2781404409556) rotate(0 189.7454107803665 1.693091575019082)"><path d="M1.1026728596538307 -0.07839164994657044 C64.27159258586664 0.4386811190595229, 316.18078273596865 2.5282916917155185, 379.2683841791004 3.3305218551307916 M0.22243738163262616 -1.1651512115076184 C63.27724328467001 -0.5164369436974326, 315.51319785027454 3.888274352463583, 378.7175880657509 4.551334361545742" stroke="#000000" stroke-width="1" fill="none"></path></g></g><g><g transform="translate(592.873046875 445.5203279409557) rotate(0 189.15095583517103 1.7780257914587878)"><path d="M-0.20542763806879516 0.6024827811866997 C62.85636508924265 1.1921915822972853, 314.4565422541151 2.1159921421358985, 377.75804941318927 2.7610365603119136 M-1.7724158773943783 -0.1268177040293812 C61.72902135231842 0.6326665127401553, 316.54373111544794 3.2595175393546625, 380.07432754773646 3.6828692869469526" stroke="#000000" stroke-width="1" fill="none"></path></g></g><g transform="translate(938.43359375 377.2175935659557) rotate(0 10.755859375 7.833984375)"><path d="M7.108853694645971 0.00012328276116502224 C9.149060089401297 -0.3987381725646025, 12.19216429969704 0.7994284885981896, 14.453596104126373 1.4766167775937156 C16.715027908555705 2.1538050665892414, 19.58685872726842 2.700629335377826, 20.677444521221965 4.063253016734321 C21.76803031517551 5.425876698090816, 21.76258831300931 7.873445820875927, 20.997110867847624 9.652358865732687 C20.23163342268594 11.431271910589448, 17.979136951424657 13.900275262558152, 16.084579850251846 14.736731285874885 C14.190022749079036 15.573187309191619, 11.671189340243712 15.00495107169247, 9.629768260810764 14.671095005633088 C7.588347181377815 14.337238939573705, 5.561880218063767 13.589693124675197, 3.8360533736541527 12.733594889518592 C2.110226529244538 11.877496654361988, -0.3900175114779027 11.21930717767565, -0.725192805646925 9.534505594693455 C-1.0603680998159473 7.849704011711258, 0.13866194067719673 4.168847685812212, 1.8250016086400187 2.624785391625413 C3.511341276602841 1.0807230974386146, 7.802645087855915 0.8383227495841612, 9.392845202130006 0.27013182957266313 C10.983045316404098 -0.29805909043883494, 11.352771471409293 -0.9620563732594704, 11.366202294284571 -0.7843601284435753 M9.253401140024538 -1.133216152011289 C11.579346478790413 -1.7167718775238408, 16.170786559689123 -0.6038472908810266, 17.962783509016106 0.5454166648983323 C19.754780458343088 1.6946806206776912, 19.648185666105423 3.7155417931706163, 20.00538283598643 5.762367582664864 C20.36258000586744 7.809193372159112, 20.835917161291974 11.504086725849252, 20.105966528302154 12.826371401863819 C19.376015895312335 14.148656077878385, 17.5602082316253 13.291598846081655, 15.625679038047513 13.696075638752262 C13.691149844469727 14.10055243142287, 10.654730497060882 15.751218311709179, 8.498791366835441 15.253232157887462 C6.34285223661 14.755246004065745, 4.152133521795697 12.28953529637591, 2.6900442566948666 10.708158715821959 C1.227954991594036 9.126782135268009, -0.16791525302496185 6.962922465205229, -0.2737442237695422 5.764972674563757 C-0.3795731945141226 4.567022883922285, 0.37100409804166645 4.5764499149433675, 2.0550704322273843 3.52045997197313 C3.739136766413102 2.4644700290028934, 8.460340296084727 -0.05668773718486042, 9.830653781344765 -0.570966983257664 C11.200967266604803 -1.0852462293304677, 10.342234937552657 0.09237679451855668, 10.276951343787607 0.4347844955363085" stroke="#000000" stroke-width="1" fill="none"></path></g><g><g transform="translate(950.453125 386.2136873159557) rotate(0 56.31182147599759 -27.453962814761326)"><path d="M-0.9111644055694341 -0.4170212421566247 C18.201842659090957 -9.27930510379374, 94.58622785943251 -43.92650775052607, 113.53480735756457 -52.671855500712994 M0.8113355521671473 -1.6815613396279514 C19.968521130712084 -10.94280148042366, 94.62973408543195 -45.59747253132984, 113.19976231915876 -54.49090438736603" stroke="#000000" stroke-width="1" fill="none"></path></g><g transform="translate(950.453125 386.2136873159557) rotate(0 56.31182147599759 -27.453962814761326)"><path d="M91.36885497887016 -31.254617242314694 C97.26558315953783 -36.71038560978795, 101.23065190326832 -43.37414957593418, 113.07685193320737 -55.49814464738593 M92.61955619119436 -32.65639714075702 C97.36013620916108 -38.49197795745605, 104.2097665850838 -44.410172420617, 112.64246656740085 -53.71413749391213" stroke="#000000" stroke-width="1" fill="none"></path></g><g transform="translate(950.453125 386.2136873159557) rotate(0 56.31182147599759 -27.453962814761326)"><path d="M82.6285981581386 -49.82146708534123 C90.39237048998488 -51.409671504375254, 96.14683563225708 -54.2722366130038, 113.07685193320737 -55.49814464738593 M83.8792993704628 -51.22324698378356 C91.172263397924 -52.0110981571047, 100.42782801823402 -52.81838789927652, 112.64246656740085 -53.71413749391213" stroke="#000000" stroke-width="1" fill="none"></path></g></g><g transform="translate(1061.00390625 252.02228106595572) rotate(0 108.154296875 72.5703125)"><path d="M-1.6222149020866001 0.8582616902212549 C47.338146408709484 0.23549613871272024, 96.56938537921025 -2.1955568084699877, 216.34764310194208 -0.2769380288984517 M0.6058771415555453 0.8201694339760558 C60.404131453849075 0.6078513755141599, 120.06789249520982 0.7725252005931393, 216.37235867255512 0.5360891425430052 M214.8291889373213 -0.34971281327307224 C215.34602067377492 30.48972815206944, 217.91230693962498 63.773785435160974, 216.52823084034026 143.24261281453073 M216.4485691068694 0.7504514427855611 C215.167834438008 52.00746380179917, 216.63651902191035 102.07062564353983, 215.9292383370921 145.27548852283508 M218.03791087758316 143.80097816031144 C152.20452978622697 146.85782560527372, 87.7382354501517 146.6831192887304, -0.9993257268710313 144.09238380219566 M216.03015350718906 145.53053770978292 C136.28529227956352 144.38112399063667, 54.49665455646689 143.86731101416342, 0.16810763024824404 144.65485216611324 M-0.11544252000749111 144.61474171839654 C-1.7489620936389836 105.62085601764993, -2.195802201079932 70.34490206433983, -1.5221859868615866 -1.4397717956453562 M0.884297120384872 145.04692309815437 C-0.1855014302457858 95.87737361503969, -0.315813962432294 46.39001121230831, -0.4925718726590276 -0.9368651239201427" stroke="#000000" stroke-width="1" fill="none"></path></g><g transform="translate(1193.16796875 258.3230623159557) rotate(0 35 12)"><text x="0" y="19" font-family="Cascadia, Segoe UI Emoji" font-size="20px" fill="#000000" text-anchor="start" style="white-space: pre;" direction="ltr">wizard</text></g><g><g transform="translate(452.98046875 467.8386873159557) rotate(0 347.28228867985314 -58.36856632076797)"><path d="M-0.8563792850822209 -0.6844702038913965 C1.5053891473760208 0.4894027795642616, 8.734102528666458 4.4522237585236635, 14.703631708398461 6.105414852127433 C20.673160888130464 7.758605945731203, 24.712709154064456 7.504409178718924, 34.960795793309806 9.234676357731223 C45.20888243255516 10.964943536743522, 63.69796594120562 15.200276061519983, 76.19215154387057 16.487017926201226 C88.68633714653551 17.77375979088247, 80.04334375597536 16.948658228541415, 109.92590940929949 16.955127545818687 C139.80847506262361 16.96159686309596, 221.42861554759244 17.316983251397808, 255.48754546381534 16.525833829864858 C289.54647538003826 15.734684408331908, 285.0439709319423 16.295204743370412, 314.27948890663686 12.208231016620994 C343.51500688133143 8.121257289871574, 406.6337661915769 -3.593390348926186, 430.90065331198275 -7.996008530631661 C455.1675404323886 -12.398626712337137, 445.71123781738186 -10.244395287210743, 459.88081162907184 -14.207478073611856 C474.05038544076183 -18.17056086001297, 496.3862368835757 -24.71108562486867, 515.9180961821228 -31.774505249038338 C535.4499554806699 -38.83792487320801, 551.3976509227107 -44.57017441528539, 577.0719674203544 -56.587995818629864 C602.7462839179982 -68.60581722197433, 651.9891851756722 -93.21946846184632, 669.9639951679856 -103.88143366910518 C687.9388051602989 -114.54339887636404, 688.8725136333455 -118.19349331793686, 684.9208273742348 -120.55978706218302 C680.9691411151241 -122.92608080642918, 649.267773828283 -116.87195682860911, 646.2538776133209 -118.07919613458216 C643.2399813983589 -119.28643544055521, 660.2323428763697 -125.32766579724849, 666.8374500844627 -127.80322289802135 C673.4425572925558 -130.2787799987942, 681.1206031018247 -136.33407806890705, 685.884520861879 -132.9325387392193 C690.6484386219332 -129.53099940953155, 693.9116764121999 -111.50124003030359, 695.4209566447884 -107.39398691989481 M0.8948828609101476 1.5705789937265218 C3.1166346034718058 2.4588139791972936, 8.645721471638728 2.810219973096003, 14.143449922930449 4.210448525715619 C19.64117837422217 5.610677078335235, 23.527982775500668 8.28738952593878, 33.88125356866047 9.97195030944422 C44.23452436182027 11.656511092949659, 63.31230659080669 13.187772954870017, 76.26307468188926 14.317813226748259 C89.21384277297184 15.4478534986265, 81.45588265551254 16.59387778755898, 111.5858621151559 16.752191940713672 C141.71584157479927 16.910506093868364, 223.23194888465727 16.26049670792495, 257.04295143974946 15.267698145676404 C290.8539539948416 14.274899583427857, 285.55203095369666 14.770514847803861, 314.451877445709 10.795400567222387 C343.3517239377213 6.820286286640913, 405.917817298503 -4.192407921385019, 430.4420303918235 -8.582987537812441 C454.966243485144 -12.973567154239863, 447.2439976570321 -11.614175530305754, 461.59715600563214 -15.548077131342144 C475.9503143542322 -19.481978732378533, 497.29412244432297 -25.407182795039066, 516.5609804834239 -32.18639714403078 C535.8278385225249 -38.96561149302249, 551.331149627498 -44.7141956254157, 577.1983042402379 -56.22336322529242 C603.0654588529778 -67.73253082516914, 653.771350975763 -90.39413227501635, 671.7639081598631 -101.2414027432911 C689.7564653439633 -112.08867321156586, 689.0155881020737 -118.4758133411718, 685.1536473448389 -121.30698603494093 C681.291706587604 -124.13815872871007, 651.5179322548024 -117.0245503066294, 648.5922636164538 -118.22843890590593 C645.6665949781052 -119.43232750518247, 661.7225653594048 -126.1881872062199, 667.5996355147473 -128.5303176306002 C673.4767056700898 -130.8724480549805, 679.3516706434203 -135.94277771019065, 683.8546845485084 -132.28122145218774 C688.3576984535965 -128.61966519418482, 692.9512920114709 -110.5566476242058, 694.617718945276 -106.56098008258269" stroke="#5c940d" stroke-width="1" fill="none"></path></g></g><g><g transform="translate(527.39453125 10.920718565955724) rotate(0 1.1414129648357516 282.6651474621147)"><path d="M0.3035669300705195 -0.9207185659557581 C0.6810828143109879 93.45517023069165, 1.7132654084513586 471.5677344805251, 1.9792589996010066 566.2510134901852" stroke="#000000" stroke-width="2.5" fill="none" stroke-dasharray="3 6"></path></g></g><g transform="translate(364.62109375 531.4910310659557) rotate(0 76 12)"><text x="0" y="19" font-family="Cascadia, Segoe UI Emoji" font-size="20px" fill="#000000" text-anchor="start" style="white-space: pre;" direction="ltr">WSC workspace</text></g><g transform="translate(546.27734375 533.5144685659557) rotate(0 99.5 12)"><text x="0" y="19" font-family="Cascadia, Segoe UI Emoji" font-size="20px" fill="#000000" text-anchor="start" style="white-space: pre;" direction="ltr">iAccess workspace</text></g></svg>